%TF.GenerationSoftware,KiCad,Pcbnew,(6.0.2)*%
%TF.CreationDate,2022-07-10T15:45:18-05:00*%
%TF.ProjectId,REF1395A Optimized,52454631-3339-4354-9120-4f7074696d69,rev?*%
%TF.SameCoordinates,Original*%
%TF.FileFunction,Copper,L1,Top*%
%TF.FilePolarity,Positive*%
%FSLAX46Y46*%
G04 Gerber Fmt 4.6, Leading zero omitted, Abs format (unit mm)*
G04 Created by KiCad (PCBNEW (6.0.2)) date 2022-07-10 15:45:18*
%MOMM*%
%LPD*%
G01*
G04 APERTURE LIST*
G04 Aperture macros list*
%AMRoundRect*
0 Rectangle with rounded corners*
0 $1 Rounding radius*
0 $2 $3 $4 $5 $6 $7 $8 $9 X,Y pos of 4 corners*
0 Add a 4 corners polygon primitive as box body*
4,1,4,$2,$3,$4,$5,$6,$7,$8,$9,$2,$3,0*
0 Add four circle primitives for the rounded corners*
1,1,$1+$1,$2,$3*
1,1,$1+$1,$4,$5*
1,1,$1+$1,$6,$7*
1,1,$1+$1,$8,$9*
0 Add four rect primitives between the rounded corners*
20,1,$1+$1,$2,$3,$4,$5,0*
20,1,$1+$1,$4,$5,$6,$7,0*
20,1,$1+$1,$6,$7,$8,$9,0*
20,1,$1+$1,$8,$9,$2,$3,0*%
G04 Aperture macros list end*
%ADD10C,0.170000*%
%TA.AperFunction,NonConductor*%
%ADD11C,0.170000*%
%TD*%
%TA.AperFunction,SMDPad,CuDef*%
%ADD12R,2.220000X0.600000*%
%TD*%
%TA.AperFunction,SMDPad,CuDef*%
%ADD13R,0.600000X2.220000*%
%TD*%
%TA.AperFunction,SMDPad,CuDef*%
%ADD14RoundRect,0.150000X0.150000X-0.587500X0.150000X0.587500X-0.150000X0.587500X-0.150000X-0.587500X0*%
%TD*%
%TA.AperFunction,ComponentPad*%
%ADD15C,5.240000*%
%TD*%
%TA.AperFunction,ComponentPad*%
%ADD16C,1.860000*%
%TD*%
%TA.AperFunction,SMDPad,CuDef*%
%ADD17R,0.600000X3.420000*%
%TD*%
%TA.AperFunction,SMDPad,CuDef*%
%ADD18R,1.670000X1.670000*%
%TD*%
%TA.AperFunction,ComponentPad*%
%ADD19C,1.830000*%
%TD*%
%TA.AperFunction,SMDPad,CuDef*%
%ADD20R,1.100000X7.600000*%
%TD*%
%TA.AperFunction,ComponentPad*%
%ADD21C,2.020000*%
%TD*%
%TA.AperFunction,SMDPad,CuDef*%
%ADD22R,0.650000X2.300000*%
%TD*%
%TA.AperFunction,SMDPad,CuDef*%
%ADD23R,2.300000X0.650000*%
%TD*%
%TA.AperFunction,ViaPad*%
%ADD24C,0.800000*%
%TD*%
%TA.AperFunction,Conductor*%
%ADD25C,0.250000*%
%TD*%
%TA.AperFunction,Conductor*%
%ADD26C,0.200000*%
%TD*%
%TA.AperFunction,Conductor*%
%ADD27C,0.600000*%
%TD*%
%TA.AperFunction,Conductor*%
%ADD28C,0.550000*%
%TD*%
G04 APERTURE END LIST*
D10*
D11*
X123785000Y-57746857D02*
X123435000Y-57175428D01*
X123185000Y-57746857D02*
X123185000Y-56546857D01*
X123585000Y-56546857D01*
X123685000Y-56604000D01*
X123735000Y-56661142D01*
X123785000Y-56775428D01*
X123785000Y-56946857D01*
X123735000Y-57061142D01*
X123685000Y-57118285D01*
X123585000Y-57175428D01*
X123185000Y-57175428D01*
X124235000Y-57118285D02*
X124585000Y-57118285D01*
X124735000Y-57746857D02*
X124235000Y-57746857D01*
X124235000Y-56546857D01*
X124735000Y-56546857D01*
X125535000Y-57118285D02*
X125185000Y-57118285D01*
X125185000Y-57746857D02*
X125185000Y-56546857D01*
X125685000Y-56546857D01*
X126635000Y-57746857D02*
X126035000Y-57746857D01*
X126335000Y-57746857D02*
X126335000Y-56546857D01*
X126235000Y-56718285D01*
X126135000Y-56832571D01*
X126035000Y-56889714D01*
X126985000Y-56546857D02*
X127635000Y-56546857D01*
X127285000Y-57004000D01*
X127435000Y-57004000D01*
X127535000Y-57061142D01*
X127585000Y-57118285D01*
X127635000Y-57232571D01*
X127635000Y-57518285D01*
X127585000Y-57632571D01*
X127535000Y-57689714D01*
X127435000Y-57746857D01*
X127135000Y-57746857D01*
X127035000Y-57689714D01*
X126985000Y-57632571D01*
X128135000Y-57746857D02*
X128335000Y-57746857D01*
X128435000Y-57689714D01*
X128485000Y-57632571D01*
X128585000Y-57461142D01*
X128635000Y-57232571D01*
X128635000Y-56775428D01*
X128585000Y-56661142D01*
X128535000Y-56604000D01*
X128435000Y-56546857D01*
X128235000Y-56546857D01*
X128135000Y-56604000D01*
X128085000Y-56661142D01*
X128035000Y-56775428D01*
X128035000Y-57061142D01*
X128085000Y-57175428D01*
X128135000Y-57232571D01*
X128235000Y-57289714D01*
X128435000Y-57289714D01*
X128535000Y-57232571D01*
X128585000Y-57175428D01*
X128635000Y-57061142D01*
X129585000Y-56546857D02*
X129085000Y-56546857D01*
X129035000Y-57118285D01*
X129085000Y-57061142D01*
X129185000Y-57004000D01*
X129435000Y-57004000D01*
X129535000Y-57061142D01*
X129585000Y-57118285D01*
X129635000Y-57232571D01*
X129635000Y-57518285D01*
X129585000Y-57632571D01*
X129535000Y-57689714D01*
X129435000Y-57746857D01*
X129185000Y-57746857D01*
X129085000Y-57689714D01*
X129035000Y-57632571D01*
X130035000Y-57404000D02*
X130535000Y-57404000D01*
X129935000Y-57746857D02*
X130285000Y-56546857D01*
X130635000Y-57746857D01*
D12*
%TO.P,U3,1,I/O*%
%TO.N,/D0*%
X152398000Y-99056000D03*
%TO.P,U3,2,I/O*%
%TO.N,/D1*%
X152400000Y-100047000D03*
%TO.P,U3,3,I/O*%
%TO.N,/D2*%
X152399000Y-101037000D03*
%TO.P,U3,4,I/O*%
%TO.N,/D3*%
X152400000Y-102074000D03*
%TO.P,U3,5,I/O*%
%TO.N,/D4*%
X152398000Y-103066000D03*
%TO.P,U3,6,I/O*%
%TO.N,/D5*%
X152395000Y-104054000D03*
%TO.P,U3,7,I/O*%
%TO.N,/D6*%
X152396000Y-105125000D03*
%TO.P,U3,8,I/O*%
%TO.N,/D7*%
X152398000Y-106119000D03*
%TO.P,U3,9,I/O*%
%TO.N,unconnected-(U3-Pad9)*%
X152399000Y-107110000D03*
%TO.P,U3,10,GND*%
%TO.N,/GND*%
X152399000Y-108105000D03*
%TO.P,U3,11,I/O*%
%TO.N,/CE_SST*%
X152400000Y-109177000D03*
%TO.P,U3,12,I/O*%
%TO.N,/CE_V62*%
X152401000Y-110166000D03*
%TO.P,U3,13,I/O*%
%TO.N,/Rd_Game*%
X152400000Y-111162000D03*
%TO.P,U3,14,I/O*%
%TO.N,/Wr_Game*%
X152400000Y-112151000D03*
%TO.P,U3,15,I/O*%
%TO.N,unconnected-(U3-Pad15)*%
X152399000Y-113186000D03*
%TO.P,U3,16,I/O*%
%TO.N,/Rd_Sys*%
X152403000Y-114178000D03*
%TO.P,U3,17,I/O*%
%TO.N,/Reset*%
X152401000Y-115209000D03*
%TO.P,U3,18,I/O*%
%TO.N,/Switch*%
X152400000Y-116199000D03*
%TO.P,U3,19,I/O*%
%TO.N,/Wr_Sys*%
X152399000Y-117193000D03*
D13*
%TO.P,U3,20,I/O*%
%TO.N,/Button*%
X155256000Y-120132000D03*
%TO.P,U3,21,I/O*%
%TO.N,unconnected-(U3-Pad21)*%
X156249000Y-120129000D03*
%TO.P,U3,22,I/O*%
%TO.N,unconnected-(U3-Pad22)*%
X157241000Y-120129000D03*
%TO.P,U3,23,I/O*%
%TO.N,/A15_Game*%
X158271000Y-120131000D03*
%TO.P,U3,24,I/O*%
%TO.N,unconnected-(U3-Pad24)*%
X159264000Y-120129000D03*
%TO.P,U3,25,VCC*%
%TO.N,/VCC*%
X160296000Y-120130000D03*
%TO.P,U3,26,GND*%
%TO.N,/GND*%
X161289000Y-120130000D03*
%TO.P,U3,27,I/O*%
%TO.N,/A0*%
X162321000Y-120130000D03*
%TO.P,U3,28,I/O*%
%TO.N,/A1*%
X163313000Y-120128000D03*
%TO.P,U3,29,I/O*%
%TO.N,/A2*%
X164345000Y-120169000D03*
%TO.P,U3,30,I/O*%
%TO.N,/A3*%
X165297000Y-120169000D03*
%TO.P,U3,31,I/O*%
%TO.N,/A4*%
X166330000Y-120170000D03*
%TO.P,U3,32,I/O*%
%TO.N,/A5*%
X167322000Y-120168000D03*
D12*
%TO.P,U3,33,I/O*%
%TO.N,/A6*%
X170253000Y-117230000D03*
%TO.P,U3,34,I/O*%
%TO.N,/A7*%
X170258000Y-116242000D03*
%TO.P,U3,35,I/O*%
%TO.N,/A8*%
X170257000Y-115249000D03*
%TO.P,U3,36,I/O*%
%TO.N,/A9*%
X170258000Y-114216000D03*
%TO.P,U3,37,GND*%
%TO.N,/GND*%
X170257000Y-113223000D03*
%TO.P,U3,38,I/O*%
%TO.N,/A10*%
X170259000Y-112191000D03*
%TO.P,U3,39,I/O*%
%TO.N,/A11*%
X170256000Y-111199000D03*
%TO.P,U3,40,I/O*%
%TO.N,/A12*%
X170259000Y-110207000D03*
%TO.P,U3,41,I/O*%
%TO.N,/A13*%
X170262000Y-109216000D03*
%TO.P,U3,42,I/O*%
%TO.N,/A14*%
X170255000Y-108144000D03*
%TO.P,U3,43,I/O*%
%TO.N,/A15_Sys*%
X170257000Y-107152000D03*
%TO.P,U3,44,I/O*%
%TO.N,unconnected-(U3-Pad44)*%
X170258000Y-106162000D03*
%TO.P,U3,45,I/O*%
%TO.N,/A13_SST*%
X170260000Y-105165000D03*
%TO.P,U3,46,I/O*%
%TO.N,/A14_SST*%
X170259000Y-104095000D03*
%TO.P,U3,47,I/O*%
%TO.N,/A15_SST*%
X170258000Y-103105000D03*
%TO.P,U3,48,I/O*%
%TO.N,/A16_SST*%
X170259000Y-102109000D03*
%TO.P,U3,49,I/O*%
%TO.N,/BC847C*%
X170258000Y-101079000D03*
%TO.P,U3,50,VCC*%
%TO.N,/VCC*%
X170258000Y-100082000D03*
%TO.P,U3,51,I/O*%
%TO.N,/A12_V62*%
X170258000Y-99093000D03*
D13*
%TO.P,U3,52,I/O*%
%TO.N,/A13_V62*%
X167324000Y-96197000D03*
%TO.P,U3,53,I/O*%
%TO.N,/A14_V62*%
X166328000Y-96197000D03*
%TO.P,U3,54,I/O*%
%TO.N,/A15_V62*%
X165297000Y-96197000D03*
%TO.P,U3,55,I/O*%
%TO.N,/A16_V62*%
X164341000Y-96197000D03*
%TO.P,U3,56,I/O*%
%TO.N,/WE*%
X163313000Y-96157000D03*
%TO.P,U3,57,I/O*%
%TO.N,/OE_V62*%
X162321000Y-96158000D03*
%TO.P,U3,58,I/O*%
%TO.N,/Ind1*%
X161288000Y-96158000D03*
%TO.P,U3,59,GND*%
%TO.N,/GND*%
X160296000Y-96158000D03*
%TO.P,U3,60,I/O*%
%TO.N,/Ind2*%
X159265000Y-96158000D03*
%TO.P,U3,61,I/O*%
%TO.N,unconnected-(U3-Pad61)*%
X158273000Y-96157000D03*
%TO.P,U3,62,I/O*%
%TO.N,unconnected-(U3-Pad62)*%
X157241000Y-96157000D03*
%TO.P,U3,63,I/O*%
%TO.N,unconnected-(U3-Pad63)*%
X156250000Y-96159000D03*
%TO.P,U3,64,I/O*%
%TO.N,unconnected-(U3-Pad64)*%
X155256000Y-96159000D03*
%TD*%
D14*
%TO.P,Q1,1,B*%
%TO.N,/BC847C*%
X167791000Y-93336500D03*
%TO.P,Q1,2,E*%
%TO.N,/D0*%
X169691000Y-93336500D03*
%TO.P,Q1,3,C*%
%TO.N,/VCC*%
X168741000Y-91461500D03*
%TD*%
D15*
%TO.P,REF\u002A\u002A,1*%
%TO.N,N/C*%
X146580000Y-126866000D03*
%TD*%
D16*
%TO.P,J2,1,+5V*%
%TO.N,/VCC*%
X170263800Y-69521000D03*
%TO.P,J2,2,Clock*%
%TO.N,/Clk*%
X168717300Y-71029000D03*
%TO.P,J2,3,Write*%
%TO.N,/Wr_Game*%
X167248900Y-69520900D03*
%TO.P,J2,4,Read*%
%TO.N,/Rd_Game*%
X165700800Y-71027000D03*
%TO.P,J2,5,CS*%
%TO.N,/CS*%
X164230800Y-69521000D03*
%TO.P,J2,6,A0*%
%TO.N,/A0*%
X162684800Y-71029000D03*
%TO.P,J2,7,A1*%
%TO.N,/A1*%
X161216400Y-69520900D03*
%TO.P,J2,8,A2*%
%TO.N,/A2*%
X159666800Y-71028000D03*
%TO.P,J2,9,A3*%
%TO.N,/A3*%
X158240800Y-69522000D03*
%TO.P,J2,10,A4*%
%TO.N,/A4*%
X156692000Y-71029000D03*
%TO.P,J2,11,A5*%
%TO.N,/A5*%
X155183900Y-69520900D03*
%TO.P,J2,12,A6*%
%TO.N,/A6*%
X153631800Y-71029000D03*
%TO.P,J2,13,A7*%
%TO.N,/A7*%
X152167600Y-69520900D03*
%TO.P,J2,14,A8*%
%TO.N,/A8*%
X150617800Y-71029000D03*
%TO.P,J2,15,A9*%
%TO.N,/A9*%
X149231800Y-69520000D03*
%TO.P,J2,16,A10*%
%TO.N,/A10*%
X147680800Y-71030000D03*
%TO.P,J2,17,A11*%
%TO.N,/A11*%
X146210800Y-69521000D03*
%TO.P,J2,18,A12*%
%TO.N,/A12*%
X144665800Y-71028000D03*
%TO.P,J2,19,A13*%
%TO.N,/A13*%
X143196800Y-69522000D03*
%TO.P,J2,20,A14*%
%TO.N,/A14*%
X141648800Y-71030000D03*
%TO.P,J2,21,A15*%
%TO.N,/A15_Game*%
X140180800Y-69520000D03*
%TO.P,J2,22,Data_0*%
%TO.N,/D0*%
X138635800Y-71028000D03*
%TO.P,J2,23,Data_1*%
%TO.N,/D1*%
X137202800Y-69519000D03*
%TO.P,J2,24,Data_2*%
%TO.N,/D2*%
X135658800Y-71029000D03*
%TO.P,J2,25,Data_3*%
%TO.N,/D3*%
X134267800Y-69524000D03*
%TO.P,J2,26,Data_4*%
%TO.N,/D4*%
X132716800Y-71027000D03*
%TO.P,J2,27,Data_5*%
%TO.N,/D5*%
X131171800Y-69522000D03*
%TO.P,J2,28,Data_6*%
%TO.N,/D6*%
X129664800Y-71029000D03*
%TO.P,J2,29,Data_7*%
%TO.N,/D7*%
X128157800Y-69522000D03*
%TO.P,J2,30,Reset*%
%TO.N,/Reset*%
X126650800Y-71037000D03*
%TO.P,J2,31,Audio*%
%TO.N,/Audio*%
X125135800Y-69522000D03*
%TO.P,J2,32,GND*%
%TO.N,/GND*%
X123632300Y-71029000D03*
%TD*%
D17*
%TO.P,U2,1,N/C*%
%TO.N,/VCC*%
X124317500Y-104723000D03*
%TO.P,U2,2,A16*%
%TO.N,/A16_V62*%
X125588500Y-104723000D03*
%TO.P,U2,3,A14*%
%TO.N,/A14_V62*%
X126858500Y-104723000D03*
%TO.P,U2,4,A12*%
%TO.N,/A12_V62*%
X128163500Y-104720000D03*
%TO.P,U2,5,A7*%
%TO.N,/A7*%
X129438500Y-104720000D03*
%TO.P,U2,6,A6*%
%TO.N,/A6*%
X130703500Y-104720000D03*
%TO.P,U2,7,A5*%
%TO.N,/A5*%
X131978500Y-104720000D03*
%TO.P,U2,8,A4*%
%TO.N,/A4*%
X133249500Y-104720000D03*
%TO.P,U2,9,A3*%
%TO.N,/A3*%
X134554500Y-104720000D03*
%TO.P,U2,10,A2*%
%TO.N,/A2*%
X135825500Y-104720000D03*
%TO.P,U2,11,A1*%
%TO.N,/A1*%
X137053500Y-104720000D03*
%TO.P,U2,12,A0*%
%TO.N,/A0*%
X138360500Y-104720000D03*
%TO.P,U2,13,I/O_0*%
%TO.N,/D0*%
X139641500Y-104720000D03*
%TO.P,U2,14,I/O_1*%
%TO.N,/D1*%
X140907500Y-104719000D03*
%TO.P,U2,15,I/O_2*%
%TO.N,/D2*%
X142172500Y-104719000D03*
%TO.P,U2,16,GND*%
%TO.N,/GND*%
X143480500Y-104719000D03*
%TO.P,U2,17,I/O_3*%
%TO.N,/D3*%
X143522500Y-93089000D03*
%TO.P,U2,18,I/O_4*%
%TO.N,/D4*%
X142216500Y-93087000D03*
%TO.P,U2,19,I/O_5*%
%TO.N,/D5*%
X140941500Y-93100000D03*
%TO.P,U2,20,I/O_6*%
%TO.N,/D6*%
X139676500Y-93090000D03*
%TO.P,U2,21,I/O_7*%
%TO.N,/D7*%
X138401500Y-93094000D03*
%TO.P,U2,22,CE_1*%
%TO.N,/CE_V62*%
X137099500Y-93094000D03*
%TO.P,U2,23,A10*%
%TO.N,/A10*%
X135866500Y-93094000D03*
%TO.P,U2,24,OE*%
%TO.N,/OE_V62*%
X134590500Y-93094000D03*
%TO.P,U2,25,A11*%
%TO.N,/A11*%
X133288500Y-93091000D03*
%TO.P,U2,26,A9*%
%TO.N,/A9*%
X132017500Y-93091000D03*
%TO.P,U2,27,A8*%
%TO.N,/A8*%
X130744500Y-93093000D03*
%TO.P,U2,28,A13*%
%TO.N,/A13_V62*%
X129474500Y-93093000D03*
%TO.P,U2,29,WE*%
%TO.N,/WE*%
X128210500Y-93093000D03*
%TO.P,U2,30,CE_2*%
%TO.N,/VCC*%
X126899500Y-93093000D03*
%TO.P,U2,31,A15*%
%TO.N,/A15_V62*%
X125621500Y-93094000D03*
%TO.P,U2,32,VCC*%
%TO.N,/VCC*%
X124356500Y-93094000D03*
%TD*%
D18*
%TO.P,C1,1*%
%TO.N,/GND*%
X122415000Y-110053000D03*
%TO.P,C1,2*%
%TO.N,/VCC*%
X122424000Y-113184000D03*
%TD*%
%TO.P,R2,1*%
%TO.N,/Button*%
X154384000Y-57833000D03*
%TO.P,R2,2*%
%TO.N,/VCC*%
X157515000Y-57824000D03*
%TD*%
D19*
%TO.P,SW1,1,1*%
%TO.N,unconnected-(SW1-Pad1)*%
X143279000Y-57730000D03*
%TO.P,SW1,2,2*%
%TO.N,/GND*%
X144552000Y-55587000D03*
%TO.P,SW1,3,3*%
%TO.N,/Button*%
X149003000Y-55547000D03*
%TO.P,SW1,4,4*%
%TO.N,unconnected-(SW1-Pad4)*%
X150309000Y-57730000D03*
%TD*%
D20*
%TO.P,J1,1,+5V*%
%TO.N,/VCC*%
X123268000Y-138682000D03*
%TO.P,J1,2,Clock*%
%TO.N,/Clk*%
X124787000Y-138682000D03*
%TO.P,J1,3,Write*%
%TO.N,/Wr_Sys*%
X126294000Y-138682000D03*
%TO.P,J1,4,Read*%
%TO.N,/Rd_Sys*%
X127800000Y-138684000D03*
%TO.P,J1,5,CS*%
%TO.N,/CS*%
X129307000Y-138684000D03*
%TO.P,J1,6,A0*%
%TO.N,/A0*%
X130810000Y-138684000D03*
%TO.P,J1,7,A1*%
%TO.N,/A1*%
X132317000Y-138684000D03*
%TO.P,J1,8,A2*%
%TO.N,/A2*%
X133836000Y-138684000D03*
%TO.P,J1,9,A3*%
%TO.N,/A3*%
X135343000Y-138684000D03*
%TO.P,J1,10,A4*%
%TO.N,/A4*%
X136850000Y-138681000D03*
%TO.P,J1,11,A5*%
%TO.N,/A5*%
X138357000Y-138689000D03*
%TO.P,J1,12,A6*%
%TO.N,/A6*%
X139824000Y-138681000D03*
%TO.P,J1,13,A7*%
%TO.N,/A7*%
X141327000Y-138683000D03*
%TO.P,J1,14,A8*%
%TO.N,/A8*%
X142834000Y-138683000D03*
%TO.P,J1,15,A9*%
%TO.N,/A9*%
X144353000Y-138683000D03*
%TO.P,J1,16,A10*%
%TO.N,/A10*%
X145860000Y-138683000D03*
%TO.P,J1,17,A11*%
%TO.N,/A11*%
X147366000Y-138676000D03*
%TO.P,J1,18,A12*%
%TO.N,/A12*%
X148873000Y-138676000D03*
%TO.P,J1,19,A13*%
%TO.N,/A13*%
X150380000Y-138684000D03*
%TO.P,J1,20,A14*%
%TO.N,/A14*%
X151887000Y-138684000D03*
%TO.P,J1,21,A15*%
%TO.N,/A15_Sys*%
X153394000Y-138684000D03*
%TO.P,J1,22,Data_0*%
%TO.N,/D0*%
X154901000Y-138684000D03*
%TO.P,J1,23,Data_1*%
%TO.N,/D1*%
X156409000Y-138681000D03*
%TO.P,J1,24,Data_2*%
%TO.N,/D2*%
X157880000Y-138681000D03*
%TO.P,J1,25,Data_3*%
%TO.N,/D3*%
X159351000Y-138681000D03*
%TO.P,J1,26,Data_4*%
%TO.N,/D4*%
X160858000Y-138681000D03*
%TO.P,J1,27,Data_5*%
%TO.N,/D5*%
X162365000Y-138681000D03*
%TO.P,J1,28,Data_6*%
%TO.N,/D6*%
X163908000Y-138676000D03*
%TO.P,J1,29,Data_7*%
%TO.N,/D7*%
X165427000Y-138676000D03*
%TO.P,J1,30,Reset*%
%TO.N,/Reset*%
X166886000Y-138676000D03*
%TO.P,J1,31,Audio*%
%TO.N,/Audio*%
X168441000Y-138676000D03*
%TO.P,J1,32,GND*%
%TO.N,/GND*%
X169900000Y-138682000D03*
%TD*%
D18*
%TO.P,C3,1*%
%TO.N,/GND*%
X128968000Y-65551000D03*
%TO.P,C3,2*%
%TO.N,/Button*%
X132099000Y-65542000D03*
%TD*%
%TO.P,I1,1*%
%TO.N,/Ind1*%
X163189000Y-93228000D03*
%TO.P,I1,2*%
%TO.N,/Ind2*%
X160058000Y-93237000D03*
%TD*%
D21*
%TO.P,J3,1,A*%
%TO.N,unconnected-(J3-Pad1)*%
X125709000Y-61703000D03*
%TO.P,J3,2,B*%
%TO.N,/Switch*%
X128682000Y-61706000D03*
%TO.P,J3,3,C*%
%TO.N,/GND*%
X131585000Y-61705000D03*
%TO.P,J3,4*%
%TO.N,N/C*%
X122252000Y-61705000D03*
%TO.P,J3,5*%
X135034000Y-61707000D03*
%TD*%
D18*
%TO.P,R1,1*%
%TO.N,/Switch*%
X126313500Y-65553500D03*
%TO.P,R1,2*%
%TO.N,/VCC*%
X123182500Y-65562500D03*
%TD*%
D22*
%TO.P,U1,1,N/C*%
%TO.N,/VCC*%
X131994000Y-126465000D03*
%TO.P,U1,2,A16*%
%TO.N,/A16_SST*%
X133266000Y-126467000D03*
%TO.P,U1,3,A15*%
%TO.N,/A15_SST*%
X134535000Y-126466000D03*
%TO.P,U1,4,A12*%
%TO.N,/A12*%
X135805000Y-126466000D03*
D23*
%TO.P,U1,5,A7*%
%TO.N,/A7*%
X137695000Y-124645000D03*
%TO.P,U1,6,A6*%
%TO.N,/A6*%
X137695000Y-123376000D03*
%TO.P,U1,7,A5*%
%TO.N,/A5*%
X137693000Y-122105000D03*
%TO.P,U1,8,A4*%
%TO.N,/A4*%
X137694000Y-120835000D03*
%TO.P,U1,9,A3*%
%TO.N,/A3*%
X137695000Y-119569000D03*
%TO.P,U1,10,A2*%
%TO.N,/A2*%
X137696000Y-118296000D03*
%TO.P,U1,11,A1*%
%TO.N,/A1*%
X137694000Y-117025000D03*
%TO.P,U1,12,A0*%
%TO.N,/A0*%
X137696000Y-115758000D03*
%TO.P,U1,13,DQ0*%
%TO.N,/D0*%
X137693000Y-114488000D03*
D22*
%TO.P,U1,14,DQ1*%
%TO.N,/D1*%
X135802000Y-112664000D03*
%TO.P,U1,15,DQ2*%
%TO.N,/D2*%
X134533000Y-112667000D03*
%TO.P,U1,16,GND*%
%TO.N,/GND*%
X133264000Y-112663000D03*
%TO.P,U1,17,DQ3*%
%TO.N,/D3*%
X131995000Y-112664000D03*
%TO.P,U1,18,DQ4*%
%TO.N,/D4*%
X130727000Y-112664000D03*
%TO.P,U1,19,DQ5*%
%TO.N,/D5*%
X129454000Y-112663000D03*
%TO.P,U1,20,DQ6*%
%TO.N,/D6*%
X128183000Y-112664000D03*
D23*
%TO.P,U1,21,DQ7*%
%TO.N,/D7*%
X126293000Y-114482000D03*
%TO.P,U1,22,CE#*%
%TO.N,/CE_SST*%
X126293000Y-115758000D03*
%TO.P,U1,23,A10*%
%TO.N,/A10*%
X126293000Y-117023000D03*
%TO.P,U1,24,OE#*%
%TO.N,/Rd_Sys*%
X126297000Y-118299000D03*
%TO.P,U1,25,A11*%
%TO.N,/A11*%
X126292000Y-119563000D03*
%TO.P,U1,26,A9*%
%TO.N,/A9*%
X126299000Y-120836000D03*
%TO.P,U1,27,A8*%
%TO.N,/A8*%
X126298000Y-122104000D03*
%TO.P,U1,28,A13*%
%TO.N,/A13_SST*%
X126298000Y-123376000D03*
%TO.P,U1,29,A14*%
%TO.N,/A14_SST*%
X126297000Y-124647000D03*
D22*
%TO.P,U1,30,N/C*%
%TO.N,/VCC*%
X128185000Y-126463000D03*
%TO.P,U1,31,WE#*%
%TO.N,/WE*%
X129453000Y-126463000D03*
%TO.P,U1,32,VCC*%
%TO.N,/VCC*%
X130725000Y-126468000D03*
%TD*%
D18*
%TO.P,C2,1*%
%TO.N,/GND*%
X163207000Y-123412000D03*
%TO.P,C2,2*%
%TO.N,/VCC*%
X160076000Y-123421000D03*
%TD*%
D24*
%TO.N,/D0*%
X137081800Y-98461800D03*
X149559800Y-96440700D03*
X156936600Y-93901800D03*
%TO.N,/D1*%
X136760100Y-112960000D03*
X154147300Y-109626500D03*
X144763800Y-110502000D03*
%TO.N,/D2*%
X149923400Y-100906400D03*
X134515000Y-109822400D03*
X142196500Y-102379100D03*
%TO.N,/D3*%
X154112000Y-108438300D03*
X147010800Y-109776600D03*
X133094200Y-114450600D03*
%TO.N,/D4*%
X150543000Y-103001800D03*
X147112500Y-106370100D03*
%TO.N,/D5*%
X126835400Y-112194200D03*
X161481200Y-133393600D03*
%TO.N,/D6*%
X163082500Y-133748500D03*
X125750100Y-113528200D03*
%TO.N,/GND*%
X128462900Y-108007500D03*
X144411400Y-107279400D03*
X133264000Y-110909400D03*
X156835600Y-107520400D03*
X150602600Y-107279400D03*
%TO.N,/CE_SST*%
X150649500Y-109009500D03*
X131911200Y-114581500D03*
%TO.N,/Rd_Sys*%
X150019100Y-115246400D03*
X133797100Y-122168800D03*
X135319800Y-129465800D03*
%TO.N,/Reset*%
X164735700Y-133131000D03*
%TO.N,/Switch*%
X160683300Y-128508000D03*
%TO.N,/Wr_Sys*%
X135421000Y-128241900D03*
X153915300Y-118137700D03*
%TO.N,/Button*%
X157321800Y-122608900D03*
%TO.N,/A15_Game*%
X162610400Y-128105300D03*
%TO.N,/VCC*%
X160076000Y-121905800D03*
X172204700Y-109036800D03*
%TO.N,/A0*%
X139459200Y-116268100D03*
X140183900Y-119350900D03*
X142510400Y-119260900D03*
X158159200Y-113912900D03*
%TO.N,/A1*%
X158475900Y-112912500D03*
X141203900Y-118497900D03*
X140470700Y-116046800D03*
%TO.N,/A2*%
X142033000Y-117810200D03*
X158722500Y-111843000D03*
%TO.N,/A3*%
X143136000Y-116137100D03*
X158894700Y-110801300D03*
X140990400Y-117497500D03*
%TO.N,/A4*%
X159276400Y-109782700D03*
X135985100Y-118916900D03*
X144262600Y-115183500D03*
X139627900Y-115183500D03*
%TO.N,/A5*%
X135211900Y-115798300D03*
X137013900Y-111936700D03*
X157936100Y-107730900D03*
X142856700Y-111171000D03*
%TO.N,/A6*%
X141167700Y-130924400D03*
X138070700Y-127177000D03*
X132207000Y-95950600D03*
X170062400Y-118138000D03*
%TO.N,/A7*%
X137322100Y-127925700D03*
X142074000Y-131559300D03*
X128425500Y-109908400D03*
X169045700Y-118730700D03*
%TO.N,/A8*%
X170267700Y-119162100D03*
X143232500Y-131701000D03*
X129400700Y-121926500D03*
X128842500Y-95338100D03*
%TO.N,/A9*%
X144683800Y-132459000D03*
X128703800Y-120795200D03*
X131977100Y-90775300D03*
X171978600Y-114323500D03*
%TO.N,/A10*%
X165588400Y-112023800D03*
X131399700Y-117116400D03*
X144499200Y-129435700D03*
X135866500Y-83802000D03*
X153651800Y-122796000D03*
%TO.N,/A11*%
X171812100Y-119129500D03*
X147366000Y-132909800D03*
X132748300Y-89338600D03*
X128043500Y-119841900D03*
%TO.N,/A12*%
X166667400Y-110491300D03*
X136779000Y-126024600D03*
X149525400Y-124785400D03*
%TO.N,/A13*%
X150701100Y-127567000D03*
X167698600Y-109618600D03*
%TO.N,/A14*%
X151887000Y-127426500D03*
X168531600Y-108265400D03*
%TO.N,/A15_Sys*%
X153394000Y-129648800D03*
X165737300Y-116412800D03*
%TO.N,/A13_SST*%
X133314100Y-121060100D03*
X163440300Y-105194300D03*
%TO.N,/A14_SST*%
X164477500Y-104044900D03*
X132574900Y-121794700D03*
%TO.N,/A15_SST*%
X168501600Y-103365700D03*
X134916600Y-123831600D03*
%TO.N,/A16_SST*%
X164489300Y-102406500D03*
X133824300Y-118326500D03*
%TO.N,/A12_V62*%
X129622100Y-101466300D03*
X164482000Y-100734500D03*
%TO.N,/A13_V62*%
X158615600Y-92489300D03*
X130373900Y-96897600D03*
%TO.N,/A14_V62*%
X162883400Y-99252200D03*
X130255200Y-100674900D03*
%TO.N,/A15_V62*%
X164438300Y-98368200D03*
X129843400Y-98923700D03*
%TO.N,/A16_V62*%
X163379000Y-98328600D03*
X130507500Y-99674500D03*
%TO.N,/WE*%
X131927300Y-124035200D03*
X160497400Y-100139600D03*
X129212800Y-98079800D03*
%TO.N,/OE_V62*%
X139963500Y-98248300D03*
X161455000Y-98065200D03*
%TO.N,/Clk*%
X134420600Y-128241500D03*
%TO.N,/CS*%
X139738800Y-120956500D03*
%TO.N,/Audio*%
X165216200Y-131872200D03*
%TD*%
D25*
%TO.N,/D0*%
X133119300Y-106764000D02*
X132786600Y-106764000D01*
X169203500Y-93336500D02*
X167452600Y-91585600D01*
X137081800Y-100312600D02*
X137081800Y-98461800D01*
X154901000Y-134558700D02*
X154901000Y-128312300D01*
X154901000Y-138684000D02*
X154901000Y-134558700D01*
X154901000Y-128312300D02*
X145805300Y-119216600D01*
X137693000Y-114488000D02*
X137749000Y-114432000D01*
X132786600Y-106764000D02*
X132624100Y-106601500D01*
X150962700Y-97843600D02*
X149559800Y-96440700D01*
X167452600Y-91585600D02*
X158449000Y-91585600D01*
X158449000Y-91585600D02*
X156936600Y-93098000D01*
X137749000Y-111393700D02*
X133119300Y-106764000D01*
X137749000Y-114432000D02*
X137749000Y-111393700D01*
X139641500Y-104720000D02*
X139641500Y-102684700D01*
X150962700Y-99056000D02*
X150962700Y-97843600D01*
X137269400Y-100312600D02*
X137081800Y-100312600D01*
X135117000Y-100312600D02*
X137081800Y-100312600D01*
X156936600Y-93098000D02*
X156936600Y-93901800D01*
X132624100Y-102805500D02*
X135117000Y-100312600D01*
X152398000Y-99056000D02*
X150962700Y-99056000D01*
X139641500Y-104720000D02*
X139641500Y-106755300D01*
X139641500Y-102684700D02*
X137269400Y-100312600D01*
X149559800Y-81952000D02*
X149559800Y-96440700D01*
X138635800Y-71028000D02*
X149559800Y-81952000D01*
X132624100Y-106601500D02*
X132624100Y-102805500D01*
X145805300Y-119216600D02*
X145805300Y-112919100D01*
X145805300Y-112919100D02*
X139641500Y-106755300D01*
X169691000Y-93336500D02*
X169203500Y-93336500D01*
%TO.N,/D1*%
X135802000Y-112664000D02*
X136464100Y-112664000D01*
X156409000Y-134555700D02*
X156409000Y-129183400D01*
X144655200Y-110502000D02*
X144763800Y-110502000D01*
X140907500Y-106754300D02*
X144655200Y-110502000D01*
X156409000Y-129183400D02*
X146255600Y-119030000D01*
X154838100Y-101049800D02*
X153835300Y-100047000D01*
X140907500Y-104719000D02*
X140907500Y-106754300D01*
X156409000Y-138681000D02*
X156409000Y-134555700D01*
X152400000Y-100047000D02*
X150964700Y-100047000D01*
X146255600Y-119030000D02*
X146255600Y-111993800D01*
X154147300Y-109626500D02*
X154838100Y-108935700D01*
X154838100Y-108935700D02*
X154838100Y-101049800D01*
X148570700Y-97653000D02*
X148570700Y-83246400D01*
X146255600Y-111993800D02*
X144763800Y-110502000D01*
X136464100Y-112664000D02*
X136760100Y-112960000D01*
X137202800Y-71878500D02*
X137202800Y-69519000D01*
X152400000Y-100047000D02*
X153835300Y-100047000D01*
X148570700Y-83246400D02*
X137202800Y-71878500D01*
X150964700Y-100047000D02*
X148570700Y-97653000D01*
%TO.N,/D2*%
X157880000Y-134555700D02*
X157880000Y-130017500D01*
X146705900Y-111287700D02*
X142172500Y-106754300D01*
X135658800Y-71029000D02*
X144147900Y-79518100D01*
X134515000Y-109822400D02*
X134515000Y-111173700D01*
X152399000Y-101037000D02*
X150963700Y-101037000D01*
X134515000Y-111173700D02*
X134533000Y-111191700D01*
X142196500Y-104192000D02*
X142196500Y-102379100D01*
X150833100Y-100906400D02*
X150963700Y-101037000D01*
X144147900Y-95130900D02*
X149923400Y-100906400D01*
X157880000Y-130017500D02*
X146705900Y-118843400D01*
X144147900Y-79518100D02*
X144147900Y-95130900D01*
X134533000Y-112667000D02*
X134533000Y-111191700D01*
X142172500Y-104719000D02*
X142172500Y-106754300D01*
X157880000Y-138681000D02*
X157880000Y-134555700D01*
X146705900Y-118843400D02*
X146705900Y-111287700D01*
X149923400Y-100906400D02*
X150833100Y-100906400D01*
%TO.N,/D3*%
X143526000Y-80682700D02*
X143526000Y-92226300D01*
X134267800Y-69524000D02*
X134267800Y-71424500D01*
X153835300Y-108161600D02*
X154112000Y-108438300D01*
X143487000Y-93053500D02*
X143487000Y-92266000D01*
X143522500Y-93089000D02*
X143522500Y-95124300D01*
X147288500Y-118789100D02*
X147288500Y-110054300D01*
X133094200Y-114450600D02*
X131995000Y-113351400D01*
X131995000Y-113351400D02*
X131995000Y-112664000D01*
X143522500Y-95124300D02*
X143522500Y-95531200D01*
X159351000Y-134555700D02*
X159351000Y-130851600D01*
X159351000Y-138681000D02*
X159351000Y-134555700D01*
X159351000Y-130851600D02*
X147288500Y-118789100D01*
X143522500Y-95531200D02*
X150065300Y-102074000D01*
X147288500Y-110054300D02*
X147010800Y-109776600D01*
X150065300Y-102074000D02*
X152400000Y-102074000D01*
X143522000Y-93089000D02*
X143522500Y-93089000D01*
X152400000Y-102074000D02*
X153835300Y-102074000D01*
X153835300Y-102074000D02*
X153835300Y-108161600D01*
X134267800Y-71424500D02*
X143526000Y-80682700D01*
D26*
X143526000Y-92226300D02*
X143487000Y-92266000D01*
D25*
X143522000Y-93089000D02*
X143487000Y-93053500D01*
%TO.N,/D4*%
X147112500Y-105874100D02*
X147112500Y-106370100D01*
X131340500Y-102867600D02*
X136472900Y-97735200D01*
X142216500Y-93087000D02*
X142216500Y-95122300D01*
X132716800Y-71027000D02*
X142216500Y-80526700D01*
X150543000Y-103001800D02*
X150898500Y-103001800D01*
X142216500Y-80526700D02*
X142216500Y-93087000D01*
X141421300Y-101603900D02*
X142842300Y-101603900D01*
X160858000Y-138681000D02*
X160858000Y-134555700D01*
X130727000Y-111188700D02*
X131340500Y-110575200D01*
X147738800Y-118602500D02*
X160755900Y-131619600D01*
X147112500Y-106370100D02*
X147738800Y-106996400D01*
X142842300Y-101603900D02*
X147112500Y-105874100D01*
X152398000Y-103066000D02*
X150962700Y-103066000D01*
X150096000Y-103001800D02*
X150543000Y-103001800D01*
X160755900Y-131619600D02*
X160755900Y-134453600D01*
X131340500Y-110575200D02*
X131340500Y-102867600D01*
X130727000Y-112664000D02*
X130727000Y-111188700D01*
X147738800Y-106996400D02*
X147738800Y-118602500D01*
X137552600Y-97735200D02*
X141421300Y-101603900D01*
X142216500Y-95122300D02*
X150096000Y-103001800D01*
X150898500Y-103001800D02*
X150962700Y-103066000D01*
X136472900Y-97735200D02*
X137552600Y-97735200D01*
X160755900Y-134453600D02*
X160858000Y-134555700D01*
%TO.N,/D5*%
X126835400Y-112019600D02*
X126835400Y-112194200D01*
X131171800Y-69522000D02*
X131171800Y-71311700D01*
X161481200Y-133393600D02*
X161481200Y-133671900D01*
X127667300Y-111187700D02*
X126835400Y-112019600D01*
X152395000Y-104054000D02*
X150959700Y-104054000D01*
X140941500Y-93100000D02*
X140941500Y-95135300D01*
X162365000Y-138681000D02*
X162365000Y-134555700D01*
X140941500Y-81081400D02*
X140941500Y-93100000D01*
X129454000Y-112663000D02*
X129454000Y-111187700D01*
X131171800Y-71311700D02*
X140941500Y-81081400D01*
X161481200Y-133671900D02*
X162365000Y-134555700D01*
X150959700Y-104054000D02*
X149860200Y-104054000D01*
X149860200Y-104054000D02*
X140941500Y-95135300D01*
X129454000Y-111187700D02*
X127667300Y-111187700D01*
%TO.N,/D6*%
X139676000Y-81040200D02*
X139676000Y-93090000D01*
X129664800Y-71029000D02*
X139676000Y-81040200D01*
X150960700Y-105125000D02*
X150348900Y-104513200D01*
X163908000Y-138676000D02*
X163908000Y-134550700D01*
X163884700Y-134550700D02*
X163908000Y-134550700D01*
X127318800Y-113528200D02*
X128183000Y-112664000D01*
X149497300Y-104513100D02*
X139676000Y-94691800D01*
X152396000Y-105125000D02*
X150960700Y-105125000D01*
X139676000Y-93090000D02*
X139676000Y-94691800D01*
X150348900Y-104513200D02*
X150348900Y-104513100D01*
X139676000Y-93090000D02*
X139676500Y-93090000D01*
X163082500Y-133748500D02*
X163884700Y-134550700D01*
X150348900Y-104513100D02*
X149497300Y-104513100D01*
X125750100Y-113528200D02*
X127318800Y-113528200D01*
%TO.N,/D7*%
X130581500Y-108793100D02*
X128740800Y-110633800D01*
X124817700Y-113186200D02*
X124817700Y-114482000D01*
X165427000Y-138676000D02*
X165427000Y-134550700D01*
X128157800Y-77225000D02*
X128157800Y-69522000D01*
X126293000Y-114482000D02*
X124817700Y-114482000D01*
X133939500Y-95217800D02*
X131850100Y-95217800D01*
X133939500Y-83006700D02*
X136125300Y-83006700D01*
X143053800Y-101126300D02*
X141761200Y-101126300D01*
X128740800Y-110633800D02*
X127370100Y-110633800D01*
X133939500Y-83006700D02*
X128157800Y-77225000D01*
X130078100Y-106758000D02*
X130581500Y-107261400D01*
X130078100Y-102036300D02*
X130078100Y-106758000D01*
X131369900Y-100744500D02*
X130078100Y-102036300D01*
X153471400Y-123649800D02*
X148245500Y-118423900D01*
X131850100Y-95217800D02*
X131369900Y-95698000D01*
X164910500Y-134550700D02*
X154009600Y-123649800D01*
X165427000Y-134550700D02*
X164910500Y-134550700D01*
X150222000Y-106119000D02*
X138401500Y-94298500D01*
X135281900Y-96560200D02*
X133939500Y-95217800D01*
X130581500Y-107261400D02*
X130581500Y-108793100D01*
X138401500Y-85282900D02*
X138401500Y-93094000D01*
X148245500Y-106318000D02*
X143053800Y-101126300D01*
X141761200Y-101126300D02*
X137195100Y-96560200D01*
X136125300Y-83006700D02*
X138401500Y-85282900D01*
X133939500Y-95217800D02*
X133939500Y-83006700D01*
X152398000Y-106119000D02*
X150962700Y-106119000D01*
X131369900Y-95698000D02*
X131369900Y-100744500D01*
X150962700Y-106119000D02*
X150222000Y-106119000D01*
X137195100Y-96560200D02*
X135281900Y-96560200D01*
X138401500Y-94298500D02*
X138401500Y-93094000D01*
X127370100Y-110633800D02*
X124817700Y-113186200D01*
X148245500Y-118423900D02*
X148245500Y-106318000D01*
X154009600Y-123649800D02*
X153471400Y-123649800D01*
D27*
%TO.N,/GND*%
X168128900Y-121534900D02*
X165439800Y-124224000D01*
X160296000Y-96158000D02*
X160296000Y-97768300D01*
X165354300Y-124224000D02*
X164542300Y-123412000D01*
X122415000Y-110053000D02*
X122415000Y-109398000D01*
X131479000Y-61705000D02*
X131184000Y-62000100D01*
X150788700Y-107465500D02*
X150602600Y-107279400D01*
X170257000Y-113223000D02*
X168646700Y-113223000D01*
X165439800Y-124224000D02*
X169900000Y-128684200D01*
X161289000Y-120935000D02*
X161289000Y-120130000D01*
X161289000Y-120130000D02*
X161289000Y-118519700D01*
X156835600Y-101228700D02*
X160296000Y-97768300D01*
X123415800Y-108397200D02*
X122415000Y-109398000D01*
X143480500Y-104719000D02*
X143480500Y-106929300D01*
X168646700Y-113223000D02*
X168128900Y-113740800D01*
X123632300Y-71029000D02*
X123632300Y-68997600D01*
X128968000Y-64215700D02*
X128968400Y-64215700D01*
X156835600Y-114066300D02*
X156835600Y-107520400D01*
X133248600Y-60041400D02*
X138895200Y-60041400D01*
X150788700Y-108105000D02*
X150788700Y-107465500D01*
X156835600Y-107520400D02*
X156835600Y-101228700D01*
X163207000Y-123412000D02*
X163207000Y-122076700D01*
X123415800Y-108007500D02*
X123415800Y-71245500D01*
X123415800Y-71245500D02*
X123632300Y-71029000D01*
X143480500Y-106929300D02*
X144061300Y-106929300D01*
X123415800Y-108007500D02*
X128462900Y-108007500D01*
X126968500Y-67550500D02*
X128968000Y-65551000D01*
X162134800Y-122076700D02*
X163207000Y-122076700D01*
X138895200Y-60041400D02*
X143349600Y-55587000D01*
X131585000Y-61705000D02*
X133248600Y-60041400D01*
X125079400Y-67550500D02*
X126968500Y-67550500D01*
X128968400Y-64215700D02*
X131184000Y-62000100D01*
X133264000Y-112663000D02*
X133264000Y-111012700D01*
X169900000Y-128684200D02*
X169900000Y-138682000D01*
X161289000Y-120935000D02*
X161289000Y-121230900D01*
X165439800Y-124224000D02*
X165354300Y-124224000D01*
X163207000Y-123412000D02*
X164542300Y-123412000D01*
X128968000Y-65551000D02*
X128968000Y-64215700D01*
X123415800Y-108007500D02*
X123415800Y-108397200D01*
X143349600Y-55587000D02*
X144552000Y-55587000D01*
X133264000Y-111012700D02*
X133264000Y-110909400D01*
X168128900Y-113740800D02*
X168128900Y-121534900D01*
X152399000Y-108105000D02*
X150788700Y-108105000D01*
X123632300Y-68997600D02*
X125079400Y-67550500D01*
X131585000Y-61705000D02*
X131479000Y-61705000D01*
X144061300Y-106929300D02*
X144411400Y-107279400D01*
X161289000Y-121230900D02*
X162134800Y-122076700D01*
X161289000Y-118519700D02*
X156835600Y-114066300D01*
D25*
%TO.N,/CE_SST*%
X130734700Y-115758000D02*
X131911200Y-114581500D01*
X150797200Y-109009500D02*
X150964700Y-109177000D01*
X126293000Y-115758000D02*
X130734700Y-115758000D01*
X150649500Y-109009500D02*
X150797200Y-109009500D01*
X152400000Y-109177000D02*
X150964700Y-109177000D01*
%TO.N,/CE_V62*%
X149319000Y-108751300D02*
X149319000Y-105941100D01*
X150733700Y-110166000D02*
X149319000Y-108751300D01*
X152401000Y-110166000D02*
X150965700Y-110166000D01*
X139795900Y-96688900D02*
X138316300Y-95209300D01*
X150965700Y-110166000D02*
X150733700Y-110166000D01*
X149319000Y-105941100D02*
X140066900Y-96689000D01*
X137099500Y-94304200D02*
X137099500Y-93094000D01*
X139795900Y-96689000D02*
X139795900Y-96688900D01*
X140066900Y-96689000D02*
X139795900Y-96689000D01*
X138316300Y-95209300D02*
X138004600Y-95209300D01*
X138004600Y-95209300D02*
X137099500Y-94304200D01*
%TO.N,/Rd_Game*%
X155288400Y-99552000D02*
X154180100Y-98443700D01*
X152400000Y-111162000D02*
X153835300Y-111162000D01*
X153835300Y-111162000D02*
X155288400Y-109708900D01*
X154180100Y-98443700D02*
X154180100Y-82547700D01*
X154180100Y-82547700D02*
X165700800Y-71027000D01*
X155288400Y-109708900D02*
X155288400Y-99552000D01*
%TO.N,/Wr_Game*%
X167248900Y-82071100D02*
X167248900Y-69520900D01*
X154630600Y-98018800D02*
X154630600Y-94689400D01*
X153835300Y-112151000D02*
X155738700Y-110247600D01*
X154630600Y-94689400D02*
X167248900Y-82071100D01*
X155738700Y-99126900D02*
X154630600Y-98018800D01*
X155738700Y-110247600D02*
X155738700Y-99126900D01*
X152400000Y-112151000D02*
X153835300Y-112151000D01*
%TO.N,/Rd_Sys*%
X150967700Y-114297800D02*
X150967700Y-114178000D01*
X134055000Y-121910900D02*
X133797100Y-122168800D01*
X150019100Y-115246400D02*
X150967700Y-114297800D01*
X132892800Y-129465900D02*
X135319800Y-129465900D01*
X135319800Y-129465900D02*
X135319800Y-129465800D01*
X126297000Y-118299000D02*
X131598100Y-118299000D01*
X134055000Y-120755900D02*
X134055000Y-121910900D01*
X152403000Y-114178000D02*
X150967700Y-114178000D01*
X131598100Y-118299000D02*
X134055000Y-120755900D01*
X127800000Y-138684000D02*
X127800000Y-134558700D01*
X127800000Y-134558700D02*
X132892800Y-129465900D01*
%TO.N,/Reset*%
X154640600Y-116013300D02*
X153836300Y-115209000D01*
X161448200Y-129843500D02*
X161448200Y-128247100D01*
X152401000Y-115209000D02*
X153836300Y-115209000D01*
X154562000Y-121514000D02*
X154562000Y-118516800D01*
X166886000Y-134550700D02*
X166155400Y-134550700D01*
X161448200Y-128247100D02*
X160840200Y-127639100D01*
X160687100Y-127639100D02*
X154562000Y-121514000D01*
X154562000Y-118516800D02*
X154640600Y-118438200D01*
X160840200Y-127639100D02*
X160687100Y-127639100D01*
X166886000Y-138676000D02*
X166886000Y-134550700D01*
X154640600Y-118438200D02*
X154640600Y-116013300D01*
X164735700Y-133131000D02*
X161448200Y-129843500D01*
X166155400Y-134550700D02*
X164735700Y-133131000D01*
%TO.N,/Switch*%
X126313500Y-64393200D02*
X128682000Y-62024700D01*
X152400000Y-116199000D02*
X150964700Y-116199000D01*
X126313500Y-65553500D02*
X126313500Y-64393200D01*
X150963600Y-118788300D02*
X160683300Y-128508000D01*
X150964700Y-116199000D02*
X150963600Y-116200100D01*
X150963600Y-116200100D02*
X150963600Y-118788300D01*
X128682000Y-62024700D02*
X128682000Y-61706000D01*
%TO.N,/Wr_Sys*%
X152399000Y-117193000D02*
X153834300Y-117193000D01*
X153834300Y-118056700D02*
X153915300Y-118137700D01*
X135421000Y-128267700D02*
X135421000Y-128241900D01*
X131883900Y-128966800D02*
X134721900Y-128966800D01*
X134721900Y-128966800D02*
X135421000Y-128267700D01*
X126294000Y-134556700D02*
X131883900Y-128966800D01*
X153834300Y-117193000D02*
X153834300Y-118056700D01*
X126294000Y-138682000D02*
X126294000Y-134556700D01*
%TO.N,/Button*%
X155256000Y-120132000D02*
X155256000Y-121567300D01*
D26*
X132731000Y-65437300D02*
X132731000Y-65273500D01*
D25*
X139549300Y-65000700D02*
X132731000Y-65000700D01*
X132731000Y-65273500D02*
X132368000Y-65273500D01*
X157321800Y-122608900D02*
X156297600Y-122608900D01*
D26*
X132731000Y-65273500D02*
X132731000Y-65000700D01*
D25*
X150937700Y-55547000D02*
X149003000Y-55547000D01*
X156297600Y-122608900D02*
X155256000Y-121567300D01*
X149003000Y-55547000D02*
X139549300Y-65000700D01*
X154384000Y-57833000D02*
X153223700Y-57833000D01*
X153223700Y-57833000D02*
X150937700Y-55547000D01*
X132368000Y-65273500D02*
X132099000Y-65542000D01*
%TO.N,/A15_Game*%
X158271000Y-123765900D02*
X162610400Y-128105300D01*
X158271000Y-120131000D02*
X158271000Y-121566300D01*
X158271000Y-121566300D02*
X158271000Y-123765900D01*
D27*
%TO.N,/VCC*%
X157457000Y-57976000D02*
X157486000Y-57947000D01*
X126899500Y-90882700D02*
X124357500Y-90882700D01*
X170263800Y-89938700D02*
X169121700Y-91080800D01*
X171868300Y-93827400D02*
X169121700Y-91080800D01*
X157338000Y-57857000D02*
X155978600Y-56497600D01*
X123268000Y-125613000D02*
X128185000Y-125613000D01*
X125932200Y-109008100D02*
X128753400Y-109008100D01*
X160076000Y-123421000D02*
X160076000Y-122085700D01*
X171868300Y-100082000D02*
X172204700Y-100418400D01*
X124278000Y-104410000D02*
X124278000Y-95382800D01*
X121756300Y-111848700D02*
X122424000Y-111848700D01*
X124356500Y-93094000D02*
X124356500Y-90883700D01*
X123268000Y-138682000D02*
X123268000Y-134381700D01*
X126899500Y-93093000D02*
X126899500Y-90882700D01*
X158689800Y-57947000D02*
X170263800Y-69521000D01*
X157486000Y-57947000D02*
X157515000Y-57918000D01*
X124357500Y-90882700D02*
X124356500Y-90883700D01*
X151613800Y-54101100D02*
X143703600Y-54101100D01*
X122424000Y-113184000D02*
X122424000Y-112516300D01*
X160130500Y-121905800D02*
X160296000Y-121740300D01*
X131994000Y-126465000D02*
X130728000Y-126465000D01*
X171670200Y-100082000D02*
X171868300Y-100082000D01*
X160296000Y-120130000D02*
X160296000Y-121740300D01*
X123268000Y-125613000D02*
X123268000Y-134381700D01*
X124356500Y-93094000D02*
X124356500Y-95304300D01*
X124318000Y-104490000D02*
X124278000Y-104450000D01*
X122378500Y-124723500D02*
X123268000Y-125613000D01*
X122424000Y-112516300D02*
X122424000Y-111848700D01*
X124278000Y-104450000D02*
X124278000Y-104410000D01*
X154010300Y-56497600D02*
X151613800Y-54101100D01*
X160076000Y-122085700D02*
X160076000Y-121905800D01*
X128753400Y-109008100D02*
X129427000Y-108334500D01*
X124317500Y-104723000D02*
X124317500Y-105828100D01*
X124317500Y-105828100D02*
X124317500Y-106933300D01*
X123182000Y-65562500D02*
X121079600Y-67664900D01*
X172204700Y-100418400D02*
X172204700Y-109036800D01*
X129427000Y-108334500D02*
X129427000Y-107698300D01*
X121079600Y-67664900D02*
X121079600Y-111172000D01*
X124317500Y-105828100D02*
X124318000Y-105827600D01*
X169121700Y-91080800D02*
X168741000Y-91461500D01*
D28*
X157338000Y-57857000D02*
X157457000Y-57976000D01*
D27*
X157515000Y-57918000D02*
X157515000Y-57824000D01*
X128190000Y-128118300D02*
X130725000Y-128118300D01*
X171868300Y-100082000D02*
X171868300Y-93827400D01*
X128185000Y-126463000D02*
X128185000Y-125613000D01*
X122424000Y-112516300D02*
X125932200Y-109008100D01*
X126408800Y-58841100D02*
X123981500Y-61268400D01*
X122378500Y-113254500D02*
X122378500Y-124723500D01*
X130728000Y-126465000D02*
X130725000Y-126468000D01*
X123981500Y-61268400D02*
X123981500Y-64763900D01*
X143703600Y-54101100D02*
X138963600Y-58841100D01*
X170263800Y-69521000D02*
X170263800Y-89938700D01*
X129427000Y-107698300D02*
X128662000Y-106933300D01*
X128662000Y-106933300D02*
X124317500Y-106933300D01*
X121079600Y-111172000D02*
X121756300Y-111848700D01*
X170258000Y-100082000D02*
X171670200Y-100082000D01*
X123981500Y-64763900D02*
X123198000Y-65547400D01*
X128185000Y-128113300D02*
X128190000Y-128118300D01*
X155978600Y-56497600D02*
X154010300Y-56497600D01*
X138963600Y-58841100D02*
X126408800Y-58841100D01*
X157486000Y-57947000D02*
X158689800Y-57947000D01*
X128185000Y-126463000D02*
X128185000Y-128113300D01*
X130725000Y-126468000D02*
X130725000Y-128118300D01*
X124278000Y-95382800D02*
X124356500Y-95304300D01*
X160076000Y-121905800D02*
X160130500Y-121905800D01*
X124318000Y-105827600D02*
X124318000Y-104723000D01*
D25*
%TO.N,/A0*%
X142146900Y-116225600D02*
X142146900Y-112711400D01*
X139459200Y-116045900D02*
X139459200Y-116268100D01*
X142146900Y-112711400D02*
X138360600Y-108925100D01*
X137696000Y-115758000D02*
X139171300Y-115758000D01*
X162321000Y-120130000D02*
X162321000Y-118074700D01*
X142510400Y-119260900D02*
X142785400Y-118985900D01*
X140489700Y-119656700D02*
X140183900Y-119350900D01*
X138360600Y-106755300D02*
X138360500Y-106755300D01*
X142785400Y-118985900D02*
X142785400Y-116864100D01*
X162321000Y-118074700D02*
X158159200Y-113912900D01*
X135762800Y-131160100D02*
X140489700Y-126433200D01*
X142785400Y-116864100D02*
X142146900Y-116225600D01*
X140489700Y-126433200D02*
X140489700Y-119656700D01*
X138360500Y-104720000D02*
X138360500Y-106755300D01*
X139171300Y-115758000D02*
X139459200Y-116045900D01*
X130810000Y-138684000D02*
X130810000Y-134558700D01*
X130810000Y-134558700D02*
X134208600Y-131160100D01*
X134208600Y-131160100D02*
X135762800Y-131160100D01*
X138360600Y-108925100D02*
X138360600Y-106755300D01*
%TO.N,/A1*%
X132317000Y-134558700D02*
X133053000Y-134558700D01*
X140470700Y-116046800D02*
X140470700Y-116301800D01*
X133053000Y-134558700D02*
X140940100Y-126671600D01*
X140940100Y-118761700D02*
X141203900Y-118497900D01*
X159164800Y-114169000D02*
X159164800Y-113601400D01*
X140470700Y-116301800D02*
X139747500Y-117025000D01*
X139747500Y-117025000D02*
X139169300Y-117025000D01*
X137053500Y-104720000D02*
X137053500Y-108891800D01*
X159164800Y-113601400D02*
X158475900Y-112912500D01*
X132317000Y-138684000D02*
X132317000Y-134558700D01*
X163313000Y-118317200D02*
X159164800Y-114169000D01*
X163313000Y-118692700D02*
X163313000Y-118317200D01*
X140470700Y-112309000D02*
X140470700Y-116046800D01*
X137053500Y-108891800D02*
X140470700Y-112309000D01*
X140940100Y-126671600D02*
X140940100Y-118761700D01*
X163313000Y-120128000D02*
X163313000Y-118692700D01*
X137694000Y-117025000D02*
X139169300Y-117025000D01*
%TO.N,/A2*%
X140663600Y-116772100D02*
X141232100Y-116772100D01*
X137696000Y-118296000D02*
X139171300Y-118296000D01*
X133836000Y-134558700D02*
X141390400Y-127004300D01*
X141232100Y-116772100D02*
X141361300Y-116772100D01*
X142033000Y-118694800D02*
X142033000Y-117810200D01*
X136599400Y-102684600D02*
X137544000Y-102684600D01*
X164345000Y-118733700D02*
X164345000Y-118712300D01*
X137544000Y-102684600D02*
X137678900Y-102819500D01*
X135826000Y-103975000D02*
X135826000Y-104720000D01*
X141390400Y-119337400D02*
X142033000Y-118694800D01*
X164345000Y-120169000D02*
X164345000Y-118733700D01*
X133836000Y-138684000D02*
X133836000Y-134558700D01*
X135906000Y-103378000D02*
X136599400Y-102684600D01*
X139171300Y-118264400D02*
X140663600Y-116772100D01*
X163268200Y-116388700D02*
X158722500Y-111843000D01*
D26*
X135827000Y-103974000D02*
X135866000Y-103934000D01*
D25*
X137678900Y-108880300D02*
X141232100Y-112433500D01*
X141232100Y-112433500D02*
X141232100Y-116772100D01*
X163268200Y-117635500D02*
X163268200Y-116388700D01*
X135906000Y-103894000D02*
X135906000Y-103378000D01*
X135866000Y-103934000D02*
X135826000Y-103975000D01*
X137678900Y-102819500D02*
X137678900Y-108880300D01*
D26*
X135866000Y-103934000D02*
X135906000Y-103894000D01*
D25*
X135826000Y-104720000D02*
X135825500Y-104720000D01*
X139171300Y-118296000D02*
X139171300Y-118264400D01*
X141390400Y-127004300D02*
X141390400Y-119337400D01*
X164345000Y-118712300D02*
X163268200Y-117635500D01*
X142033000Y-117443800D02*
X142033000Y-117810200D01*
X141361300Y-116772100D02*
X142033000Y-117443800D01*
%TO.N,/A3*%
X134554000Y-103456000D02*
X134554000Y-104720000D01*
X163718500Y-115625100D02*
X158894700Y-110801300D01*
X143136000Y-112800800D02*
X143136000Y-116137100D01*
X134554000Y-104720000D02*
X134554500Y-104720000D01*
X137695000Y-119569000D02*
X139170300Y-119569000D01*
X135343000Y-138684000D02*
X135343000Y-134558700D01*
X163718500Y-117155200D02*
X163718500Y-115625100D01*
X138319600Y-102206000D02*
X139016100Y-102902500D01*
X134537000Y-103438000D02*
X134554000Y-103456000D01*
X141840700Y-121178100D02*
X143235900Y-119782900D01*
D26*
X134537000Y-103438000D02*
X134517000Y-103458000D01*
D25*
X135343000Y-134437100D02*
X141840700Y-127939400D01*
X134557000Y-103418000D02*
X135769000Y-102206000D01*
X143235900Y-116237000D02*
X143136000Y-116137100D01*
X165297000Y-118733700D02*
X163718500Y-117155200D01*
X135769000Y-102206000D02*
X138319600Y-102206000D01*
X135343000Y-134558700D02*
X135343000Y-134437100D01*
X143235900Y-119782900D02*
X143235900Y-116237000D01*
X165297000Y-120169000D02*
X165297000Y-118733700D01*
X140990400Y-117497500D02*
X139170300Y-119317600D01*
D26*
X134557000Y-103418000D02*
X134537000Y-103438000D01*
D25*
X139016100Y-108680900D02*
X143136000Y-112800800D01*
X139016100Y-102902500D02*
X139016100Y-108680900D01*
X139170300Y-119317600D02*
X139170300Y-119569000D01*
X141840700Y-127939400D02*
X141840700Y-121178100D01*
%TO.N,/A4*%
X139627900Y-115183500D02*
X139627900Y-112635700D01*
X166330000Y-120170000D02*
X166330000Y-118734700D01*
X142897000Y-124889600D02*
X144262600Y-123524000D01*
X133250000Y-105162000D02*
X133250000Y-104720000D01*
X159276400Y-109782700D02*
X164328200Y-114834500D01*
X164328300Y-116733000D02*
X166330000Y-118734700D01*
X136218700Y-120835000D02*
X136218700Y-119150500D01*
X136850000Y-138681000D02*
X136850000Y-133567000D01*
X133250000Y-104720000D02*
X133249500Y-104720000D01*
X164328200Y-114834500D02*
X164328200Y-116733000D01*
X137694000Y-120835000D02*
X136218700Y-120835000D01*
X164328200Y-116733000D02*
X164328300Y-116733000D01*
X133228000Y-105184000D02*
X133250000Y-105162000D01*
X144262600Y-123524000D02*
X144262600Y-115183500D01*
X142897000Y-127520000D02*
X142897000Y-124889600D01*
X133218000Y-106225800D02*
X133218000Y-105194000D01*
X139627900Y-112635700D02*
X133218000Y-106225800D01*
X136850000Y-133567000D02*
X142897000Y-127520000D01*
X136218700Y-119150500D02*
X135985100Y-118916900D01*
%TO.N,/A5*%
X137693000Y-122105000D02*
X136217700Y-122105000D01*
X165011900Y-116717400D02*
X167027200Y-118732700D01*
X157936100Y-107730900D02*
X158266500Y-107730900D01*
X138357000Y-132696900D02*
X143634600Y-127419300D01*
X138357000Y-134563700D02*
X138357000Y-132696900D01*
X143634600Y-125608800D02*
X145030700Y-124212700D01*
X134815500Y-109097100D02*
X134320300Y-109097100D01*
X131978500Y-104720000D02*
X131978500Y-106755300D01*
X135211900Y-121099200D02*
X136217700Y-122105000D01*
X137013900Y-111936700D02*
X137013900Y-111295500D01*
X134320300Y-109097100D02*
X131978500Y-106755300D01*
X145030700Y-124212700D02*
X145030700Y-113345000D01*
X167322000Y-120168000D02*
X167322000Y-118732700D01*
X138357000Y-138689000D02*
X138357000Y-134563700D01*
X135211900Y-115798300D02*
X135211900Y-121099200D01*
X137013900Y-111295500D02*
X134815500Y-109097100D01*
X167027200Y-118732700D02*
X167322000Y-118732700D01*
X158266500Y-107730900D02*
X165011900Y-114476300D01*
X165011900Y-114476300D02*
X165011900Y-116717400D01*
X145030700Y-113345000D02*
X142856700Y-111171000D01*
X143634600Y-127419300D02*
X143634600Y-125608800D01*
%TO.N,/A6*%
X170062400Y-118138000D02*
X170062400Y-117420600D01*
X139824000Y-134555700D02*
X139824000Y-132268100D01*
X139170300Y-126077400D02*
X138070700Y-127177000D01*
X130703500Y-104720000D02*
X130703500Y-102684700D01*
X139824000Y-138681000D02*
X139824000Y-134555700D01*
X130703500Y-102684700D02*
X132207000Y-101181200D01*
X137695000Y-123376000D02*
X139170300Y-123376000D01*
X139170300Y-123376000D02*
X139170300Y-126077400D01*
X170062400Y-117420600D02*
X170253000Y-117230000D01*
X139824000Y-132268100D02*
X141167700Y-130924400D01*
X132207000Y-101181200D02*
X132207000Y-95950600D01*
%TO.N,/A7*%
X128737700Y-109908400D02*
X128425500Y-109908400D01*
X130086800Y-107403600D02*
X130086800Y-108559300D01*
X137695000Y-126527000D02*
X137322100Y-126899900D01*
X169045700Y-118730700D02*
X168817600Y-118502600D01*
X142074000Y-133810700D02*
X142074000Y-131559300D01*
X129438500Y-104720000D02*
X129438500Y-106755300D01*
X137322100Y-126899900D02*
X137322100Y-127925700D01*
X141327000Y-138683000D02*
X141327000Y-134557700D01*
X168817600Y-118502600D02*
X168817600Y-116247100D01*
X137695000Y-124645000D02*
X137695000Y-126527000D01*
X129438500Y-106755300D02*
X130086800Y-107403600D01*
X168817600Y-116247100D02*
X168822700Y-116242000D01*
X170258000Y-116242000D02*
X168822700Y-116242000D01*
X130086800Y-108559300D02*
X128737700Y-109908400D01*
X141327000Y-134557700D02*
X142074000Y-133810700D01*
%TO.N,/A8*%
X142834000Y-138683000D02*
X142834000Y-134557700D01*
X171692300Y-115249000D02*
X171693400Y-115250100D01*
X128999600Y-91057700D02*
X130744500Y-91057700D01*
X171693400Y-117736400D02*
X170267700Y-119162100D01*
X128842500Y-95338100D02*
X128842500Y-91214800D01*
X127950800Y-121926500D02*
X127773300Y-122104000D01*
X130744500Y-93093000D02*
X130744500Y-91057700D01*
X171693400Y-115250100D02*
X171693400Y-117736400D01*
X142834000Y-134557700D02*
X143232500Y-134159200D01*
X126298000Y-122104000D02*
X127773300Y-122104000D01*
X128842500Y-91214800D02*
X128999600Y-91057700D01*
X143232500Y-134159200D02*
X143232500Y-131701000D01*
X129400700Y-121926500D02*
X127950800Y-121926500D01*
X170257000Y-115249000D02*
X171692300Y-115249000D01*
%TO.N,/A9*%
X127774300Y-120836000D02*
X128663000Y-120836000D01*
X131977100Y-90775300D02*
X131977100Y-91015300D01*
X131977100Y-91015300D02*
X132017500Y-91055700D01*
X128663000Y-120836000D02*
X128703800Y-120795200D01*
X170258000Y-114216000D02*
X171693300Y-114216000D01*
X144683800Y-132459000D02*
X144353000Y-132789800D01*
X171978600Y-114323500D02*
X171800800Y-114323500D01*
X144353000Y-132789800D02*
X144353000Y-138683000D01*
X171800800Y-114323500D02*
X171693300Y-114216000D01*
X132017500Y-93091000D02*
X132017500Y-91055700D01*
X126299000Y-120836000D02*
X127774300Y-120836000D01*
%TO.N,/A10*%
X153651800Y-122796000D02*
X148695800Y-117840000D01*
X138129700Y-95659600D02*
X137163800Y-95659600D01*
X135866500Y-83802000D02*
X135866500Y-93094000D01*
X145860000Y-138683000D02*
X145860000Y-134557700D01*
X137163800Y-95659600D02*
X135867000Y-94362800D01*
X148695800Y-117840000D02*
X148695800Y-105954800D01*
X144499200Y-129435700D02*
X145860000Y-130796500D01*
X138129700Y-95659700D02*
X138129700Y-95659600D01*
X145860000Y-130796500D02*
X145860000Y-134557700D01*
X168656500Y-112023800D02*
X168823700Y-112191000D01*
X170259000Y-112191000D02*
X168823700Y-112191000D01*
X126293000Y-117023000D02*
X131306300Y-117023000D01*
X135867000Y-94362800D02*
X135867000Y-93972600D01*
X148695800Y-105954800D02*
X139928200Y-97187200D01*
X131306300Y-117023000D02*
X131399700Y-117116400D01*
X139928200Y-97187200D02*
X139657200Y-97187200D01*
D26*
X135867000Y-93972600D02*
X135906000Y-93932900D01*
D25*
X165588400Y-112023800D02*
X168656500Y-112023800D01*
X139657200Y-97187200D02*
X138129700Y-95659700D01*
%TO.N,/A11*%
X172714100Y-118227500D02*
X172714100Y-112221800D01*
X171812100Y-119129500D02*
X172714100Y-118227500D01*
X132748300Y-89338600D02*
X133288500Y-89878800D01*
X170256000Y-111199000D02*
X171691300Y-111199000D01*
X147366000Y-138676000D02*
X147366000Y-134550700D01*
X133288500Y-89878800D02*
X133288500Y-93091000D01*
X127767300Y-119563000D02*
X127767300Y-119565700D01*
X147366000Y-134550700D02*
X147366000Y-132909800D01*
X127767300Y-119565700D02*
X128043500Y-119841900D01*
X126292000Y-119563000D02*
X127767300Y-119563000D01*
X172714100Y-112221800D02*
X171691300Y-111199000D01*
%TO.N,/A12*%
X148873000Y-132094500D02*
X149525400Y-131442100D01*
X136349900Y-126024600D02*
X136779000Y-126024600D01*
X166667400Y-110491300D02*
X168539400Y-110491300D01*
X149525400Y-131442100D02*
X149525400Y-124785400D01*
X168539400Y-110491300D02*
X168823700Y-110207000D01*
X148873000Y-138676000D02*
X148873000Y-132094500D01*
X135908500Y-126466000D02*
X136349900Y-126024600D01*
X170259000Y-110207000D02*
X168823700Y-110207000D01*
%TO.N,/A13*%
X150380000Y-138684000D02*
X150380000Y-134558700D01*
X168826700Y-109216000D02*
X168424100Y-109618600D01*
X170262000Y-109216000D02*
X168826700Y-109216000D01*
X150701100Y-134237600D02*
X150701100Y-127567000D01*
X168424100Y-109618600D02*
X167698600Y-109618600D01*
X150380000Y-134558700D02*
X150701100Y-134237600D01*
%TO.N,/A14*%
X151887000Y-138684000D02*
X151887000Y-134558700D01*
X168531600Y-108265400D02*
X168698300Y-108265400D01*
X170255000Y-108144000D02*
X168819700Y-108144000D01*
X168698300Y-108265400D02*
X168819700Y-108144000D01*
X151887000Y-134558700D02*
X151887000Y-127426500D01*
%TO.N,/A15_Sys*%
X170257000Y-107152000D02*
X168595000Y-107152000D01*
X153394000Y-138684000D02*
X153394000Y-129648800D01*
X164863100Y-110883900D02*
X164863100Y-112324200D01*
X164863100Y-112324200D02*
X165737300Y-113198400D01*
X165737300Y-113198400D02*
X165737300Y-116412800D01*
X168595000Y-107152000D02*
X164863100Y-110883900D01*
%TO.N,/A13_SST*%
X126298000Y-123376000D02*
X127773300Y-123376000D01*
X163440300Y-105194300D02*
X168795400Y-105194300D01*
X128331600Y-122817700D02*
X130126100Y-122817700D01*
X168795400Y-105194300D02*
X168824700Y-105165000D01*
X130126100Y-122817700D02*
X131883700Y-121060100D01*
X127773300Y-123376000D02*
X128331600Y-122817700D01*
X131883700Y-121060100D02*
X133314100Y-121060100D01*
X170260000Y-105165000D02*
X168824700Y-105165000D01*
%TO.N,/A14_SST*%
X168823700Y-104095000D02*
X164527600Y-104095000D01*
X131101500Y-123268100D02*
X132574900Y-121794700D01*
X127772300Y-124647000D02*
X129151200Y-123268100D01*
X126297000Y-124647000D02*
X127772300Y-124647000D01*
X170259000Y-104095000D02*
X168823700Y-104095000D01*
X129151200Y-123268100D02*
X131101500Y-123268100D01*
X164527600Y-104095000D02*
X164477500Y-104044900D01*
%TO.N,/A15_SST*%
X168562000Y-103365700D02*
X168501600Y-103365700D01*
X134535000Y-124990700D02*
X134916600Y-124609100D01*
X134916600Y-124609100D02*
X134916600Y-123831600D01*
X170258000Y-103105000D02*
X168822700Y-103105000D01*
X168822700Y-103105000D02*
X168562000Y-103365700D01*
X134535000Y-126466000D02*
X134535000Y-124990700D01*
%TO.N,/A16_SST*%
X168823700Y-102109000D02*
X164786800Y-102109000D01*
X133266000Y-126467000D02*
X133266000Y-124991700D01*
X170259000Y-102109000D02*
X168823700Y-102109000D01*
X134523600Y-123198900D02*
X134523600Y-119025800D01*
X134523600Y-119025800D02*
X133824300Y-118326500D01*
X164786800Y-102109000D02*
X164489300Y-102406500D01*
X133266000Y-124456500D02*
X134523600Y-123198900D01*
X133266000Y-124991700D02*
X133266000Y-124456500D01*
%TO.N,/BC847C*%
X164172100Y-100009200D02*
X163728600Y-100452700D01*
X168414400Y-101487300D02*
X168822700Y-101079000D01*
X165384400Y-100009200D02*
X164172100Y-100009200D01*
X164204300Y-101487300D02*
X168414400Y-101487300D01*
X163728600Y-100452700D02*
X163728600Y-101011600D01*
X163728600Y-101011600D02*
X164204300Y-101487300D01*
X168007900Y-97385700D02*
X165384400Y-100009200D01*
X170258000Y-101079000D02*
X168822700Y-101079000D01*
X168007900Y-93291900D02*
X168007900Y-97385700D01*
%TO.N,/A12_V62*%
X128177000Y-102911400D02*
X129622100Y-101466300D01*
X128164000Y-103938000D02*
X128164000Y-104329000D01*
X170258000Y-99093000D02*
X168821900Y-99093000D01*
X128177000Y-103904000D02*
X128177000Y-102911400D01*
X167180400Y-100734500D02*
X164482000Y-100734500D01*
X168821900Y-99093000D02*
X167180400Y-100734500D01*
X128187000Y-103914000D02*
X128164000Y-103938000D01*
X128164000Y-104329000D02*
X128163500Y-104329500D01*
%TO.N,/A13_V62*%
X130373900Y-96897600D02*
X129567800Y-96091500D01*
X167324000Y-95232900D02*
X164158700Y-92067600D01*
X167324000Y-96197000D02*
X167324000Y-95239500D01*
X164158700Y-92067600D02*
X159037300Y-92067600D01*
X129567800Y-96091500D02*
X129567800Y-93186300D01*
X129567800Y-93186300D02*
X129474500Y-93093000D01*
X159037300Y-92067600D02*
X158615600Y-92489300D01*
X167324000Y-95239500D02*
X167324000Y-95232900D01*
%TO.N,/A14_V62*%
X128871300Y-100674900D02*
X130255200Y-100674900D01*
X164708100Y-99252200D02*
X166328000Y-97632300D01*
X162883400Y-99252200D02*
X164708100Y-99252200D01*
X126858500Y-102687700D02*
X128871300Y-100674900D01*
X166328000Y-96197000D02*
X166328000Y-97632300D01*
X126858500Y-104723000D02*
X126858500Y-102687700D01*
%TO.N,/A15_V62*%
X164561100Y-98368200D02*
X164438300Y-98368200D01*
X125621500Y-95551100D02*
X128994100Y-98923700D01*
X125621500Y-93094000D02*
X125621500Y-95129300D01*
X165297000Y-96197000D02*
X165297000Y-97632300D01*
X128994100Y-98923700D02*
X129843400Y-98923700D01*
X165297000Y-97632300D02*
X164561100Y-98368200D01*
X125621500Y-95129300D02*
X125621500Y-95551100D01*
%TO.N,/A16_V62*%
X163379000Y-98328600D02*
X164075300Y-97632300D01*
X128601700Y-99674500D02*
X130507500Y-99674500D01*
X125588500Y-102687700D02*
X128601700Y-99674500D01*
X164341000Y-96197000D02*
X164341000Y-97632300D01*
X164075300Y-97632300D02*
X164341000Y-97632300D01*
X125588500Y-104723000D02*
X125588500Y-102687700D01*
%TO.N,/WE*%
X130974800Y-124987700D02*
X131927300Y-124035200D01*
X129453000Y-126463000D02*
X129453000Y-124987700D01*
X163313000Y-97592300D02*
X163044700Y-97592300D01*
X163044700Y-97592300D02*
X160497400Y-100139600D01*
X163313000Y-96157000D02*
X163313000Y-97592300D01*
X129453000Y-124987700D02*
X130974800Y-124987700D01*
X128210500Y-93093000D02*
X128117200Y-93186300D01*
X128117200Y-93186300D02*
X128117200Y-96984200D01*
X128210000Y-93093000D02*
X128210500Y-93093000D01*
X128117200Y-96984200D02*
X129212800Y-98079800D01*
%TO.N,/OE_V62*%
X139963500Y-98248300D02*
X137825100Y-96109900D01*
X162321000Y-97048600D02*
X162321000Y-97199200D01*
X162321000Y-96158000D02*
X162321000Y-97048600D01*
X137825100Y-96109900D02*
X135571100Y-96109900D01*
X134590500Y-93094000D02*
X134590500Y-95129300D01*
X135571100Y-96109900D02*
X134590500Y-95129300D01*
X162321000Y-97199200D02*
X161455000Y-98065200D01*
%TO.N,/Ind1*%
X161288000Y-96158000D02*
X161288000Y-94722700D01*
X163189000Y-93228000D02*
X163189000Y-94388300D01*
X161622400Y-94388300D02*
X161288000Y-94722700D01*
X163189000Y-94388300D02*
X161622400Y-94388300D01*
%TO.N,/Ind2*%
X160058000Y-94397300D02*
X159732600Y-94722700D01*
X159265000Y-96158000D02*
X159265000Y-94722700D01*
X159732600Y-94722700D02*
X159265000Y-94722700D01*
X160058000Y-93237000D02*
X160058000Y-94397300D01*
%TO.N,/Clk*%
X124787000Y-138682000D02*
X124787000Y-134556700D01*
X124787000Y-134556700D02*
X125608700Y-134556700D01*
X125608700Y-134556700D02*
X131923900Y-128241500D01*
X131923900Y-128241500D02*
X134420600Y-128241500D01*
%TO.N,/CS*%
X133156000Y-130709700D02*
X129307000Y-134558700D01*
X139738800Y-120956500D02*
X139738800Y-126534900D01*
X135564000Y-130709700D02*
X133156000Y-130709700D01*
X139738800Y-126534900D02*
X135564000Y-130709700D01*
X129307000Y-138684000D02*
X129307000Y-134558700D01*
%TO.N,/Audio*%
X168441000Y-138676000D02*
X168441000Y-134550700D01*
X167894700Y-134550700D02*
X165216200Y-131872200D01*
X168441000Y-134550700D02*
X167894700Y-134550700D01*
%TD*%
M02*
