%TF.GenerationSoftware,KiCad,Pcbnew,(6.0.2)*%
%TF.CreationDate,2022-10-22T13:12:19-05:00*%
%TF.ProjectId,REF1395A Optimized,52454631-3339-4354-9120-4f7074696d69,rev?*%
%TF.SameCoordinates,Original*%
%TF.FileFunction,Copper,L1,Top*%
%TF.FilePolarity,Positive*%
%FSLAX46Y46*%
G04 Gerber Fmt 4.6, Leading zero omitted, Abs format (unit mm)*
G04 Created by KiCad (PCBNEW (6.0.2)) date 2022-10-22 13:12:19*
%MOMM*%
%LPD*%
G01*
G04 APERTURE LIST*
G04 Aperture macros list*
%AMRoundRect*
0 Rectangle with rounded corners*
0 $1 Rounding radius*
0 $2 $3 $4 $5 $6 $7 $8 $9 X,Y pos of 4 corners*
0 Add a 4 corners polygon primitive as box body*
4,1,4,$2,$3,$4,$5,$6,$7,$8,$9,$2,$3,0*
0 Add four circle primitives for the rounded corners*
1,1,$1+$1,$2,$3*
1,1,$1+$1,$4,$5*
1,1,$1+$1,$6,$7*
1,1,$1+$1,$8,$9*
0 Add four rect primitives between the rounded corners*
20,1,$1+$1,$2,$3,$4,$5,0*
20,1,$1+$1,$4,$5,$6,$7,0*
20,1,$1+$1,$6,$7,$8,$9,0*
20,1,$1+$1,$8,$9,$2,$3,0*%
G04 Aperture macros list end*
%ADD10C,0.170000*%
%TA.AperFunction,NonConductor*%
%ADD11C,0.170000*%
%TD*%
%TA.AperFunction,SMDPad,CuDef*%
%ADD12R,2.250000X0.600000*%
%TD*%
%TA.AperFunction,SMDPad,CuDef*%
%ADD13R,0.600000X2.250000*%
%TD*%
%TA.AperFunction,SMDPad,CuDef*%
%ADD14RoundRect,0.150000X0.150000X-0.587500X0.150000X0.587500X-0.150000X0.587500X-0.150000X-0.587500X0*%
%TD*%
%TA.AperFunction,ComponentPad*%
%ADD15C,5.240000*%
%TD*%
%TA.AperFunction,ComponentPad*%
%ADD16C,1.860000*%
%TD*%
%TA.AperFunction,SMDPad,CuDef*%
%ADD17R,0.600000X3.420000*%
%TD*%
%TA.AperFunction,SMDPad,CuDef*%
%ADD18R,1.670000X1.670000*%
%TD*%
%TA.AperFunction,SMDPad,CuDef*%
%ADD19R,1.500000X6.250000*%
%TD*%
%TA.AperFunction,SMDPad,CuDef*%
%ADD20R,1.000000X6.000000*%
%TD*%
%TA.AperFunction,ComponentPad*%
%ADD21C,1.830000*%
%TD*%
%TA.AperFunction,ComponentPad*%
%ADD22C,2.020000*%
%TD*%
%TA.AperFunction,SMDPad,CuDef*%
%ADD23R,0.650000X2.300000*%
%TD*%
%TA.AperFunction,SMDPad,CuDef*%
%ADD24R,2.300000X0.650000*%
%TD*%
%TA.AperFunction,ViaPad*%
%ADD25C,0.800000*%
%TD*%
%TA.AperFunction,Conductor*%
%ADD26C,0.250000*%
%TD*%
%TA.AperFunction,Conductor*%
%ADD27C,0.500000*%
%TD*%
G04 APERTURE END LIST*
D10*
D11*
X123785000Y-57746857D02*
X123435000Y-57175428D01*
X123185000Y-57746857D02*
X123185000Y-56546857D01*
X123585000Y-56546857D01*
X123685000Y-56604000D01*
X123735000Y-56661142D01*
X123785000Y-56775428D01*
X123785000Y-56946857D01*
X123735000Y-57061142D01*
X123685000Y-57118285D01*
X123585000Y-57175428D01*
X123185000Y-57175428D01*
X124235000Y-57118285D02*
X124585000Y-57118285D01*
X124735000Y-57746857D02*
X124235000Y-57746857D01*
X124235000Y-56546857D01*
X124735000Y-56546857D01*
X125535000Y-57118285D02*
X125185000Y-57118285D01*
X125185000Y-57746857D02*
X125185000Y-56546857D01*
X125685000Y-56546857D01*
X126635000Y-57746857D02*
X126035000Y-57746857D01*
X126335000Y-57746857D02*
X126335000Y-56546857D01*
X126235000Y-56718285D01*
X126135000Y-56832571D01*
X126035000Y-56889714D01*
X126985000Y-56546857D02*
X127635000Y-56546857D01*
X127285000Y-57004000D01*
X127435000Y-57004000D01*
X127535000Y-57061142D01*
X127585000Y-57118285D01*
X127635000Y-57232571D01*
X127635000Y-57518285D01*
X127585000Y-57632571D01*
X127535000Y-57689714D01*
X127435000Y-57746857D01*
X127135000Y-57746857D01*
X127035000Y-57689714D01*
X126985000Y-57632571D01*
X128135000Y-57746857D02*
X128335000Y-57746857D01*
X128435000Y-57689714D01*
X128485000Y-57632571D01*
X128585000Y-57461142D01*
X128635000Y-57232571D01*
X128635000Y-56775428D01*
X128585000Y-56661142D01*
X128535000Y-56604000D01*
X128435000Y-56546857D01*
X128235000Y-56546857D01*
X128135000Y-56604000D01*
X128085000Y-56661142D01*
X128035000Y-56775428D01*
X128035000Y-57061142D01*
X128085000Y-57175428D01*
X128135000Y-57232571D01*
X128235000Y-57289714D01*
X128435000Y-57289714D01*
X128535000Y-57232571D01*
X128585000Y-57175428D01*
X128635000Y-57061142D01*
X129585000Y-56546857D02*
X129085000Y-56546857D01*
X129035000Y-57118285D01*
X129085000Y-57061142D01*
X129185000Y-57004000D01*
X129435000Y-57004000D01*
X129535000Y-57061142D01*
X129585000Y-57118285D01*
X129635000Y-57232571D01*
X129635000Y-57518285D01*
X129585000Y-57632571D01*
X129535000Y-57689714D01*
X129435000Y-57746857D01*
X129185000Y-57746857D01*
X129085000Y-57689714D01*
X129035000Y-57632571D01*
X130035000Y-57404000D02*
X130535000Y-57404000D01*
X129935000Y-57746857D02*
X130285000Y-56546857D01*
X130635000Y-57746857D01*
D12*
%TO.P,U3,1,I/O*%
%TO.N,/D0*%
X152520000Y-99099000D03*
%TO.P,U3,2,I/O*%
%TO.N,/D1*%
X152520000Y-100099000D03*
%TO.P,U3,3,I/O*%
%TO.N,/D2*%
X152520000Y-101099000D03*
%TO.P,U3,4,I/O*%
%TO.N,/D3*%
X152520000Y-102099000D03*
%TO.P,U3,5,I/O*%
%TO.N,/D4*%
X152520000Y-103099000D03*
%TO.P,U3,6,I/O*%
%TO.N,/D5*%
X152520000Y-104099000D03*
%TO.P,U3,7,I/O*%
%TO.N,/D6*%
X152520000Y-105099000D03*
%TO.P,U3,8,I/O*%
%TO.N,/D7*%
X152520000Y-106099000D03*
%TO.P,U3,9,I/O*%
%TO.N,unconnected-(U3-Pad9)*%
X152520000Y-107099000D03*
%TO.P,U3,10,GND*%
%TO.N,/GND*%
X152520000Y-108099000D03*
%TO.P,U3,11,I/O*%
%TO.N,/CE_SST*%
X152520000Y-109099000D03*
%TO.P,U3,12,I/O*%
%TO.N,/CE_V62*%
X152520000Y-110099000D03*
%TO.P,U3,13,I/O*%
%TO.N,/Rd_Game*%
X152520000Y-111099000D03*
%TO.P,U3,14,I/O*%
%TO.N,/Wr_Game*%
X152520000Y-112099000D03*
%TO.P,U3,15,I/O*%
%TO.N,unconnected-(U3-Pad15)*%
X152520000Y-113099000D03*
%TO.P,U3,16,I/O*%
%TO.N,/Rd_Sys*%
X152520000Y-114099000D03*
%TO.P,U3,17,I/O*%
%TO.N,/Reset*%
X152520000Y-115099000D03*
%TO.P,U3,18,I/O*%
%TO.N,/Switch*%
X152520000Y-116099000D03*
%TO.P,U3,19,I/O*%
%TO.N,/Wr_Sys*%
X152520000Y-117099000D03*
D13*
%TO.P,U3,20,I/O*%
%TO.N,/Button*%
X155270000Y-119849000D03*
%TO.P,U3,21,I/O*%
%TO.N,unconnected-(U3-Pad21)*%
X156270000Y-119849000D03*
%TO.P,U3,22,I/O*%
%TO.N,unconnected-(U3-Pad22)*%
X157270000Y-119849000D03*
%TO.P,U3,23,I/O*%
%TO.N,/A15_Game*%
X158270000Y-119849000D03*
%TO.P,U3,24,I/O*%
%TO.N,unconnected-(U3-Pad24)*%
X159270000Y-119849000D03*
%TO.P,U3,25,VCC*%
%TO.N,/VCC*%
X160270000Y-119849000D03*
%TO.P,U3,26,GND*%
%TO.N,/GND*%
X161270000Y-119849000D03*
%TO.P,U3,27,I/O*%
%TO.N,/A0*%
X162270000Y-119849000D03*
%TO.P,U3,28,I/O*%
%TO.N,/A1*%
X163270000Y-119849000D03*
%TO.P,U3,29,I/O*%
%TO.N,/A2*%
X164270000Y-119849000D03*
%TO.P,U3,30,I/O*%
%TO.N,/A3*%
X165270000Y-119849000D03*
%TO.P,U3,31,I/O*%
%TO.N,/A4*%
X166270000Y-119849000D03*
%TO.P,U3,32,I/O*%
%TO.N,/A5*%
X167270000Y-119849000D03*
D12*
%TO.P,U3,33,I/O*%
%TO.N,/A6*%
X170020000Y-117099000D03*
%TO.P,U3,34,I/O*%
%TO.N,/A7*%
X170020000Y-116099000D03*
%TO.P,U3,35,I/O*%
%TO.N,/A8*%
X170020000Y-115099000D03*
%TO.P,U3,36,I/O*%
%TO.N,/A9*%
X170020000Y-114099000D03*
%TO.P,U3,37,GND*%
%TO.N,/GND*%
X170020000Y-113099000D03*
%TO.P,U3,38,I/O*%
%TO.N,/A10*%
X170020000Y-112099000D03*
%TO.P,U3,39,I/O*%
%TO.N,/A11*%
X170020000Y-111099000D03*
%TO.P,U3,40,I/O*%
%TO.N,/A12*%
X170020000Y-110099000D03*
%TO.P,U3,41,I/O*%
%TO.N,/A13*%
X170020000Y-109099000D03*
%TO.P,U3,42,I/O*%
%TO.N,/A14*%
X170020000Y-108099000D03*
%TO.P,U3,43,I/O*%
%TO.N,/A15_Sys*%
X170020000Y-107099000D03*
%TO.P,U3,44,I/O*%
%TO.N,unconnected-(U3-Pad44)*%
X170020000Y-106099000D03*
%TO.P,U3,45,I/O*%
%TO.N,/A13_SST*%
X170020000Y-105099000D03*
%TO.P,U3,46,I/O*%
%TO.N,/A14_SST*%
X170020000Y-104099000D03*
%TO.P,U3,47,I/O*%
%TO.N,/A15_SST*%
X170020000Y-103099000D03*
%TO.P,U3,48,I/O*%
%TO.N,/A16_SST*%
X170020000Y-102099000D03*
%TO.P,U3,49,I/O*%
%TO.N,/BC847C*%
X170020000Y-101099000D03*
%TO.P,U3,50,VCC*%
%TO.N,/VCC*%
X170020000Y-100099000D03*
%TO.P,U3,51,I/O*%
%TO.N,/A12_V62*%
X170020000Y-99099000D03*
D13*
%TO.P,U3,52,I/O*%
%TO.N,/A13_V62*%
X167270000Y-96349000D03*
%TO.P,U3,53,I/O*%
%TO.N,/A14_V62*%
X166270000Y-96349000D03*
%TO.P,U3,54,I/O*%
%TO.N,/A15_V62*%
X165270000Y-96349000D03*
%TO.P,U3,55,I/O*%
%TO.N,/A16_V62*%
X164270000Y-96349000D03*
%TO.P,U3,56,I/O*%
%TO.N,/WE*%
X163270000Y-96349000D03*
%TO.P,U3,57,I/O*%
%TO.N,/OE_V62*%
X162270000Y-96349000D03*
%TO.P,U3,58,I/O*%
%TO.N,/Ind1*%
X161270000Y-96349000D03*
%TO.P,U3,59,GND*%
%TO.N,/GND*%
X160270000Y-96349000D03*
%TO.P,U3,60,I/O*%
%TO.N,/Ind2*%
X159270000Y-96349000D03*
%TO.P,U3,61,I/O*%
%TO.N,unconnected-(U3-Pad61)*%
X158270000Y-96349000D03*
%TO.P,U3,62,I/O*%
%TO.N,unconnected-(U3-Pad62)*%
X157270000Y-96349000D03*
%TO.P,U3,63,I/O*%
%TO.N,unconnected-(U3-Pad63)*%
X156270000Y-96349000D03*
%TO.P,U3,64,I/O*%
%TO.N,unconnected-(U3-Pad64)*%
X155270000Y-96349000D03*
%TD*%
D14*
%TO.P,Q1,1,B*%
%TO.N,/BC847C*%
X167791000Y-93336500D03*
%TO.P,Q1,2,E*%
%TO.N,/D0*%
X169691000Y-93336500D03*
%TO.P,Q1,3,C*%
%TO.N,/VCC*%
X168741000Y-91461500D03*
%TD*%
D15*
%TO.P,REF\u002A\u002A,1*%
%TO.N,N/C*%
X146580000Y-126866000D03*
%TD*%
D16*
%TO.P,J2,1,+5V*%
%TO.N,/VCC*%
X170263800Y-69521000D03*
%TO.P,J2,2,Clock*%
%TO.N,/Clk*%
X168717300Y-71029000D03*
%TO.P,J2,3,Write*%
%TO.N,/Wr_Game*%
X167248900Y-69520900D03*
%TO.P,J2,4,Read*%
%TO.N,/Rd_Game*%
X165700800Y-71027000D03*
%TO.P,J2,5,CS*%
%TO.N,/CS*%
X164230800Y-69521000D03*
%TO.P,J2,6,A0*%
%TO.N,/A0*%
X162684800Y-71029000D03*
%TO.P,J2,7,A1*%
%TO.N,/A1*%
X161216400Y-69520900D03*
%TO.P,J2,8,A2*%
%TO.N,/A2*%
X159666800Y-71028000D03*
%TO.P,J2,9,A3*%
%TO.N,/A3*%
X158240800Y-69522000D03*
%TO.P,J2,10,A4*%
%TO.N,/A4*%
X156692000Y-71029000D03*
%TO.P,J2,11,A5*%
%TO.N,/A5*%
X155183900Y-69520900D03*
%TO.P,J2,12,A6*%
%TO.N,/A6*%
X153631800Y-71029000D03*
%TO.P,J2,13,A7*%
%TO.N,/A7*%
X152167600Y-69520900D03*
%TO.P,J2,14,A8*%
%TO.N,/A8*%
X150617800Y-71029000D03*
%TO.P,J2,15,A9*%
%TO.N,/A9*%
X149231800Y-69520000D03*
%TO.P,J2,16,A10*%
%TO.N,/A10*%
X147680800Y-71030000D03*
%TO.P,J2,17,A11*%
%TO.N,/A11*%
X146210800Y-69521000D03*
%TO.P,J2,18,A12*%
%TO.N,/A12*%
X144665800Y-71028000D03*
%TO.P,J2,19,A13*%
%TO.N,/A13*%
X143196800Y-69522000D03*
%TO.P,J2,20,A14*%
%TO.N,/A14*%
X141648800Y-71030000D03*
%TO.P,J2,21,A15*%
%TO.N,/A15_Game*%
X140180800Y-69520000D03*
%TO.P,J2,22,Data_0*%
%TO.N,/D0*%
X138635800Y-71028000D03*
%TO.P,J2,23,Data_1*%
%TO.N,/D1*%
X137202800Y-69519000D03*
%TO.P,J2,24,Data_2*%
%TO.N,/D2*%
X135658800Y-71029000D03*
%TO.P,J2,25,Data_3*%
%TO.N,/D3*%
X134267800Y-69524000D03*
%TO.P,J2,26,Data_4*%
%TO.N,/D4*%
X132716800Y-71027000D03*
%TO.P,J2,27,Data_5*%
%TO.N,/D5*%
X131171800Y-69522000D03*
%TO.P,J2,28,Data_6*%
%TO.N,/D6*%
X129664800Y-71029000D03*
%TO.P,J2,29,Data_7*%
%TO.N,/D7*%
X128157800Y-69522000D03*
%TO.P,J2,30,Reset*%
%TO.N,/Reset*%
X126650800Y-71037000D03*
%TO.P,J2,31,Audio*%
%TO.N,/Audio*%
X125135800Y-69522000D03*
%TO.P,J2,32,GND*%
%TO.N,/GND*%
X123632300Y-71029000D03*
%TD*%
D17*
%TO.P,U2,1,N/C*%
%TO.N,/VCC*%
X124317500Y-104723000D03*
%TO.P,U2,2,A16*%
%TO.N,/A16_V62*%
X125588500Y-104723000D03*
%TO.P,U2,3,A14*%
%TO.N,/A14_V62*%
X126858500Y-104723000D03*
%TO.P,U2,4,A12*%
%TO.N,/A12_V62*%
X128163500Y-104720000D03*
%TO.P,U2,5,A7*%
%TO.N,/A7*%
X129438500Y-104720000D03*
%TO.P,U2,6,A6*%
%TO.N,/A6*%
X130703500Y-104720000D03*
%TO.P,U2,7,A5*%
%TO.N,/A5*%
X131978500Y-104720000D03*
%TO.P,U2,8,A4*%
%TO.N,/A4*%
X133249500Y-104720000D03*
%TO.P,U2,9,A3*%
%TO.N,/A3*%
X134554500Y-104720000D03*
%TO.P,U2,10,A2*%
%TO.N,/A2*%
X135825500Y-104720000D03*
%TO.P,U2,11,A1*%
%TO.N,/A1*%
X137053500Y-104720000D03*
%TO.P,U2,12,A0*%
%TO.N,/A0*%
X138360500Y-104720000D03*
%TO.P,U2,13,I/O_0*%
%TO.N,/D0*%
X139641500Y-104720000D03*
%TO.P,U2,14,I/O_1*%
%TO.N,/D1*%
X140907500Y-104719000D03*
%TO.P,U2,15,I/O_2*%
%TO.N,/D2*%
X142172500Y-104719000D03*
%TO.P,U2,16,GND*%
%TO.N,/GND*%
X143480500Y-104719000D03*
%TO.P,U2,17,I/O_3*%
%TO.N,/D3*%
X143522500Y-93089000D03*
%TO.P,U2,18,I/O_4*%
%TO.N,/D4*%
X142216500Y-93087000D03*
%TO.P,U2,19,I/O_5*%
%TO.N,/D5*%
X140941500Y-93100000D03*
%TO.P,U2,20,I/O_6*%
%TO.N,/D6*%
X139676500Y-93090000D03*
%TO.P,U2,21,I/O_7*%
%TO.N,/D7*%
X138401500Y-93094000D03*
%TO.P,U2,22,CE_1*%
%TO.N,/CE_V62*%
X137099500Y-93094000D03*
%TO.P,U2,23,A10*%
%TO.N,/A10*%
X135866500Y-93094000D03*
%TO.P,U2,24,OE*%
%TO.N,/OE_V62*%
X134590500Y-93094000D03*
%TO.P,U2,25,A11*%
%TO.N,/A11*%
X133288500Y-93091000D03*
%TO.P,U2,26,A9*%
%TO.N,/A9*%
X132017500Y-93091000D03*
%TO.P,U2,27,A8*%
%TO.N,/A8*%
X130744500Y-93093000D03*
%TO.P,U2,28,A13*%
%TO.N,/A13_V62*%
X129474500Y-93093000D03*
%TO.P,U2,29,WE*%
%TO.N,/WE*%
X128210500Y-93093000D03*
%TO.P,U2,30,CE_2*%
%TO.N,/VCC*%
X126899500Y-93093000D03*
%TO.P,U2,31,A15*%
%TO.N,/A15_V62*%
X125621500Y-93094000D03*
%TO.P,U2,32,VCC*%
%TO.N,/VCC*%
X124356500Y-93094000D03*
%TD*%
D18*
%TO.P,C1,1*%
%TO.N,/GND*%
X122415000Y-110053000D03*
%TO.P,C1,2*%
%TO.N,/VCC*%
X122424000Y-113184000D03*
%TD*%
D19*
%TO.P,J1,1,+5V*%
%TO.N,/VCC*%
X122965484Y-139372200D03*
D20*
%TO.P,J1,2,Clock*%
%TO.N,/Clk*%
X124715742Y-139247200D03*
%TO.P,J1,3,Write*%
%TO.N,/Wr_Sys*%
X126216000Y-139247200D03*
%TO.P,J1,4,Read*%
%TO.N,/Rd_Sys*%
X127716258Y-139247200D03*
%TO.P,J1,5,CS*%
%TO.N,/CS*%
X129216516Y-139247200D03*
%TO.P,J1,6,A0*%
%TO.N,/A0*%
X130716774Y-139247200D03*
%TO.P,J1,7,A1*%
%TO.N,/A1*%
X132217032Y-139247200D03*
%TO.P,J1,8,A2*%
%TO.N,/A2*%
X133717290Y-139247200D03*
%TO.P,J1,9,A3*%
%TO.N,/A3*%
X135217548Y-139247200D03*
%TO.P,J1,10,A4*%
%TO.N,/A4*%
X136717806Y-139247200D03*
%TO.P,J1,11,A5*%
%TO.N,/A5*%
X138218064Y-139247200D03*
%TO.P,J1,12,A6*%
%TO.N,/A6*%
X139718322Y-139247200D03*
%TO.P,J1,13,A7*%
%TO.N,/A7*%
X141218580Y-139247200D03*
%TO.P,J1,14,A8*%
%TO.N,/A8*%
X142718838Y-139247200D03*
%TO.P,J1,15,A9*%
%TO.N,/A9*%
X144219096Y-139247200D03*
%TO.P,J1,16,A10*%
%TO.N,/A10*%
X145719354Y-139247200D03*
%TO.P,J1,17,A11*%
%TO.N,/A11*%
X147219612Y-139247200D03*
%TO.P,J1,18,A12*%
%TO.N,/A12*%
X148719870Y-139247200D03*
%TO.P,J1,19,A13*%
%TO.N,/A13*%
X150220128Y-139247200D03*
%TO.P,J1,20,A14*%
%TO.N,/A14*%
X151720386Y-139247200D03*
%TO.P,J1,21,A15*%
%TO.N,/A15_Sys*%
X153220644Y-139247200D03*
%TO.P,J1,22,Data_0*%
%TO.N,/D0*%
X154720902Y-139247200D03*
%TO.P,J1,23,Data_1*%
%TO.N,/D1*%
X156221160Y-139247200D03*
%TO.P,J1,24,Data_2*%
%TO.N,/D2*%
X157721418Y-139247200D03*
%TO.P,J1,25,Data_3*%
%TO.N,/D3*%
X159221676Y-139247200D03*
%TO.P,J1,26,Data_4*%
%TO.N,/D4*%
X160721934Y-139247200D03*
%TO.P,J1,27,Data_5*%
%TO.N,/D5*%
X162222192Y-139247200D03*
%TO.P,J1,28,Data_6*%
%TO.N,/D6*%
X163722450Y-139247200D03*
%TO.P,J1,29,Data_7*%
%TO.N,/D7*%
X165222708Y-139247200D03*
%TO.P,J1,30,Reset*%
%TO.N,/Reset*%
X166722966Y-139247200D03*
%TO.P,J1,31,Audio*%
%TO.N,/Audio*%
X168223224Y-139247200D03*
D19*
%TO.P,J1,32,GND*%
%TO.N,/GND*%
X169973484Y-139372200D03*
%TD*%
D18*
%TO.P,R2,1*%
%TO.N,/Button*%
X154384000Y-57833000D03*
%TO.P,R2,2*%
%TO.N,/VCC*%
X157515000Y-57824000D03*
%TD*%
D21*
%TO.P,SW1,1,1*%
%TO.N,unconnected-(SW1-Pad1)*%
X143279000Y-57730000D03*
%TO.P,SW1,2,2*%
%TO.N,/GND*%
X144552000Y-55587000D03*
%TO.P,SW1,3,3*%
%TO.N,/Button*%
X149003000Y-55547000D03*
%TO.P,SW1,4,4*%
%TO.N,unconnected-(SW1-Pad4)*%
X150309000Y-57730000D03*
%TD*%
D18*
%TO.P,C3,1*%
%TO.N,/GND*%
X128968000Y-65551000D03*
%TO.P,C3,2*%
%TO.N,/Button*%
X132099000Y-65542000D03*
%TD*%
%TO.P,I1,1*%
%TO.N,/Ind1*%
X163189000Y-93228000D03*
%TO.P,I1,2*%
%TO.N,/Ind2*%
X160058000Y-93237000D03*
%TD*%
D22*
%TO.P,J3,1,A*%
%TO.N,unconnected-(J3-Pad1)*%
X125709000Y-61703000D03*
%TO.P,J3,2,B*%
%TO.N,/Switch*%
X128682000Y-61706000D03*
%TO.P,J3,3,C*%
%TO.N,/GND*%
X131585000Y-61705000D03*
%TO.P,J3,4*%
%TO.N,N/C*%
X122252000Y-61705000D03*
%TO.P,J3,5*%
X135034000Y-61707000D03*
%TD*%
D18*
%TO.P,R1,1*%
%TO.N,/Switch*%
X126313500Y-65553500D03*
%TO.P,R1,2*%
%TO.N,/VCC*%
X123182500Y-65562500D03*
%TD*%
D23*
%TO.P,U1,1,N/C*%
%TO.N,/VCC*%
X131994000Y-126465000D03*
%TO.P,U1,2,A16*%
%TO.N,/A16_SST*%
X133266000Y-126467000D03*
%TO.P,U1,3,A15*%
%TO.N,/A15_SST*%
X134535000Y-126466000D03*
%TO.P,U1,4,A12*%
%TO.N,/A12*%
X135805000Y-126466000D03*
D24*
%TO.P,U1,5,A7*%
%TO.N,/A7*%
X137695000Y-124645000D03*
%TO.P,U1,6,A6*%
%TO.N,/A6*%
X137695000Y-123376000D03*
%TO.P,U1,7,A5*%
%TO.N,/A5*%
X137693000Y-122105000D03*
%TO.P,U1,8,A4*%
%TO.N,/A4*%
X137694000Y-120835000D03*
%TO.P,U1,9,A3*%
%TO.N,/A3*%
X137695000Y-119569000D03*
%TO.P,U1,10,A2*%
%TO.N,/A2*%
X137696000Y-118296000D03*
%TO.P,U1,11,A1*%
%TO.N,/A1*%
X137694000Y-117025000D03*
%TO.P,U1,12,A0*%
%TO.N,/A0*%
X137696000Y-115758000D03*
%TO.P,U1,13,DQ0*%
%TO.N,/D0*%
X137693000Y-114488000D03*
D23*
%TO.P,U1,14,DQ1*%
%TO.N,/D1*%
X135802000Y-112664000D03*
%TO.P,U1,15,DQ2*%
%TO.N,/D2*%
X134533000Y-112667000D03*
%TO.P,U1,16,GND*%
%TO.N,/GND*%
X133264000Y-112663000D03*
%TO.P,U1,17,DQ3*%
%TO.N,/D3*%
X131995000Y-112664000D03*
%TO.P,U1,18,DQ4*%
%TO.N,/D4*%
X130727000Y-112664000D03*
%TO.P,U1,19,DQ5*%
%TO.N,/D5*%
X129454000Y-112663000D03*
%TO.P,U1,20,DQ6*%
%TO.N,/D6*%
X128183000Y-112664000D03*
D24*
%TO.P,U1,21,DQ7*%
%TO.N,/D7*%
X126293000Y-114482000D03*
%TO.P,U1,22,CE#*%
%TO.N,/CE_SST*%
X126293000Y-115758000D03*
%TO.P,U1,23,A10*%
%TO.N,/A10*%
X126293000Y-117023000D03*
%TO.P,U1,24,OE#*%
%TO.N,/Rd_Sys*%
X126297000Y-118299000D03*
%TO.P,U1,25,A11*%
%TO.N,/A11*%
X126292000Y-119563000D03*
%TO.P,U1,26,A9*%
%TO.N,/A9*%
X126299000Y-120836000D03*
%TO.P,U1,27,A8*%
%TO.N,/A8*%
X126298000Y-122104000D03*
%TO.P,U1,28,A13*%
%TO.N,/A13_SST*%
X126298000Y-123376000D03*
%TO.P,U1,29,A14*%
%TO.N,/A14_SST*%
X126297000Y-124647000D03*
D23*
%TO.P,U1,30,N/C*%
%TO.N,/VCC*%
X128185000Y-126463000D03*
%TO.P,U1,31,WE#*%
%TO.N,/WE*%
X129453000Y-126463000D03*
%TO.P,U1,32,VCC*%
%TO.N,/VCC*%
X130725000Y-126468000D03*
%TD*%
D18*
%TO.P,C2,1*%
%TO.N,/GND*%
X163207000Y-123412000D03*
%TO.P,C2,2*%
%TO.N,/VCC*%
X160076000Y-123421000D03*
%TD*%
D25*
%TO.N,/Audio*%
X154443600Y-114304400D03*
%TO.N,/CS*%
X129216500Y-135138000D03*
X121572700Y-108403900D03*
%TO.N,/Clk*%
X137606100Y-126093200D03*
%TO.N,/OE_V62*%
X134590500Y-90773400D03*
X164627700Y-93174800D03*
%TO.N,/WE*%
X128262800Y-97092700D03*
X155640500Y-109136800D03*
X125334900Y-127938100D03*
%TO.N,/A16_V62*%
X128367100Y-90638800D03*
X164196100Y-98081000D03*
%TO.N,/A15_V62*%
X127930400Y-89509000D03*
X165270000Y-94211300D03*
%TO.N,/A14_V62*%
X135665100Y-89026800D03*
X165857700Y-91728000D03*
%TO.N,/A13_V62*%
X130084200Y-90456800D03*
X166648700Y-98098700D03*
%TO.N,/A12_V62*%
X133753200Y-95851200D03*
X160423900Y-107126300D03*
%TO.N,/BC847C*%
X169036100Y-98165600D03*
X168278100Y-101321400D03*
%TO.N,/A16_SST*%
X134006100Y-120469900D03*
X168227100Y-102387100D03*
%TO.N,/A15_SST*%
X136838900Y-127809800D03*
X162670600Y-117320900D03*
%TO.N,/A14_SST*%
X165232800Y-111289100D03*
X131789600Y-123760400D03*
%TO.N,/A13_SST*%
X132821400Y-119750300D03*
X168279700Y-105447200D03*
%TO.N,/A15_Sys*%
X152767700Y-129531700D03*
X166151600Y-116147800D03*
%TO.N,/A14*%
X152344900Y-134555200D03*
X172827900Y-108458900D03*
%TO.N,/A13*%
X171988100Y-111588200D03*
X150220100Y-133448200D03*
%TO.N,/A12*%
X134937600Y-124025200D03*
X142550800Y-122371200D03*
X167909200Y-108932000D03*
X161479100Y-81683000D03*
%TO.N,/A11*%
X168214100Y-112234400D03*
X147219600Y-133274900D03*
X133288500Y-86343400D03*
X130439800Y-120036900D03*
%TO.N,/A10*%
X145365600Y-134105100D03*
X136390200Y-84534100D03*
X171753300Y-113139300D03*
X128408200Y-122475200D03*
%TO.N,/A9*%
X124547400Y-120908300D03*
X128222000Y-100019600D03*
X144133800Y-134557700D03*
X171789100Y-114161900D03*
X132516400Y-88770600D03*
%TO.N,/A8*%
X130825800Y-89760200D03*
X124575400Y-124018200D03*
X142718800Y-135282900D03*
X172207100Y-116370500D03*
%TO.N,/A7*%
X130721000Y-101182200D03*
X140643300Y-134941900D03*
X171470100Y-118404500D03*
X137631300Y-86358500D03*
X136014800Y-134911700D03*
%TO.N,/A6*%
X139136500Y-85883300D03*
X130268200Y-116569200D03*
X130597800Y-107737700D03*
X139718300Y-135644000D03*
X169349600Y-120458400D03*
X138799300Y-133187100D03*
%TO.N,/A5*%
X135155800Y-117754800D03*
X132189400Y-107522100D03*
X140485900Y-117339100D03*
X141768200Y-127095300D03*
X166792600Y-115036700D03*
%TO.N,/A4*%
X135940200Y-120404100D03*
X140591400Y-120139800D03*
X141579000Y-88025000D03*
X163801600Y-112138500D03*
X131947200Y-109520800D03*
%TO.N,/A3*%
X135932600Y-117029600D03*
X134684600Y-108789600D03*
X163684100Y-108378400D03*
%TO.N,/A2*%
X140489900Y-124260300D03*
X138865700Y-126008500D03*
X163978400Y-116577700D03*
X156500800Y-93579300D03*
X141193800Y-97368600D03*
%TO.N,/A1*%
X163079400Y-109621900D03*
X137053500Y-107037700D03*
X139449400Y-117548500D03*
X133378300Y-132866100D03*
%TO.N,/A0*%
X161927400Y-117992100D03*
X141911100Y-125526800D03*
X162124200Y-107795200D03*
X141266400Y-98382600D03*
X138415600Y-127462600D03*
X157239800Y-94615800D03*
%TO.N,/A15_Game*%
X155351100Y-113579300D03*
%TO.N,/Button*%
X155168700Y-115304600D03*
%TO.N,/Wr_Sys*%
X132748800Y-128825200D03*
X151069900Y-119630600D03*
%TO.N,/Switch*%
X149892900Y-113483700D03*
%TO.N,/Reset*%
X150268300Y-111768500D03*
%TO.N,/Rd_Sys*%
X132782000Y-130399500D03*
X149742800Y-119563200D03*
X128904100Y-120483300D03*
%TO.N,/Rd_Game*%
X158043200Y-93494500D03*
X158715400Y-104004100D03*
%TO.N,/CE_V62*%
X136549500Y-95515200D03*
X150773500Y-109842900D03*
%TO.N,/CE_SST*%
X135390700Y-115994700D03*
X148826100Y-115841100D03*
%TO.N,/GND*%
X124167200Y-110207000D03*
X130948500Y-115147900D03*
X144417800Y-105427100D03*
X150771700Y-108272200D03*
X160481800Y-110946200D03*
%TO.N,/D7*%
X128099600Y-109267700D03*
X148168800Y-115083900D03*
X132229600Y-100450800D03*
%TO.N,/D6*%
X139687300Y-73229200D03*
%TO.N,/D5*%
X138079300Y-72746300D03*
%TO.N,/D4*%
X147841600Y-107146800D03*
X138041400Y-99687200D03*
%TO.N,/D3*%
X149154700Y-104014200D03*
X140001000Y-100699900D03*
%TO.N,/D1*%
X145402800Y-101311500D03*
X147851800Y-100625100D03*
X141030100Y-101214900D03*
%TO.N,/D0*%
X139471900Y-114488000D03*
X139641500Y-109227400D03*
X144126800Y-87857700D03*
X167326200Y-91177100D03*
X151069900Y-87664900D03*
%TD*%
D26*
%TO.N,/Audio*%
X168223200Y-139247200D02*
X168223200Y-135922100D01*
X154443600Y-122142500D02*
X154443600Y-114304400D01*
X168223200Y-135922100D02*
X154443600Y-122142500D01*
%TO.N,/CS*%
X129216500Y-139247200D02*
X129216500Y-135138000D01*
X121572700Y-71297000D02*
X121572700Y-108403900D01*
X124641300Y-68228400D02*
X121572700Y-71297000D01*
X162938200Y-68228400D02*
X124641300Y-68228400D01*
X164230800Y-69521000D02*
X162938200Y-68228400D01*
%TO.N,/Clk*%
X137606100Y-128136900D02*
X137606100Y-126093200D01*
X137179800Y-128563200D02*
X137606100Y-128136900D01*
X134118400Y-128563200D02*
X137179800Y-128563200D01*
X133609700Y-128054500D02*
X134118400Y-128563200D01*
X132468700Y-128054500D02*
X133609700Y-128054500D01*
X124715700Y-135807500D02*
X132468700Y-128054500D01*
X124715700Y-139247200D02*
X124715700Y-135807500D01*
%TO.N,/Ind2*%
X159556200Y-94898900D02*
X159270000Y-94898900D01*
X160058000Y-94397100D02*
X159556200Y-94898900D01*
X160058000Y-93237000D02*
X160058000Y-94397100D01*
X159270000Y-96349000D02*
X159270000Y-94898900D01*
%TO.N,/Ind1*%
X161780800Y-94388100D02*
X161270000Y-94898900D01*
X163189000Y-94388100D02*
X161780800Y-94388100D01*
X163189000Y-93228000D02*
X163189000Y-94388100D01*
X161270000Y-96349000D02*
X161270000Y-94898900D01*
%TO.N,/OE_V62*%
X162270000Y-96349000D02*
X162270000Y-94898900D01*
X134590500Y-93094000D02*
X134590500Y-91058900D01*
X163694000Y-94898900D02*
X162270000Y-94898900D01*
X164487500Y-94105400D02*
X163694000Y-94898900D01*
X164487500Y-93315000D02*
X164487500Y-94105400D01*
X164627700Y-93174800D02*
X164487500Y-93315000D01*
X134590500Y-91058900D02*
X134590500Y-90773400D01*
%TO.N,/WE*%
X128210500Y-97040400D02*
X128210500Y-93093000D01*
X128262800Y-97092700D02*
X128210500Y-97040400D01*
X129453000Y-126463000D02*
X129453000Y-127938100D01*
X163270000Y-101507300D02*
X155640500Y-109136800D01*
X163270000Y-96349000D02*
X163270000Y-101507300D01*
X129453000Y-127938100D02*
X125334900Y-127938100D01*
%TO.N,/A16_V62*%
X164270000Y-96349000D02*
X164270000Y-97799100D01*
X164196100Y-97873000D02*
X164196100Y-98081000D01*
X164270000Y-97799100D02*
X164196100Y-97873000D01*
X128130200Y-90638800D02*
X128367100Y-90638800D01*
X127524600Y-91244400D02*
X128130200Y-90638800D01*
X127524600Y-97193500D02*
X127524600Y-91244400D01*
X125588500Y-99129600D02*
X127524600Y-97193500D01*
X125588500Y-104723000D02*
X125588500Y-99129600D01*
%TO.N,/A15_V62*%
X125621500Y-93094000D02*
X125621500Y-91058900D01*
X127171400Y-89509000D02*
X127930400Y-89509000D01*
X125621500Y-91058900D02*
X127171400Y-89509000D01*
X165270000Y-94211300D02*
X165270000Y-96349000D01*
%TO.N,/A14_V62*%
X166270000Y-96349000D02*
X166270000Y-94898900D01*
X126858500Y-100323800D02*
X126858500Y-104723000D01*
X131369700Y-95812600D02*
X126858500Y-100323800D01*
X131369700Y-91126100D02*
X131369700Y-95812600D01*
X131791300Y-90704500D02*
X131369700Y-91126100D01*
X131791300Y-86759900D02*
X131791300Y-90704500D01*
X132940100Y-85611100D02*
X131791300Y-86759900D01*
X133606000Y-85611100D02*
X132940100Y-85611100D01*
X135665100Y-87670200D02*
X133606000Y-85611100D01*
X135665100Y-89026800D02*
X135665100Y-87670200D01*
X165995200Y-94624100D02*
X166270000Y-94898900D01*
X165995200Y-91865500D02*
X165995200Y-94624100D01*
X165857700Y-91728000D02*
X165995200Y-91865500D01*
%TO.N,/A13_V62*%
X129474500Y-93093000D02*
X129474500Y-91057900D01*
X130075600Y-90456800D02*
X130084200Y-90456800D01*
X129474500Y-91057900D02*
X130075600Y-90456800D01*
X166948300Y-97799100D02*
X166648700Y-98098700D01*
X167270000Y-97799100D02*
X166948300Y-97799100D01*
X167270000Y-96349000D02*
X167270000Y-97799100D01*
%TO.N,/A12_V62*%
X128163500Y-104720000D02*
X128163500Y-102684900D01*
X170020000Y-99099000D02*
X168569900Y-99099000D01*
X133753200Y-96364200D02*
X133753200Y-95851200D01*
X128163500Y-101953900D02*
X133753200Y-96364200D01*
X128163500Y-102684900D02*
X128163500Y-101953900D01*
X168451200Y-99099000D02*
X160423900Y-107126300D01*
X168569900Y-99099000D02*
X168451200Y-99099000D01*
%TO.N,/BC847C*%
X169036100Y-94581600D02*
X169036100Y-98165600D01*
X167791000Y-93336500D02*
X169036100Y-94581600D01*
X168500500Y-101099000D02*
X170020000Y-101099000D01*
X168278100Y-101321400D02*
X168500500Y-101099000D01*
%TO.N,/A16_SST*%
X133266000Y-121210000D02*
X134006100Y-120469900D01*
X133266000Y-126467000D02*
X133266000Y-121210000D01*
X170020000Y-102099000D02*
X168569900Y-102099000D01*
X168281800Y-102387100D02*
X168569900Y-102099000D01*
X168227100Y-102387100D02*
X168281800Y-102387100D01*
%TO.N,/A15_SST*%
X134535000Y-126466000D02*
X134535000Y-127941100D01*
X136707600Y-127941100D02*
X136838900Y-127809800D01*
X134535000Y-127941100D02*
X136707600Y-127941100D01*
X170020000Y-103099000D02*
X168569900Y-103099000D01*
X162176300Y-116826600D02*
X162670600Y-117320900D01*
X162176300Y-110911900D02*
X162176300Y-116826600D01*
X162354300Y-110733900D02*
X162176300Y-110911900D01*
X162354300Y-108605500D02*
X162354300Y-110733900D01*
X163512900Y-107446900D02*
X162354300Y-108605500D01*
X164222000Y-107446900D02*
X163512900Y-107446900D01*
X168569900Y-103099000D02*
X164222000Y-107446900D01*
%TO.N,/A14_SST*%
X126297000Y-124647000D02*
X127772100Y-124647000D01*
X170020000Y-104099000D02*
X168569900Y-104099000D01*
X131346700Y-124203300D02*
X131789600Y-123760400D01*
X128215800Y-124203300D02*
X131346700Y-124203300D01*
X127772100Y-124647000D02*
X128215800Y-124203300D01*
X165232800Y-107436100D02*
X165232800Y-111289100D01*
X168569900Y-104099000D02*
X165232800Y-107436100D01*
%TO.N,/A13_SST*%
X129195700Y-123376000D02*
X132821400Y-119750300D01*
X126298000Y-123376000D02*
X129195700Y-123376000D01*
X170020000Y-105099000D02*
X168569900Y-105099000D01*
X168569900Y-105157000D02*
X168279700Y-105447200D01*
X168569900Y-105099000D02*
X168569900Y-105157000D01*
%TO.N,/A15_Sys*%
X166054800Y-109614100D02*
X168569900Y-107099000D01*
X166054800Y-116051000D02*
X166054800Y-109614100D01*
X166151600Y-116147800D02*
X166054800Y-116051000D01*
X170020000Y-107099000D02*
X168569900Y-107099000D01*
X153220600Y-129984600D02*
X152767700Y-129531700D01*
X153220600Y-139247200D02*
X153220600Y-129984600D01*
%TO.N,/A14*%
X170020000Y-108099000D02*
X171470100Y-108099000D01*
X151720400Y-139247200D02*
X151720400Y-135922100D01*
X171830000Y-108458900D02*
X172827900Y-108458900D01*
X171470100Y-108099000D02*
X171830000Y-108458900D01*
X152344900Y-135297600D02*
X152344900Y-134555200D01*
X151720400Y-135922100D02*
X152344900Y-135297600D01*
%TO.N,/A13*%
X170020000Y-109099000D02*
X171470100Y-109099000D01*
X171988100Y-109617000D02*
X171988100Y-111588200D01*
X171470100Y-109099000D02*
X171988100Y-109617000D01*
X150220100Y-139247200D02*
X150220100Y-133448200D01*
%TO.N,/A12*%
X135805000Y-126466000D02*
X135805000Y-124990900D01*
X134937600Y-124123500D02*
X135805000Y-124990900D01*
X134937600Y-124025200D02*
X134937600Y-124123500D01*
X170020000Y-110099000D02*
X168569900Y-110099000D01*
X142636200Y-122456600D02*
X142550800Y-122371200D01*
X142636200Y-127666100D02*
X142636200Y-122456600D01*
X148719900Y-133749800D02*
X142636200Y-127666100D01*
X148719900Y-139247200D02*
X148719900Y-133749800D01*
X155320800Y-81683000D02*
X161479100Y-81683000D01*
X144665800Y-71028000D02*
X155320800Y-81683000D01*
X167909300Y-108932000D02*
X167909200Y-108932000D01*
X167909300Y-109438400D02*
X167909300Y-108932000D01*
X168569900Y-110099000D02*
X167909300Y-109438400D01*
%TO.N,/A11*%
X170020000Y-111099000D02*
X168569900Y-111099000D01*
X147219600Y-139247200D02*
X147219600Y-133274900D01*
X168214100Y-111454800D02*
X168214100Y-112234400D01*
X168569900Y-111099000D02*
X168214100Y-111454800D01*
X133288500Y-92073400D02*
X133288500Y-91055900D01*
X133288500Y-92073400D02*
X133288500Y-93091000D01*
X124308600Y-119054700D02*
X124816900Y-119563000D01*
X124308600Y-112718200D02*
X124308600Y-119054700D01*
X126752300Y-110274500D02*
X124308600Y-112718200D01*
X126752300Y-107784400D02*
X126752300Y-110274500D01*
X127511000Y-107025700D02*
X126752300Y-107784400D01*
X127511000Y-101775100D02*
X127511000Y-107025700D01*
X133008700Y-96277400D02*
X127511000Y-101775100D01*
X133008700Y-95405900D02*
X133008700Y-96277400D01*
X133288500Y-95126100D02*
X133008700Y-95405900D01*
X133288500Y-93091000D02*
X133288500Y-95126100D01*
X133288500Y-91055900D02*
X133288500Y-86343400D01*
X125554500Y-119563000D02*
X124816900Y-119563000D01*
X125554500Y-119563000D02*
X126292000Y-119563000D01*
X126292000Y-119563000D02*
X127767100Y-119563000D01*
X129268300Y-121208400D02*
X130439800Y-120036900D01*
X128510300Y-121208400D02*
X129268300Y-121208400D01*
X127791800Y-120489900D02*
X128510300Y-121208400D01*
X127791800Y-119587700D02*
X127791800Y-120489900D01*
X127767100Y-119563000D02*
X127791800Y-119587700D01*
%TO.N,/A10*%
X145719400Y-139247200D02*
X145719400Y-135922100D01*
X135866500Y-93094000D02*
X135866500Y-91058900D01*
X170020000Y-112099000D02*
X171470100Y-112099000D01*
X171470100Y-112856100D02*
X171753300Y-113139300D01*
X171470100Y-112099000D02*
X171470100Y-112856100D01*
X145365600Y-135568300D02*
X145365600Y-134105100D01*
X145719400Y-135922100D02*
X145365600Y-135568300D01*
X135866500Y-93094000D02*
X135866500Y-95129100D01*
X135748400Y-95129100D02*
X135866500Y-95129100D01*
X128812800Y-102064700D02*
X135748400Y-95129100D01*
X128812800Y-107518800D02*
X128812800Y-102064700D01*
X127202500Y-109129100D02*
X128812800Y-107518800D01*
X127202500Y-110460800D02*
X127202500Y-109129100D01*
X124817900Y-112845400D02*
X127202500Y-110460800D01*
X124817900Y-117023000D02*
X124817900Y-112845400D01*
X136390200Y-90535200D02*
X136390200Y-84534100D01*
X135866500Y-91058900D02*
X136390200Y-90535200D01*
X125555500Y-117023000D02*
X124817900Y-117023000D01*
X125555500Y-117023000D02*
X126293000Y-117023000D01*
X129100700Y-122475200D02*
X128408200Y-122475200D01*
X131165000Y-120410900D02*
X129100700Y-122475200D01*
X131165000Y-119736400D02*
X131165000Y-120410900D01*
X128451600Y-117023000D02*
X131165000Y-119736400D01*
X126293000Y-117023000D02*
X128451600Y-117023000D01*
%TO.N,/A9*%
X124619700Y-120836000D02*
X124547400Y-120908300D01*
X126299000Y-120836000D02*
X124619700Y-120836000D01*
X132017500Y-96224100D02*
X128222000Y-100019600D01*
X132017500Y-95126100D02*
X132017500Y-96224100D01*
X144219100Y-139247200D02*
X144219100Y-135922100D01*
X170020000Y-114099000D02*
X171470100Y-114099000D01*
X171533000Y-114161900D02*
X171789100Y-114161900D01*
X171470100Y-114099000D02*
X171533000Y-114161900D01*
X144219100Y-134643000D02*
X144133800Y-134557700D01*
X144219100Y-135922100D02*
X144219100Y-134643000D01*
X132017500Y-94108500D02*
X132017500Y-95126100D01*
X132017500Y-94108500D02*
X132017500Y-93091000D01*
X132516400Y-92592100D02*
X132017500Y-93091000D01*
X132516400Y-88770600D02*
X132516400Y-92592100D01*
%TO.N,/A8*%
X126298000Y-122104000D02*
X124822900Y-122104000D01*
X130744500Y-93093000D02*
X130744500Y-91057900D01*
X130825800Y-90976600D02*
X130825800Y-89760200D01*
X130744500Y-91057900D02*
X130825800Y-90976600D01*
X124669300Y-122104000D02*
X124822900Y-122104000D01*
X142718800Y-139247200D02*
X142718800Y-135922100D01*
X124669300Y-123924300D02*
X124575400Y-124018200D01*
X124669300Y-122104000D02*
X124669300Y-123924300D01*
X170020000Y-115099000D02*
X171470100Y-115099000D01*
X171470100Y-115633500D02*
X172207100Y-116370500D01*
X171470100Y-115099000D02*
X171470100Y-115633500D01*
X142718800Y-135922100D02*
X142718800Y-135282900D01*
X123799200Y-121233900D02*
X124669300Y-122104000D01*
X123799200Y-112590900D02*
X123799200Y-121233900D01*
X126233300Y-110156800D02*
X123799200Y-112590900D01*
X126233300Y-100171300D02*
X126233300Y-110156800D01*
X130744500Y-95660100D02*
X126233300Y-100171300D01*
X130744500Y-93093000D02*
X130744500Y-95660100D01*
%TO.N,/A7*%
X171470100Y-116608100D02*
X171470100Y-118404500D01*
X170961000Y-116099000D02*
X171470100Y-116608100D01*
X170020000Y-116099000D02*
X170961000Y-116099000D01*
X137695000Y-124645000D02*
X139170100Y-124645000D01*
X141218600Y-135517200D02*
X140643300Y-134941900D01*
X141218600Y-139247200D02*
X141218600Y-135517200D01*
X136014800Y-132858800D02*
X136014800Y-134911700D01*
X139590900Y-129282700D02*
X136014800Y-132858800D01*
X139590900Y-125702300D02*
X139590900Y-129282700D01*
X139170100Y-125281500D02*
X139590900Y-125702300D01*
X139170100Y-124645000D02*
X139170100Y-125281500D01*
X130721000Y-100908000D02*
X130721000Y-101182200D01*
X135376400Y-96252600D02*
X130721000Y-100908000D01*
X136837700Y-96252600D02*
X135376400Y-96252600D01*
X137724700Y-95365600D02*
X136837700Y-96252600D01*
X137724700Y-86451900D02*
X137724700Y-95365600D01*
X137631300Y-86358500D02*
X137724700Y-86451900D01*
X129438500Y-102464700D02*
X130721000Y-101182200D01*
X129438500Y-104720000D02*
X129438500Y-102464700D01*
%TO.N,/A6*%
X137695000Y-123376000D02*
X136219900Y-123376000D01*
X130703500Y-104720000D02*
X130703500Y-102684900D01*
X169349600Y-117769400D02*
X170020000Y-117099000D01*
X169349600Y-120458400D02*
X169349600Y-117769400D01*
X139718300Y-135644000D02*
X139718300Y-139247200D01*
X139039000Y-85980800D02*
X139136500Y-85883300D01*
X139039000Y-95343400D02*
X139039000Y-85980800D01*
X136779600Y-97602800D02*
X139039000Y-95343400D01*
X136103000Y-97602800D02*
X136779600Y-97602800D01*
X132257400Y-101448400D02*
X136103000Y-97602800D01*
X131940000Y-101448400D02*
X132257400Y-101448400D01*
X130703500Y-102684900D02*
X131940000Y-101448400D01*
X130703500Y-107632000D02*
X130597800Y-107737700D01*
X130703500Y-104720000D02*
X130703500Y-107632000D01*
X131591700Y-116569200D02*
X130268200Y-116569200D01*
X134731200Y-119708700D02*
X131591700Y-116569200D01*
X134731200Y-121887300D02*
X134731200Y-119708700D01*
X136219900Y-123376000D02*
X134731200Y-121887300D01*
X138862800Y-134788500D02*
X139718300Y-135644000D01*
X138862800Y-133250500D02*
X138862800Y-134788500D01*
X138862700Y-133250500D02*
X138862800Y-133250500D01*
X138799300Y-133187100D02*
X138862700Y-133250500D01*
%TO.N,/A5*%
X138218100Y-139247200D02*
X138218100Y-135922100D01*
X136955500Y-122105000D02*
X136217900Y-122105000D01*
X136955500Y-122105000D02*
X137693000Y-122105000D01*
X167270000Y-119849000D02*
X167270000Y-118398900D01*
X141124500Y-127095300D02*
X141768200Y-127095300D01*
X131978500Y-107311200D02*
X132189400Y-107522100D01*
X131978500Y-104720000D02*
X131978500Y-107311200D01*
X167270000Y-115514100D02*
X166792600Y-115036700D01*
X167270000Y-118398900D02*
X167270000Y-115514100D01*
X135181300Y-117780300D02*
X135155800Y-117754800D01*
X135181300Y-121068400D02*
X135181300Y-117780300D01*
X136217900Y-122105000D02*
X135181300Y-121068400D01*
X141349300Y-118202500D02*
X140485900Y-117339100D01*
X141349300Y-123457600D02*
X141349300Y-118202500D01*
X141665100Y-123773400D02*
X141349300Y-123457600D01*
X141665100Y-124747200D02*
X141665100Y-123773400D01*
X141124500Y-125287800D02*
X141665100Y-124747200D01*
X141124500Y-127095300D02*
X141124500Y-125287800D01*
X138074200Y-135778200D02*
X138218100Y-135922100D01*
X138074200Y-132886800D02*
X138074200Y-135778200D01*
X141124500Y-129836500D02*
X138074200Y-132886800D01*
X141124500Y-127095300D02*
X141124500Y-129836500D01*
%TO.N,/A4*%
X137694000Y-120835000D02*
X136218900Y-120835000D01*
X136717800Y-139247200D02*
X136717800Y-135922100D01*
X141579000Y-95024100D02*
X141579000Y-88025000D01*
X137649900Y-98953200D02*
X141579000Y-95024100D01*
X137121700Y-98953200D02*
X137649900Y-98953200D01*
X133249500Y-102825400D02*
X137121700Y-98953200D01*
X133249500Y-104720000D02*
X133249500Y-102825400D01*
X135940200Y-120556300D02*
X135940200Y-120404100D01*
X136218900Y-120835000D02*
X135940200Y-120556300D01*
X166270000Y-118063400D02*
X166270000Y-119849000D01*
X165270000Y-117063400D02*
X166270000Y-118063400D01*
X165270000Y-113606900D02*
X165270000Y-117063400D01*
X163801600Y-112138500D02*
X165270000Y-113606900D01*
X133424500Y-106930100D02*
X133249500Y-106755100D01*
X133424500Y-108043500D02*
X133424500Y-106930100D01*
X131947200Y-109520800D02*
X133424500Y-108043500D01*
X133249500Y-104720000D02*
X133249500Y-106755100D01*
X140591400Y-123336400D02*
X140591400Y-120139800D01*
X141215000Y-123960000D02*
X140591400Y-123336400D01*
X141215000Y-124560700D02*
X141215000Y-123960000D01*
X140603900Y-125171800D02*
X141215000Y-124560700D01*
X140603900Y-129599500D02*
X140603900Y-125171800D01*
X137190000Y-133013400D02*
X140603900Y-129599500D01*
X137190000Y-135449900D02*
X137190000Y-133013400D01*
X136717800Y-135922100D02*
X137190000Y-135449900D01*
%TO.N,/A3*%
X135932600Y-119281700D02*
X135932600Y-117029600D01*
X136219900Y-119569000D02*
X135932600Y-119281700D01*
X134684600Y-106885200D02*
X134554500Y-106755100D01*
X134684600Y-108789600D02*
X134684600Y-106885200D01*
X134554500Y-104720000D02*
X134554500Y-106755100D01*
X136957500Y-119569000D02*
X136219900Y-119569000D01*
X136957500Y-119569000D02*
X137695000Y-119569000D01*
X137695000Y-119569000D02*
X139170100Y-119569000D01*
X135217500Y-139247200D02*
X135217500Y-135922100D01*
X139170100Y-123891300D02*
X139170100Y-119569000D01*
X139764600Y-124485800D02*
X139170100Y-123891300D01*
X139764600Y-125239500D02*
X139764600Y-124485800D01*
X140041000Y-125515900D02*
X139764600Y-125239500D01*
X140041000Y-129469200D02*
X140041000Y-125515900D01*
X136739900Y-132770300D02*
X140041000Y-129469200D01*
X136739900Y-135212100D02*
X136739900Y-132770300D01*
X136029900Y-135922100D02*
X136739900Y-135212100D01*
X135217500Y-135922100D02*
X136029900Y-135922100D01*
X163874500Y-108568800D02*
X163684100Y-108378400D01*
X163874500Y-110711800D02*
X163874500Y-108568800D01*
X163076500Y-111509800D02*
X163874500Y-110711800D01*
X163076500Y-112526000D02*
X163076500Y-111509800D01*
X164763700Y-114213200D02*
X163076500Y-112526000D01*
X164763700Y-117571300D02*
X164763700Y-114213200D01*
X165270000Y-118077600D02*
X164763700Y-117571300D01*
X165270000Y-119849000D02*
X165270000Y-118077600D01*
%TO.N,/A2*%
X137696000Y-118296000D02*
X139171100Y-118296000D01*
X139842200Y-123612600D02*
X140489900Y-124260300D01*
X139842200Y-118967000D02*
X139842200Y-123612600D01*
X139842100Y-118967000D02*
X139842200Y-118967000D01*
X139171100Y-118296000D02*
X139842100Y-118967000D01*
X135825500Y-104720000D02*
X135825500Y-102684900D01*
X136075200Y-102684900D02*
X135825500Y-102684900D01*
X139776100Y-98984000D02*
X136075200Y-102684900D01*
X139776100Y-98786300D02*
X139776100Y-98984000D01*
X141193800Y-97368600D02*
X139776100Y-98786300D01*
X164270000Y-116869300D02*
X163978400Y-116577700D01*
X164270000Y-119849000D02*
X164270000Y-116869300D01*
X139140800Y-126283600D02*
X138865700Y-126008500D01*
X139140800Y-128621400D02*
X139140800Y-126283600D01*
X133717300Y-134044900D02*
X139140800Y-128621400D01*
X133717300Y-139247200D02*
X133717300Y-134044900D01*
X156500800Y-91088900D02*
X156500800Y-93579300D01*
X162250500Y-85339200D02*
X156500800Y-91088900D01*
X162250500Y-73611700D02*
X162250500Y-85339200D01*
X159666800Y-71028000D02*
X162250500Y-73611700D01*
%TO.N,/A1*%
X163270000Y-119849000D02*
X163270000Y-118398900D01*
X137053500Y-104720000D02*
X137053500Y-106755100D01*
X137694000Y-117025000D02*
X139169100Y-117025000D01*
X139169100Y-117268200D02*
X139449400Y-117548500D01*
X139169100Y-117025000D02*
X139169100Y-117268200D01*
X137053500Y-106755100D02*
X137053500Y-107037700D01*
X132217000Y-134027400D02*
X133378300Y-132866100D01*
X132217000Y-139247200D02*
X132217000Y-134027400D01*
X163079400Y-110645400D02*
X163079400Y-109621900D01*
X162626400Y-111098400D02*
X163079400Y-110645400D01*
X162626400Y-116251100D02*
X162626400Y-111098400D01*
X163421000Y-117045700D02*
X162626400Y-116251100D01*
X163421000Y-118247900D02*
X163421000Y-117045700D01*
X163270000Y-118398900D02*
X163421000Y-118247900D01*
%TO.N,/A0*%
X162270000Y-119849000D02*
X162270000Y-118398900D01*
X137696000Y-115758000D02*
X139171100Y-115758000D01*
X138360500Y-101288500D02*
X141266400Y-98382600D01*
X138360500Y-104720000D02*
X138360500Y-101288500D01*
X162270000Y-118334700D02*
X162270000Y-118398900D01*
X161927400Y-117992100D02*
X162270000Y-118334700D01*
X139930300Y-115758000D02*
X139171100Y-115758000D01*
X141814400Y-117642100D02*
X139930300Y-115758000D01*
X141814400Y-123286100D02*
X141814400Y-117642100D01*
X142115200Y-123586900D02*
X141814400Y-123286100D01*
X142115200Y-125322700D02*
X142115200Y-123586900D01*
X141911100Y-125526800D02*
X142115200Y-125322700D01*
X138415600Y-128006000D02*
X138415600Y-127462600D01*
X135716600Y-130705000D02*
X138415600Y-128006000D01*
X134514100Y-130705000D02*
X135716600Y-130705000D01*
X130716800Y-134502300D02*
X134514100Y-130705000D01*
X130716800Y-139247200D02*
X130716800Y-134502300D01*
X157239800Y-90986500D02*
X157239800Y-94615800D01*
X162781100Y-85445200D02*
X157239800Y-90986500D01*
X162781100Y-71125300D02*
X162781100Y-85445200D01*
X162684800Y-71029000D02*
X162781100Y-71125300D01*
X161904200Y-108015200D02*
X162124200Y-107795200D01*
X161904200Y-110427100D02*
X161904200Y-108015200D01*
X161726200Y-110605100D02*
X161904200Y-110427100D01*
X161726200Y-117790900D02*
X161726200Y-110605100D01*
X161927400Y-117992100D02*
X161726200Y-117790900D01*
D27*
%TO.N,/VCC*%
X160076000Y-123421000D02*
X160076000Y-122135900D01*
X124356500Y-93094000D02*
X124356500Y-94174000D01*
X124317500Y-104723000D02*
X124317500Y-102562900D01*
X124317500Y-104723000D02*
X124317500Y-106883100D01*
X160270000Y-121941900D02*
X160270000Y-119849000D01*
X160076000Y-122135900D02*
X160270000Y-121941900D01*
X170020000Y-100099000D02*
X168444900Y-100099000D01*
X160270000Y-119849000D02*
X160270000Y-118273900D01*
X126860400Y-95292200D02*
X126899500Y-95253100D01*
X124491800Y-95292200D02*
X126860400Y-95292200D01*
X124491800Y-102388600D02*
X124491800Y-95292200D01*
X124317500Y-102562900D02*
X124491800Y-102388600D01*
X124491800Y-94309300D02*
X124356500Y-94174000D01*
X124491800Y-95292200D02*
X124491800Y-94309300D01*
X126899500Y-93093000D02*
X126899500Y-95253100D01*
X123182500Y-65562500D02*
X123182500Y-66847600D01*
X158800100Y-58057300D02*
X158800100Y-57824000D01*
X170263800Y-69521000D02*
X158800100Y-58057300D01*
X157515000Y-57824000D02*
X158800100Y-57824000D01*
X157515000Y-57824000D02*
X156229900Y-57824000D01*
X120711800Y-69318300D02*
X123182500Y-66847600D01*
X120711800Y-110668600D02*
X120711800Y-69318300D01*
X121942100Y-111898900D02*
X120711800Y-110668600D01*
X122424000Y-111898900D02*
X121942100Y-111898900D01*
X156229900Y-58305900D02*
X156229900Y-57824000D01*
X147688200Y-66847600D02*
X156229900Y-58305900D01*
X123182500Y-66847600D02*
X147688200Y-66847600D01*
X122965500Y-139372200D02*
X122965500Y-135797100D01*
X122424000Y-113184000D02*
X122424000Y-112977900D01*
X122424000Y-112977900D02*
X122424000Y-111898900D01*
X122965500Y-112977900D02*
X122424000Y-112977900D01*
X130728000Y-124864900D02*
X131994000Y-124864900D01*
X130725000Y-124867900D02*
X130728000Y-124864900D01*
X130725000Y-126468000D02*
X130725000Y-124867900D01*
X131994000Y-126465000D02*
X131994000Y-124864900D01*
X128185000Y-125578300D02*
X128185000Y-126013000D01*
X128900500Y-124862800D02*
X128185000Y-125578300D01*
X130719900Y-124862800D02*
X128900500Y-124862800D01*
X130725000Y-124867900D02*
X130719900Y-124862800D01*
X128185000Y-126013000D02*
X128185000Y-126463000D01*
X128185000Y-126013000D02*
X122965500Y-126013000D01*
X122965500Y-112977900D02*
X122965500Y-126013000D01*
X122965500Y-126013000D02*
X122965500Y-135797100D01*
X122965600Y-112977900D02*
X122965500Y-112977900D01*
X122965600Y-112611100D02*
X122965600Y-112977900D01*
X125077800Y-110498900D02*
X122965600Y-112611100D01*
X125077800Y-107643400D02*
X125077800Y-110498900D01*
X124317500Y-106883100D02*
X125077800Y-107643400D01*
X170020000Y-100099000D02*
X171595100Y-100099000D01*
X171595100Y-93649400D02*
X171595100Y-100099000D01*
X169074100Y-91128400D02*
X171595100Y-93649400D01*
X168741000Y-91461500D02*
X169074100Y-91128400D01*
X170263800Y-89938700D02*
X170263800Y-69521000D01*
X169074100Y-91128400D02*
X170263800Y-89938700D01*
X159631700Y-117635600D02*
X160270000Y-118273900D01*
X159631700Y-110594100D02*
X159631700Y-117635600D01*
X161274100Y-108951700D02*
X159631700Y-110594100D01*
X161274100Y-107123200D02*
X161274100Y-108951700D01*
X168298300Y-100099000D02*
X161274100Y-107123200D01*
X168444900Y-100099000D02*
X168298300Y-100099000D01*
D26*
%TO.N,/A15_Game*%
X158270000Y-116498200D02*
X155351100Y-113579300D01*
X158270000Y-119849000D02*
X158270000Y-116498200D01*
%TO.N,/Button*%
X155270000Y-119849000D02*
X155270000Y-118398900D01*
X154384000Y-57833000D02*
X153223900Y-57833000D01*
X150937900Y-55547000D02*
X149003000Y-55547000D01*
X153223900Y-57833000D02*
X150937900Y-55547000D01*
X139008000Y-65542000D02*
X132099000Y-65542000D01*
X149003000Y-55547000D02*
X139008000Y-65542000D01*
X155270000Y-115405900D02*
X155168700Y-115304600D01*
X155270000Y-118398900D02*
X155270000Y-115405900D01*
%TO.N,/Wr_Sys*%
X126216000Y-139247200D02*
X126216000Y-135922100D01*
X152520000Y-117099000D02*
X151069900Y-117099000D01*
X132748800Y-129389300D02*
X132748800Y-128825200D01*
X126216000Y-135922100D02*
X132748800Y-129389300D01*
X151069900Y-117099000D02*
X151069900Y-119630600D01*
%TO.N,/Switch*%
X126313500Y-64074500D02*
X126313500Y-65553500D01*
X128682000Y-61706000D02*
X126313500Y-64074500D01*
X152520000Y-116099000D02*
X151069900Y-116099000D01*
X150001300Y-113592100D02*
X149892900Y-113483700D01*
X150001300Y-115030400D02*
X150001300Y-113592100D01*
X151069900Y-116099000D02*
X150001300Y-115030400D01*
%TO.N,/Reset*%
X153245100Y-115099000D02*
X153970100Y-115099000D01*
X153245100Y-115099000D02*
X152520000Y-115099000D01*
X152520000Y-115099000D02*
X151069900Y-115099000D01*
X153970100Y-123169200D02*
X166723000Y-135922100D01*
X153970100Y-115099000D02*
X153970100Y-123169200D01*
X166723000Y-139247200D02*
X166723000Y-135922100D01*
X150618000Y-112118200D02*
X150268300Y-111768500D01*
X150618000Y-114647100D02*
X150618000Y-112118200D01*
X151069900Y-115099000D02*
X150618000Y-114647100D01*
%TO.N,/Rd_Sys*%
X127716300Y-139247200D02*
X127716300Y-135922100D01*
X152520000Y-114099000D02*
X151069900Y-114099000D01*
X126297000Y-118299000D02*
X127772100Y-118299000D01*
X151069900Y-111544600D02*
X151069900Y-114099000D01*
X150568700Y-111043400D02*
X151069900Y-111544600D01*
X149968000Y-111043400D02*
X150568700Y-111043400D01*
X149157400Y-111854000D02*
X149968000Y-111043400D01*
X149157400Y-114410400D02*
X149157400Y-111854000D01*
X149551200Y-114804200D02*
X149157400Y-114410400D01*
X149551200Y-119371600D02*
X149551200Y-114804200D01*
X149742800Y-119563200D02*
X149551200Y-119371600D01*
X127716300Y-135465200D02*
X132782000Y-130399500D01*
X127716300Y-135922100D02*
X127716300Y-135465200D01*
X128904100Y-119431000D02*
X128904100Y-120483300D01*
X127772100Y-118299000D02*
X128904100Y-119431000D01*
%TO.N,/Wr_Game*%
X167895100Y-98174000D02*
X153970100Y-112099000D01*
X167895100Y-95089400D02*
X167895100Y-98174000D01*
X166599700Y-93794000D02*
X167895100Y-95089400D01*
X166599700Y-85303700D02*
X166599700Y-93794000D01*
X167248900Y-84654500D02*
X166599700Y-85303700D01*
X167248900Y-69520900D02*
X167248900Y-84654500D01*
X152520000Y-112099000D02*
X153970100Y-112099000D01*
%TO.N,/Rd_Game*%
X153970100Y-109616600D02*
X153970100Y-111099000D01*
X158715400Y-104871300D02*
X153970100Y-109616600D01*
X158715400Y-104004100D02*
X158715400Y-104871300D01*
X152520000Y-111099000D02*
X153970100Y-111099000D01*
X158043200Y-92922800D02*
X158043200Y-93494500D01*
X165700800Y-85265200D02*
X158043200Y-92922800D01*
X165700800Y-71027000D02*
X165700800Y-85265200D01*
%TO.N,/CE_V62*%
X152520000Y-110099000D02*
X151069900Y-110099000D01*
X136935600Y-95129100D02*
X136549500Y-95515200D01*
X137099500Y-95129100D02*
X136935600Y-95129100D01*
X137099500Y-93094000D02*
X137099500Y-95129100D01*
X150813800Y-109842900D02*
X151069900Y-110099000D01*
X150773500Y-109842900D02*
X150813800Y-109842900D01*
%TO.N,/CE_SST*%
X130719300Y-115994700D02*
X135390700Y-115994700D01*
X130482600Y-115758000D02*
X130719300Y-115994700D01*
X126293000Y-115758000D02*
X130482600Y-115758000D01*
X148894800Y-115772400D02*
X148826100Y-115841100D01*
X148894800Y-114784400D02*
X148894800Y-115772400D01*
X148707300Y-114596900D02*
X148894800Y-114784400D01*
X148707300Y-110823300D02*
X148707300Y-114596900D01*
X150431600Y-109099000D02*
X148707300Y-110823300D01*
X152520000Y-109099000D02*
X150431600Y-109099000D01*
D27*
%TO.N,/GND*%
X152520000Y-108099000D02*
X154095100Y-108099000D01*
X133264000Y-112663000D02*
X133264000Y-111062900D01*
X133264000Y-112663000D02*
X133264000Y-114263100D01*
X143480500Y-104719000D02*
X143480500Y-105624000D01*
X143480500Y-105624000D02*
X143480500Y-106704500D01*
X152520000Y-108099000D02*
X150944900Y-108099000D01*
X150771700Y-108272200D02*
X150944900Y-108099000D01*
X123097500Y-108085400D02*
X122415000Y-108767900D01*
X123097500Y-71563800D02*
X123097500Y-108085400D01*
X123632300Y-71029000D02*
X123097500Y-71563800D01*
X122415000Y-110053000D02*
X122415000Y-108767900D01*
X140095200Y-110089800D02*
X143480500Y-106704500D01*
X134237100Y-110089800D02*
X140095200Y-110089800D01*
X133264000Y-111062900D02*
X134237100Y-110089800D01*
X129024100Y-64265900D02*
X128968000Y-64265900D01*
X131585000Y-61705000D02*
X129024100Y-64265900D01*
X128968000Y-65551000D02*
X128968000Y-64265900D01*
X122415000Y-110053000D02*
X123700100Y-110053000D01*
X123854100Y-110207000D02*
X123700100Y-110053000D01*
X124167200Y-110207000D02*
X123854100Y-110207000D01*
X144220900Y-105624000D02*
X144417800Y-105427100D01*
X143480500Y-105624000D02*
X144220900Y-105624000D01*
X132379200Y-115147900D02*
X130948500Y-115147900D01*
X133264000Y-114263100D02*
X132379200Y-115147900D01*
X162504200Y-121424100D02*
X163207000Y-122126900D01*
X161270000Y-121424100D02*
X162504200Y-121424100D01*
X161270000Y-119849000D02*
X161270000Y-121424100D01*
X154095100Y-107422200D02*
X154095100Y-108099000D01*
X160270000Y-101247300D02*
X154095100Y-107422200D01*
X160270000Y-96349000D02*
X160270000Y-101247300D01*
X163207000Y-123412000D02*
X163207000Y-122786000D01*
X163207000Y-122786000D02*
X163207000Y-122126900D01*
X170020000Y-113099000D02*
X168444900Y-113099000D01*
X169973500Y-126320700D02*
X166438800Y-122786000D01*
X169973500Y-139372200D02*
X169973500Y-126320700D01*
X163207000Y-122786000D02*
X166438800Y-122786000D01*
X168444900Y-120779900D02*
X168444900Y-113099000D01*
X166438800Y-122786000D02*
X168444900Y-120779900D01*
X161052600Y-111517000D02*
X160481800Y-110946200D01*
X161052600Y-119631600D02*
X161052600Y-111517000D01*
X161270000Y-119849000D02*
X161052600Y-119631600D01*
D26*
%TO.N,/D7*%
X165222700Y-139247200D02*
X165222700Y-135922100D01*
X152520000Y-106099000D02*
X151069900Y-106099000D01*
X138401500Y-95344300D02*
X138401500Y-93094000D01*
X136752000Y-96993800D02*
X138401500Y-95344300D01*
X135686600Y-96993800D02*
X136752000Y-96993800D01*
X132229600Y-100450800D02*
X135686600Y-96993800D01*
X128099600Y-110480800D02*
X128099600Y-109267700D01*
X126293000Y-112287400D02*
X128099600Y-110480800D01*
X126293000Y-114482000D02*
X126293000Y-112287400D01*
X128157800Y-73815800D02*
X128157800Y-69522000D01*
X138401500Y-84059500D02*
X128157800Y-73815800D01*
X138401500Y-93094000D02*
X138401500Y-84059500D01*
X148168800Y-110354700D02*
X148168800Y-115083900D01*
X149867100Y-108656400D02*
X148168800Y-110354700D01*
X149867100Y-107301800D02*
X149867100Y-108656400D01*
X151069900Y-106099000D02*
X149867100Y-107301800D01*
X148100900Y-115151800D02*
X148168800Y-115083900D01*
X148100900Y-119014100D02*
X148100900Y-115151800D01*
X165008900Y-135922100D02*
X148100900Y-119014100D01*
X165222700Y-135922100D02*
X165008900Y-135922100D01*
%TO.N,/D6*%
X163722500Y-139247200D02*
X163722500Y-135922100D01*
X151795000Y-105099000D02*
X151069900Y-105099000D01*
X151795000Y-105099000D02*
X152520000Y-105099000D01*
X139676500Y-93090000D02*
X139676500Y-91054900D01*
X152520000Y-105099000D02*
X153970100Y-105099000D01*
X154420200Y-87962100D02*
X139687300Y-73229200D01*
X154420200Y-104648900D02*
X154420200Y-87962100D01*
X153970100Y-105099000D02*
X154420200Y-104648900D01*
X128183000Y-112664000D02*
X128183000Y-111188900D01*
X139676500Y-93090000D02*
X139676500Y-95125100D01*
X139915200Y-81279400D02*
X129664800Y-71029000D01*
X139915200Y-90816200D02*
X139915200Y-81279400D01*
X139676500Y-91054900D02*
X139915200Y-90816200D01*
X139676500Y-95353100D02*
X139676500Y-95125100D01*
X136976600Y-98053000D02*
X139676500Y-95353100D01*
X136289400Y-98053000D02*
X136976600Y-98053000D01*
X132443900Y-101898500D02*
X136289400Y-98053000D01*
X132266500Y-101898500D02*
X132443900Y-101898500D01*
X131353400Y-102811600D02*
X132266500Y-101898500D01*
X131353400Y-108018500D02*
X131353400Y-102811600D01*
X128183000Y-111188900D02*
X131353400Y-108018500D01*
X163722500Y-135416100D02*
X163722500Y-135922100D01*
X147650800Y-119344400D02*
X163722500Y-135416100D01*
X147650800Y-115591300D02*
X147650800Y-119344400D01*
X147443700Y-115384200D02*
X147650800Y-115591300D01*
X147443700Y-114783600D02*
X147443700Y-115384200D01*
X147650800Y-114576500D02*
X147443700Y-114783600D01*
X147650800Y-110236000D02*
X147650800Y-114576500D01*
X149257700Y-108629100D02*
X147650800Y-110236000D01*
X149257700Y-106911200D02*
X149257700Y-108629100D01*
X151069900Y-105099000D02*
X149257700Y-106911200D01*
%TO.N,/D5*%
X140941500Y-93100000D02*
X140941500Y-91064900D01*
X152520000Y-104099000D02*
X153970100Y-104099000D01*
X152520000Y-104099000D02*
X151069900Y-104099000D01*
X140853900Y-90977300D02*
X140941500Y-91064900D01*
X140853900Y-80963600D02*
X140853900Y-90977300D01*
X131171800Y-71281500D02*
X140853900Y-80963600D01*
X131171800Y-69522000D02*
X131171800Y-71281500D01*
X153970100Y-88637100D02*
X138079300Y-72746300D01*
X153970100Y-104099000D02*
X153970100Y-88637100D01*
X129454000Y-110988600D02*
X129454000Y-112663000D01*
X131646900Y-108795700D02*
X129454000Y-110988600D01*
X131941300Y-108795700D02*
X131646900Y-108795700D01*
X132914500Y-107822500D02*
X131941300Y-108795700D01*
X132914500Y-107221700D02*
X132914500Y-107822500D01*
X132612500Y-106919700D02*
X132914500Y-107221700D01*
X132612500Y-102731800D02*
X132612500Y-106919700D01*
X136841200Y-98503100D02*
X132612500Y-102731800D01*
X137253700Y-98503100D02*
X136841200Y-98503100D01*
X140941500Y-94815300D02*
X137253700Y-98503100D01*
X140941500Y-93100000D02*
X140941500Y-94815300D01*
X162222200Y-134552400D02*
X162222200Y-139247200D01*
X147200700Y-119530900D02*
X162222200Y-134552400D01*
X147200700Y-115777800D02*
X147200700Y-119530900D01*
X146993600Y-115570700D02*
X147200700Y-115777800D01*
X146993600Y-114597100D02*
X146993600Y-115570700D01*
X147200700Y-114390000D02*
X146993600Y-114597100D01*
X147200700Y-109814700D02*
X147200700Y-114390000D01*
X148566700Y-108448700D02*
X147200700Y-109814700D01*
X148566700Y-106602200D02*
X148566700Y-108448700D01*
X151069900Y-104099000D02*
X148566700Y-106602200D01*
%TO.N,/D4*%
X142216500Y-93087000D02*
X142216500Y-91051900D01*
X152520000Y-103099000D02*
X151069900Y-103099000D01*
X130727000Y-112664000D02*
X130727000Y-111188900D01*
X142216500Y-93087000D02*
X142216500Y-95122100D01*
X151069900Y-103462300D02*
X151069900Y-103099000D01*
X147841600Y-106690600D02*
X151069900Y-103462300D01*
X147841600Y-107146800D02*
X147841600Y-106690600D01*
X138041400Y-99297200D02*
X142216500Y-95122100D01*
X138041400Y-99687200D02*
X138041400Y-99297200D01*
X142324300Y-90944100D02*
X142216500Y-91051900D01*
X142324300Y-81347700D02*
X142324300Y-90944100D01*
X132716800Y-71740200D02*
X142324300Y-81347700D01*
X132716800Y-71027000D02*
X132716800Y-71740200D01*
X137059400Y-99687200D02*
X138041400Y-99687200D01*
X133874700Y-102871900D02*
X137059400Y-99687200D01*
X133874700Y-108656500D02*
X133874700Y-102871900D01*
X131342300Y-111188900D02*
X133874700Y-108656500D01*
X130727000Y-111188900D02*
X131342300Y-111188900D01*
X160721900Y-133688700D02*
X160721900Y-139247200D01*
X146750600Y-119717400D02*
X160721900Y-133688700D01*
X146750600Y-115964300D02*
X146750600Y-119717400D01*
X146543500Y-115757200D02*
X146750600Y-115964300D01*
X146543500Y-114410600D02*
X146543500Y-115757200D01*
X146750600Y-114203500D02*
X146543500Y-114410600D01*
X146750600Y-109403300D02*
X146750600Y-114203500D01*
X147841600Y-108312300D02*
X146750600Y-109403300D01*
X147841600Y-107146800D02*
X147841600Y-108312300D01*
%TO.N,/D3*%
X131995000Y-112664000D02*
X131995000Y-111188900D01*
X152520000Y-102099000D02*
X151069900Y-102099000D01*
X151069900Y-102099000D02*
X149154700Y-104014200D01*
X159221700Y-139247200D02*
X159221700Y-135922100D01*
X143522500Y-97178400D02*
X143522500Y-93089000D01*
X140001000Y-100699900D02*
X143522500Y-97178400D01*
X134267800Y-72259000D02*
X134267800Y-69524000D01*
X142897400Y-80888600D02*
X134267800Y-72259000D01*
X142897400Y-90428800D02*
X142897400Y-80888600D01*
X143522500Y-91053900D02*
X142897400Y-90428800D01*
X143522500Y-93089000D02*
X143522500Y-91053900D01*
X139007800Y-101693100D02*
X140001000Y-100699900D01*
X139007800Y-106587300D02*
X139007800Y-101693100D01*
X136080400Y-109514700D02*
X139007800Y-106587300D01*
X133669200Y-109514700D02*
X136080400Y-109514700D01*
X131995000Y-111188900D02*
X133669200Y-109514700D01*
X159221600Y-135922100D02*
X159221700Y-135922100D01*
X159221600Y-132825000D02*
X159221600Y-135922100D01*
X146289200Y-119892600D02*
X159221600Y-132825000D01*
X146289200Y-116139500D02*
X146289200Y-119892600D01*
X146093400Y-115943700D02*
X146289200Y-116139500D01*
X146093400Y-114224100D02*
X146093400Y-115943700D01*
X146289200Y-114028300D02*
X146093400Y-114224100D01*
X146289200Y-109228000D02*
X146289200Y-114028300D01*
X147116500Y-108400700D02*
X146289200Y-109228000D01*
X147116500Y-106052400D02*
X147116500Y-108400700D01*
X149154700Y-104014200D02*
X147116500Y-106052400D01*
%TO.N,/D2*%
X157721400Y-139247200D02*
X157721400Y-135922100D01*
X134533000Y-112667000D02*
X134533000Y-111191900D01*
X142172500Y-104719000D02*
X142172500Y-102683900D01*
X143967700Y-102683900D02*
X142172500Y-102683900D01*
X145197600Y-103913800D02*
X143967700Y-102683900D01*
X145197600Y-105862000D02*
X145197600Y-103913800D01*
X140320900Y-110738700D02*
X145197600Y-105862000D01*
X134986200Y-110738700D02*
X140320900Y-110738700D01*
X134533000Y-111191900D02*
X134986200Y-110738700D01*
X152520000Y-101099000D02*
X151069900Y-101099000D01*
X142172500Y-102683900D02*
X144854600Y-100001800D01*
X135658800Y-72772300D02*
X135658800Y-71029000D01*
X144854600Y-81968100D02*
X135658800Y-72772300D01*
X144854600Y-100001800D02*
X144854600Y-81968100D01*
X145247200Y-100001800D02*
X146666400Y-101421000D01*
X144854600Y-100001800D02*
X145247200Y-100001800D01*
X150747900Y-101421000D02*
X146666400Y-101421000D01*
X151069900Y-101099000D02*
X150747900Y-101421000D01*
X157721400Y-131961400D02*
X157721400Y-135922100D01*
X145808600Y-120048600D02*
X157721400Y-131961400D01*
X145808600Y-116295500D02*
X145808600Y-120048600D01*
X145643300Y-116130200D02*
X145808600Y-116295500D01*
X145643300Y-114037600D02*
X145643300Y-116130200D01*
X145808600Y-113872300D02*
X145643300Y-114037600D01*
X145808600Y-109072000D02*
X145808600Y-113872300D01*
X146666400Y-108214200D02*
X145808600Y-109072000D01*
X146666400Y-101421000D02*
X146666400Y-108214200D01*
%TO.N,/D1*%
X135802000Y-112664000D02*
X135802000Y-111188900D01*
X147851800Y-100625100D02*
X147851800Y-100099000D01*
X147851800Y-84328800D02*
X147851800Y-100099000D01*
X136865200Y-73342200D02*
X147851800Y-84328800D01*
X136865200Y-71947100D02*
X136865200Y-73342200D01*
X137202800Y-71609500D02*
X136865200Y-71947100D01*
X137202800Y-69519000D02*
X137202800Y-71609500D01*
X147851800Y-100099000D02*
X152520000Y-100099000D01*
X141030100Y-102561300D02*
X140907500Y-102683900D01*
X141030100Y-101214900D02*
X141030100Y-102561300D01*
X140907500Y-104719000D02*
X140907500Y-102683900D01*
X135802000Y-111188900D02*
X144950100Y-111188900D01*
X144950100Y-107909800D02*
X144950100Y-111188900D01*
X145673500Y-107186400D02*
X144950100Y-107909800D01*
X145673500Y-101582200D02*
X145673500Y-107186400D01*
X145402800Y-101311500D02*
X145673500Y-101582200D01*
X144950100Y-119826800D02*
X144950100Y-111188900D01*
X156221200Y-131097900D02*
X144950100Y-119826800D01*
X156221200Y-139247200D02*
X156221200Y-131097900D01*
%TO.N,/D0*%
X137693000Y-114488000D02*
X139168100Y-114488000D01*
X139641500Y-106770300D02*
X139641500Y-104720000D01*
X139641500Y-106770300D02*
X139641500Y-109227400D01*
X152520000Y-99099000D02*
X151069900Y-99099000D01*
X151069900Y-87664900D02*
X151069900Y-99099000D01*
X151069900Y-86762300D02*
X151069900Y-87664900D01*
X137315400Y-73007800D02*
X151069900Y-86762300D01*
X137315400Y-72348400D02*
X137315400Y-73007800D01*
X138635800Y-71028000D02*
X137315400Y-72348400D01*
X144154300Y-87885200D02*
X144126800Y-87857700D01*
X144154300Y-99116200D02*
X144154300Y-87885200D01*
X141532600Y-101737900D02*
X144154300Y-99116200D01*
X141532600Y-106622600D02*
X141532600Y-101737900D01*
X141384900Y-106770300D02*
X141532600Y-106622600D01*
X139641500Y-106770300D02*
X141384900Y-106770300D01*
X154720900Y-139247200D02*
X154720900Y-135922100D01*
X139168100Y-114488000D02*
X139471900Y-114488000D01*
X154720900Y-130459000D02*
X154720900Y-135922100D01*
X142264600Y-118002700D02*
X154720900Y-130459000D01*
X142264600Y-117280700D02*
X142264600Y-118002700D01*
X139471900Y-114488000D02*
X142264600Y-117280700D01*
X167326200Y-91459200D02*
X167326200Y-91177100D01*
X169203500Y-93336500D02*
X167326200Y-91459200D01*
X169691000Y-93336500D02*
X169203500Y-93336500D01*
%TD*%
M02*
