%TF.GenerationSoftware,KiCad,Pcbnew,(6.0.2)*%
%TF.CreationDate,2022-09-16T22:12:31-05:00*%
%TF.ProjectId,REF1395A Optimized,52454631-3339-4354-9120-4f7074696d69,rev?*%
%TF.SameCoordinates,Original*%
%TF.FileFunction,Copper,L2,Bot*%
%TF.FilePolarity,Positive*%
%FSLAX46Y46*%
G04 Gerber Fmt 4.6, Leading zero omitted, Abs format (unit mm)*
G04 Created by KiCad (PCBNEW (6.0.2)) date 2022-09-16 22:12:31*
%MOMM*%
%LPD*%
G01*
G04 APERTURE LIST*
%TA.AperFunction,ComponentPad*%
%ADD10C,5.240000*%
%TD*%
%TA.AperFunction,ComponentPad*%
%ADD11C,1.860000*%
%TD*%
%TA.AperFunction,ComponentPad*%
%ADD12C,1.830000*%
%TD*%
%TA.AperFunction,ComponentPad*%
%ADD13C,2.020000*%
%TD*%
%TA.AperFunction,ViaPad*%
%ADD14C,0.800000*%
%TD*%
%TA.AperFunction,Conductor*%
%ADD15C,0.250000*%
%TD*%
%TA.AperFunction,Conductor*%
%ADD16C,0.600000*%
%TD*%
G04 APERTURE END LIST*
D10*
%TO.P,REF\u002A\u002A,1*%
%TO.N,N/C*%
X146580000Y-126866000D03*
%TD*%
D11*
%TO.P,J2,1,+5V*%
%TO.N,/VCC*%
X170263800Y-69521000D03*
%TO.P,J2,2,Clock*%
%TO.N,/Clk*%
X168717300Y-71029000D03*
%TO.P,J2,3,Write*%
%TO.N,/Wr_Game*%
X167248900Y-69520900D03*
%TO.P,J2,4,Read*%
%TO.N,/Rd_Game*%
X165700800Y-71027000D03*
%TO.P,J2,5,CS*%
%TO.N,/CS*%
X164230800Y-69521000D03*
%TO.P,J2,6,A0*%
%TO.N,/A0*%
X162684800Y-71029000D03*
%TO.P,J2,7,A1*%
%TO.N,/A1*%
X161216400Y-69520900D03*
%TO.P,J2,8,A2*%
%TO.N,/A2*%
X159666800Y-71028000D03*
%TO.P,J2,9,A3*%
%TO.N,/A3*%
X158240800Y-69522000D03*
%TO.P,J2,10,A4*%
%TO.N,/A4*%
X156692000Y-71029000D03*
%TO.P,J2,11,A5*%
%TO.N,/A5*%
X155183900Y-69520900D03*
%TO.P,J2,12,A6*%
%TO.N,/A6*%
X153631800Y-71029000D03*
%TO.P,J2,13,A7*%
%TO.N,/A7*%
X152167600Y-69520900D03*
%TO.P,J2,14,A8*%
%TO.N,/A8*%
X150617800Y-71029000D03*
%TO.P,J2,15,A9*%
%TO.N,/A9*%
X149231800Y-69520000D03*
%TO.P,J2,16,A10*%
%TO.N,/A10*%
X147680800Y-71030000D03*
%TO.P,J2,17,A11*%
%TO.N,/A11*%
X146210800Y-69521000D03*
%TO.P,J2,18,A12*%
%TO.N,/A12*%
X144665800Y-71028000D03*
%TO.P,J2,19,A13*%
%TO.N,/A13*%
X143196800Y-69522000D03*
%TO.P,J2,20,A14*%
%TO.N,/A14*%
X141648800Y-71030000D03*
%TO.P,J2,21,A15*%
%TO.N,/A15_Game*%
X140180800Y-69520000D03*
%TO.P,J2,22,Data_0*%
%TO.N,/D0*%
X138635800Y-71028000D03*
%TO.P,J2,23,Data_1*%
%TO.N,/D1*%
X137202800Y-69519000D03*
%TO.P,J2,24,Data_2*%
%TO.N,/D2*%
X135658800Y-71029000D03*
%TO.P,J2,25,Data_3*%
%TO.N,/D3*%
X134267800Y-69524000D03*
%TO.P,J2,26,Data_4*%
%TO.N,/D4*%
X132716800Y-71027000D03*
%TO.P,J2,27,Data_5*%
%TO.N,/D5*%
X131171800Y-69522000D03*
%TO.P,J2,28,Data_6*%
%TO.N,/D6*%
X129664800Y-71029000D03*
%TO.P,J2,29,Data_7*%
%TO.N,/D7*%
X128157800Y-69522000D03*
%TO.P,J2,30,Reset*%
%TO.N,/Reset*%
X126650800Y-71037000D03*
%TO.P,J2,31,Audio*%
%TO.N,/Audio*%
X125135800Y-69522000D03*
%TO.P,J2,32,GND*%
%TO.N,/GND*%
X123632300Y-71029000D03*
%TD*%
D12*
%TO.P,SW1,1,1*%
%TO.N,unconnected-(SW1-Pad1)*%
X143279000Y-57730000D03*
%TO.P,SW1,2,2*%
%TO.N,/GND*%
X144552000Y-55587000D03*
%TO.P,SW1,3,3*%
%TO.N,/Button*%
X149003000Y-55547000D03*
%TO.P,SW1,4,4*%
%TO.N,unconnected-(SW1-Pad4)*%
X150309000Y-57730000D03*
%TD*%
D13*
%TO.P,J3,1,A*%
%TO.N,unconnected-(J3-Pad1)*%
X125709000Y-61703000D03*
%TO.P,J3,2,B*%
%TO.N,/Switch*%
X128682000Y-61706000D03*
%TO.P,J3,3,C*%
%TO.N,/GND*%
X131585000Y-61705000D03*
%TO.P,J3,4*%
%TO.N,N/C*%
X122252000Y-61705000D03*
%TO.P,J3,5*%
X135034000Y-61707000D03*
%TD*%
D14*
%TO.N,/D0*%
X137081800Y-98461800D03*
X149559800Y-96440700D03*
X156936600Y-93901800D03*
%TO.N,/D1*%
X136760100Y-112960000D03*
X154147300Y-109626500D03*
X144763800Y-110502000D03*
%TO.N,/D2*%
X149923400Y-100906400D03*
X134515000Y-109822400D03*
X142196500Y-102379100D03*
%TO.N,/D3*%
X154112000Y-108438300D03*
X147010800Y-109776600D03*
X133094200Y-114450600D03*
%TO.N,/D4*%
X150543000Y-103001800D03*
X147112500Y-106370100D03*
%TO.N,/D5*%
X126835400Y-112194200D03*
X161481200Y-133393600D03*
%TO.N,/D6*%
X163082500Y-133748500D03*
X125750100Y-113528200D03*
%TO.N,/GND*%
X128462900Y-108007500D03*
X144411400Y-107279400D03*
X133264000Y-110909400D03*
X156835600Y-107520400D03*
X150602600Y-107279400D03*
%TO.N,/CE_SST*%
X150649500Y-109009500D03*
X131911200Y-114581500D03*
%TO.N,/Rd_Sys*%
X150019100Y-115246400D03*
X133797100Y-122168800D03*
X135319800Y-129465800D03*
%TO.N,/Reset*%
X164735700Y-133131000D03*
%TO.N,/Switch*%
X160683300Y-128508000D03*
%TO.N,/Wr_Sys*%
X135421000Y-128241900D03*
X153915300Y-118137700D03*
%TO.N,/Button*%
X157321800Y-122608900D03*
%TO.N,/A15_Game*%
X162610400Y-128105300D03*
%TO.N,/VCC*%
X160076000Y-121905800D03*
X172204700Y-109036800D03*
%TO.N,/A0*%
X139459200Y-116268100D03*
X140183900Y-119350900D03*
X142510400Y-119260900D03*
X158159200Y-113912900D03*
%TO.N,/A1*%
X158475900Y-112912500D03*
X141203900Y-118497900D03*
X140470700Y-116046800D03*
%TO.N,/A2*%
X142033000Y-117810200D03*
X158722500Y-111843000D03*
%TO.N,/A3*%
X143136000Y-116137100D03*
X158894700Y-110801300D03*
X140990400Y-117497500D03*
%TO.N,/A4*%
X159276400Y-109782700D03*
X135985100Y-118916900D03*
X144262600Y-115183500D03*
X139627900Y-115183500D03*
%TO.N,/A5*%
X135211900Y-115798300D03*
X137013900Y-111936700D03*
X157936100Y-107730900D03*
X142856700Y-111171000D03*
%TO.N,/A6*%
X141167700Y-130924400D03*
X138070700Y-127177000D03*
X132207000Y-95950600D03*
X170062400Y-118138000D03*
%TO.N,/A7*%
X137322100Y-127925700D03*
X142074000Y-131559300D03*
X128425500Y-109908400D03*
X169045700Y-118730700D03*
%TO.N,/A8*%
X170267700Y-119162100D03*
X143232500Y-131701000D03*
X129400700Y-121926500D03*
X128842500Y-95338100D03*
%TO.N,/A9*%
X144683800Y-132459000D03*
X128703800Y-120795200D03*
X131977100Y-90775300D03*
X171978600Y-114323500D03*
%TO.N,/A10*%
X165588400Y-112023800D03*
X131399700Y-117116400D03*
X144499200Y-129435700D03*
X135866500Y-83802000D03*
X153651800Y-122796000D03*
%TO.N,/A11*%
X171812100Y-119129500D03*
X147366000Y-132909800D03*
X132748300Y-89338600D03*
X128043500Y-119841900D03*
%TO.N,/A12*%
X166667400Y-110491300D03*
X136779000Y-126024600D03*
X149525400Y-124785400D03*
%TO.N,/A13*%
X150701100Y-127567000D03*
X167698600Y-109618600D03*
%TO.N,/A14*%
X151887000Y-127426500D03*
X168531600Y-108265400D03*
%TO.N,/A15_Sys*%
X153394000Y-129648800D03*
X165737300Y-116412800D03*
%TO.N,/A13_SST*%
X133314100Y-121060100D03*
X163440300Y-105194300D03*
%TO.N,/A14_SST*%
X164477500Y-104044900D03*
X132574900Y-121794700D03*
%TO.N,/A15_SST*%
X168501600Y-103365700D03*
X134916600Y-123831600D03*
%TO.N,/A16_SST*%
X164489300Y-102406500D03*
X133824300Y-118326500D03*
%TO.N,/A12_V62*%
X129622100Y-101466300D03*
X164482000Y-100734500D03*
%TO.N,/A13_V62*%
X158615600Y-92489300D03*
X130373900Y-96897600D03*
%TO.N,/A14_V62*%
X162883400Y-99252200D03*
X130255200Y-100674900D03*
%TO.N,/A15_V62*%
X164438300Y-98368200D03*
X129843400Y-98923700D03*
%TO.N,/A16_V62*%
X163379000Y-98328600D03*
X130507500Y-99674500D03*
%TO.N,/WE*%
X131927300Y-124035200D03*
X160497400Y-100139600D03*
X129212800Y-98079800D03*
%TO.N,/OE_V62*%
X139963500Y-98248300D03*
X161455000Y-98065200D03*
%TO.N,/Clk*%
X134420600Y-128241500D03*
%TO.N,/CS*%
X139738800Y-120956500D03*
%TO.N,/Audio*%
X165216200Y-131872200D03*
%TD*%
D15*
%TO.N,/D0*%
X137081800Y-98461800D02*
X139102900Y-96440700D01*
X156936600Y-93901800D02*
X152098700Y-93901800D01*
X139102900Y-96440700D02*
X149559800Y-96440700D01*
X152098700Y-93901800D02*
X149559800Y-96440700D01*
%TO.N,/D1*%
X137463500Y-110430000D02*
X144691800Y-110430000D01*
X153305500Y-110468300D02*
X154147300Y-109626500D01*
X136253400Y-111640100D02*
X137463500Y-110430000D01*
X144763800Y-110502000D02*
X147311300Y-110502000D01*
X147311300Y-110502000D02*
X147345000Y-110468300D01*
X144691800Y-110430000D02*
X144763800Y-110502000D01*
X136253400Y-112453300D02*
X136253400Y-111640100D01*
X136760100Y-112960000D02*
X136253400Y-112453300D01*
X147345000Y-110468300D02*
X153305500Y-110468300D01*
%TO.N,/D2*%
X143669200Y-100906400D02*
X142196500Y-102379100D01*
X149923400Y-100906400D02*
X143669200Y-100906400D01*
X141958300Y-102379100D02*
X134515000Y-109822400D01*
X142196500Y-102379100D02*
X141958300Y-102379100D01*
%TO.N,/D3*%
X147010800Y-109776600D02*
X137429500Y-109776600D01*
X133094300Y-114450600D02*
X133094200Y-114450600D01*
X152773700Y-109776600D02*
X147010800Y-109776600D01*
X154112000Y-108438300D02*
X152773700Y-109776600D01*
X137429500Y-109776600D02*
X133094300Y-114111800D01*
X133094300Y-114111800D02*
X133094300Y-114450600D01*
%TO.N,/D4*%
X150543000Y-103001800D02*
X150480800Y-103001800D01*
X150480800Y-103001800D02*
X147112500Y-106370100D01*
%TO.N,/D5*%
X131171800Y-89638100D02*
X131171800Y-69522000D01*
X125152900Y-95657000D02*
X131171800Y-89638100D01*
X125136000Y-109527700D02*
X125035700Y-109427400D01*
X126835400Y-112194200D02*
X126835400Y-111349200D01*
X126835400Y-111349200D02*
X125136000Y-109649800D01*
X134367800Y-133672700D02*
X126835400Y-126140300D01*
X126835400Y-126140300D02*
X126835400Y-112194200D01*
X161481200Y-133393600D02*
X161202100Y-133672700D01*
X125136000Y-109649800D02*
X125136000Y-109527700D01*
X125152900Y-106470200D02*
X125152900Y-95657000D01*
X161202100Y-133672700D02*
X134367800Y-133672700D01*
X125035700Y-106587400D02*
X125152900Y-106470200D01*
X125035700Y-109427400D02*
X125035700Y-106587400D01*
%TO.N,/D6*%
X124685700Y-109836400D02*
X124685700Y-109714300D01*
X124585400Y-109614000D02*
X124585400Y-106400800D01*
X124702600Y-106283600D02*
X124702600Y-75991200D01*
X134181300Y-134123100D02*
X125750100Y-125691900D01*
X124702600Y-75991200D02*
X129664800Y-71029000D01*
X124685700Y-109714300D02*
X124585400Y-109614000D01*
X162707900Y-134123100D02*
X134181300Y-134123100D01*
X124585400Y-106400800D02*
X124702600Y-106283600D01*
X125750100Y-110900800D02*
X124685700Y-109836400D01*
X125750100Y-125691900D02*
X125750100Y-113528200D01*
X125750100Y-113528200D02*
X125750100Y-110900800D01*
X163082500Y-133748500D02*
X162707900Y-134123100D01*
D16*
%TO.N,/GND*%
X138331300Y-107279400D02*
X144411400Y-107279400D01*
X134701300Y-110909400D02*
X138331300Y-107279400D01*
X130362100Y-108007500D02*
X128462900Y-108007500D01*
X133264000Y-110909400D02*
X134701300Y-110909400D01*
X150602600Y-107279400D02*
X156594600Y-107279400D01*
X133264000Y-110909400D02*
X130362100Y-108007500D01*
X144411400Y-107279400D02*
X150602600Y-107279400D01*
X156594600Y-107279400D02*
X156835600Y-107520400D01*
D15*
%TO.N,/CE_SST*%
X137485600Y-109009500D02*
X150649500Y-109009500D01*
X131913600Y-114581500D02*
X137485600Y-109009500D01*
X131911200Y-114581500D02*
X131913600Y-114581500D01*
%TO.N,/Rd_Sys*%
X133695300Y-122270600D02*
X133797100Y-122168800D01*
X134619200Y-129465800D02*
X133695300Y-128541900D01*
X135747500Y-120218400D02*
X145047100Y-120218400D01*
X133695300Y-128541900D02*
X133695300Y-122270600D01*
X133797100Y-122168800D02*
X135747500Y-120218400D01*
X145047100Y-120218400D02*
X150019100Y-115246400D01*
X135319800Y-129465800D02*
X134619200Y-129465800D01*
%TO.N,/Reset*%
X124235400Y-110023000D02*
X124252300Y-110039900D01*
X124135100Y-109800600D02*
X124235400Y-109900900D01*
X134010500Y-134589200D02*
X163277500Y-134589200D01*
X163277500Y-134589200D02*
X164735700Y-133131000D01*
X124252300Y-106097000D02*
X124135100Y-106214200D01*
X124135100Y-106214200D02*
X124135100Y-109800600D01*
X124252300Y-124831000D02*
X134010500Y-134589200D01*
X126650800Y-71037000D02*
X124252300Y-73435500D01*
X124235400Y-109900900D02*
X124235400Y-110023000D01*
X124252300Y-73435500D02*
X124252300Y-106097000D01*
X124252300Y-110039900D02*
X124252300Y-124831000D01*
%TO.N,/Switch*%
X121919600Y-124409000D02*
X133476100Y-135965500D01*
X164225000Y-135965500D02*
X166405100Y-133785400D01*
X166405100Y-130873500D02*
X162911400Y-127379800D01*
X166405100Y-133785400D02*
X166405100Y-130873500D01*
X121919600Y-68468400D02*
X121919600Y-124409000D01*
X133476100Y-135965500D02*
X164225000Y-135965500D01*
X162911400Y-127379800D02*
X161811500Y-127379800D01*
X128682000Y-61706000D02*
X121919600Y-68468400D01*
X161811500Y-127379800D02*
X160683300Y-128508000D01*
%TO.N,/Wr_Sys*%
X153915300Y-118137700D02*
X149264500Y-122788500D01*
X149264500Y-122788500D02*
X138958600Y-122788500D01*
X138958600Y-122788500D02*
X135421000Y-126326100D01*
X135421000Y-126326100D02*
X135421000Y-128241900D01*
%TO.N,/Button*%
X172956900Y-68327200D02*
X172956900Y-106973800D01*
X171190300Y-66560600D02*
X172956900Y-68327200D01*
X162751500Y-66560600D02*
X171190300Y-66560600D01*
X172956900Y-106973800D02*
X157321800Y-122608900D01*
X149003000Y-55547000D02*
X151737900Y-55547000D01*
X151737900Y-55547000D02*
X162751500Y-66560600D01*
%TO.N,/A15_Game*%
X140180800Y-69520000D02*
X138895600Y-68234800D01*
X165954800Y-133598800D02*
X165954800Y-131449700D01*
X138895600Y-68234800D02*
X124594600Y-68234800D01*
X165954800Y-131449700D02*
X162610400Y-128105300D01*
X124594600Y-68234800D02*
X122370000Y-70459400D01*
X122370000Y-124222500D02*
X133643500Y-135496000D01*
X133643500Y-135496000D02*
X164057600Y-135496000D01*
X122370000Y-70459400D02*
X122370000Y-124222500D01*
X164057600Y-135496000D02*
X165954800Y-133598800D01*
D16*
%TO.N,/VCC*%
X171778300Y-109036800D02*
X172204700Y-109036800D01*
X160076000Y-121905800D02*
X160076000Y-120739100D01*
X160076000Y-120739100D02*
X171778300Y-109036800D01*
D15*
%TO.N,/A0*%
X167466200Y-75810400D02*
X162684800Y-71029000D01*
X158159200Y-113912900D02*
X157551000Y-114521100D01*
X142510400Y-119243100D02*
X142510400Y-119260900D01*
X158159200Y-113912900D02*
X158548300Y-113912900D01*
X158548300Y-113912900D02*
X167015900Y-105445300D01*
X167466200Y-102167800D02*
X167466200Y-75810400D01*
X142510400Y-119243000D02*
X142510400Y-119243100D01*
X167015900Y-102618100D02*
X167466200Y-102167800D01*
X140183900Y-119243100D02*
X140183900Y-119350900D01*
X149718700Y-114521100D02*
X144996800Y-119243000D01*
X144996800Y-119243000D02*
X142510400Y-119243000D01*
X140183900Y-119243100D02*
X139459200Y-118518400D01*
X139459200Y-118518400D02*
X139459200Y-116268100D01*
X140183900Y-119243100D02*
X142510400Y-119243100D01*
X167015900Y-105445300D02*
X167015900Y-102618100D01*
X157551000Y-114521100D02*
X149718700Y-114521100D01*
%TO.N,/A1*%
X158475900Y-112912500D02*
X158133900Y-112912500D01*
X149532100Y-114070800D02*
X145067400Y-118535500D01*
X158133900Y-112912500D02*
X156975600Y-114070800D01*
X158475900Y-112912500D02*
X158678900Y-112912500D01*
X141203900Y-118497900D02*
X140894800Y-118497900D01*
X141241500Y-118535500D02*
X141203900Y-118497900D01*
X166565600Y-102431500D02*
X167015900Y-101981200D01*
X140265100Y-116252400D02*
X140470700Y-116046800D01*
X161216400Y-87434400D02*
X161216400Y-69520900D01*
X140265100Y-117868200D02*
X140265100Y-116252400D01*
X156975600Y-114070800D02*
X149532100Y-114070800D01*
X167015900Y-101981200D02*
X167015900Y-93233900D01*
X145067400Y-118535500D02*
X141241500Y-118535500D01*
X166565600Y-105025800D02*
X166565600Y-102431500D01*
X140894800Y-118497900D02*
X140265100Y-117868200D01*
X158678900Y-112912500D02*
X166565600Y-105025800D01*
X167015900Y-93233900D02*
X161216400Y-87434400D01*
%TO.N,/A2*%
X159091200Y-111843000D02*
X166115300Y-104818900D01*
X166565600Y-93420500D02*
X159666800Y-86521700D01*
X166115300Y-102244900D02*
X166565600Y-101794600D01*
X166565600Y-101794600D02*
X166565600Y-93420500D01*
X158722500Y-111843000D02*
X159091200Y-111843000D01*
X166115300Y-104818900D02*
X166115300Y-102244900D01*
X159666800Y-86521700D02*
X159666800Y-71028000D01*
X149345500Y-113620500D02*
X145155800Y-117810200D01*
X158722500Y-111843000D02*
X158333700Y-111843000D01*
X158333700Y-111843000D02*
X156556200Y-113620500D01*
X156556200Y-113620500D02*
X149345500Y-113620500D01*
X145155800Y-117810200D02*
X142033000Y-117810200D01*
%TO.N,/A3*%
X159496000Y-110801300D02*
X165665000Y-104632300D01*
X142350800Y-116137100D02*
X140990400Y-117497500D01*
X166115300Y-93607100D02*
X158240800Y-85732600D01*
X156369600Y-113170200D02*
X149158900Y-113170200D01*
X158738500Y-110801300D02*
X156369600Y-113170200D01*
X165665000Y-104632300D02*
X165665000Y-102058300D01*
X158240800Y-85732600D02*
X158240800Y-69522000D01*
X158894700Y-110801300D02*
X159496000Y-110801300D01*
X146192000Y-116137100D02*
X143136000Y-116137100D01*
X149158900Y-113170200D02*
X146192000Y-116137100D01*
X166115300Y-101608000D02*
X166115300Y-93607100D01*
X158894700Y-110801300D02*
X158738500Y-110801300D01*
X165665000Y-102058300D02*
X166115300Y-101608000D01*
X143136000Y-116137100D02*
X142350800Y-116137100D01*
%TO.N,/A4*%
X165665000Y-96998800D02*
X156692000Y-88025800D01*
X155923600Y-112719900D02*
X148972300Y-112719900D01*
X139627900Y-115183500D02*
X139518100Y-115183500D01*
X158860800Y-109782700D02*
X155923600Y-112719900D01*
X165214700Y-104445700D02*
X165214700Y-101871700D01*
X148972300Y-112719900D02*
X146508700Y-115183500D01*
X146508700Y-115183500D02*
X144262600Y-115183500D01*
X139627900Y-115183500D02*
X144262600Y-115183500D01*
X135985100Y-118716500D02*
X135985100Y-118916900D01*
X165665000Y-101421400D02*
X165665000Y-96998800D01*
X139518100Y-115183500D02*
X135985100Y-118716500D01*
X159276400Y-109782700D02*
X159877700Y-109782700D01*
X159877700Y-109782700D02*
X165214700Y-104445700D01*
X156692000Y-88025800D02*
X156692000Y-71029000D01*
X165214700Y-101871700D02*
X165665000Y-101421400D01*
X159276400Y-109782700D02*
X158860800Y-109782700D01*
%TO.N,/A5*%
X165214700Y-101038400D02*
X165214700Y-97185400D01*
X154748300Y-110918700D02*
X147865400Y-110918700D01*
X165214700Y-97185400D02*
X155183900Y-87154600D01*
X138251400Y-111171000D02*
X142856700Y-111171000D01*
X164092900Y-101574100D02*
X164679000Y-101574100D01*
X157936100Y-107730900D02*
X164092900Y-101574100D01*
X164679000Y-101574100D02*
X165214700Y-101038400D01*
X137485500Y-113524700D02*
X135211900Y-115798300D01*
X157936100Y-107730900D02*
X154748300Y-110918700D01*
X137485500Y-111936900D02*
X138251400Y-111171000D01*
X137485300Y-111936700D02*
X137485500Y-111936900D01*
X147865400Y-110918700D02*
X147541900Y-111242200D01*
X155183900Y-87154600D02*
X155183900Y-69520900D01*
X147541900Y-111242200D02*
X142927900Y-111242200D01*
X137485500Y-111936900D02*
X137485500Y-113524700D01*
X137013900Y-111936700D02*
X137485300Y-111936700D01*
X142927900Y-111242200D02*
X142856700Y-111171000D01*
%TO.N,/A6*%
X135828600Y-130666900D02*
X134546500Y-130666900D01*
X136596800Y-127625100D02*
X136596800Y-129898700D01*
X153631800Y-71029000D02*
X153631800Y-74525800D01*
X130673100Y-111130200D02*
X128726000Y-109183100D01*
X134546500Y-130666900D02*
X130673100Y-126793500D01*
X153631800Y-74525800D02*
X132207000Y-95950600D01*
X127425300Y-107382300D02*
X127425300Y-98813000D01*
X127287200Y-107520400D02*
X127425300Y-107382300D01*
X138070700Y-127200300D02*
X138070700Y-127177000D01*
X154220100Y-130374100D02*
X166621300Y-117972900D01*
X127975900Y-109183100D02*
X127287200Y-108494400D01*
X130287700Y-95950600D02*
X132207000Y-95950600D01*
X128726000Y-109183100D02*
X127975900Y-109183100D01*
X141267800Y-130374100D02*
X138094000Y-127200300D01*
X166621300Y-117972900D02*
X169897300Y-117972900D01*
X136596800Y-129898700D02*
X135828600Y-130666900D01*
X141267800Y-130374100D02*
X141267800Y-130824300D01*
X169897300Y-117972900D02*
X170062400Y-118138000D01*
X141267800Y-130824300D02*
X141167700Y-130924400D01*
X127287200Y-108494400D02*
X127287200Y-107520400D01*
X130673100Y-126793500D02*
X130673100Y-111130200D01*
X137021600Y-127200300D02*
X136596800Y-127625100D01*
X138094000Y-127200300D02*
X138070700Y-127200300D01*
X138070700Y-127200300D02*
X137021600Y-127200300D01*
X127425300Y-98813000D02*
X130287700Y-95950600D01*
X141267800Y-130374100D02*
X154220100Y-130374100D01*
%TO.N,/A7*%
X137866200Y-131676100D02*
X137322100Y-131132000D01*
X141957200Y-131676100D02*
X137866200Y-131676100D01*
X134374700Y-131132000D02*
X137322100Y-131132000D01*
X152167600Y-73433800D02*
X126975000Y-98626400D01*
X137322100Y-131132000D02*
X137322100Y-127925700D01*
X128425500Y-109908400D02*
X130193600Y-111676500D01*
X130193600Y-111676500D02*
X130193600Y-126950900D01*
X126836900Y-107333800D02*
X126836900Y-108681000D01*
X142074000Y-131559300D02*
X142702200Y-130931100D01*
X142702200Y-130931100D02*
X154346300Y-130931100D01*
X126836900Y-108681000D02*
X128064300Y-109908400D01*
X154346300Y-130931100D02*
X166546700Y-118730700D01*
X130193600Y-126950900D02*
X134374700Y-131132000D01*
X126975000Y-107195700D02*
X126836900Y-107333800D01*
X142074000Y-131559300D02*
X141957200Y-131676100D01*
X126975000Y-98626400D02*
X126975000Y-107195700D01*
X166546700Y-118730700D02*
X169045700Y-118730700D01*
X152167600Y-69520900D02*
X152167600Y-73433800D01*
X128064300Y-109908400D02*
X128425500Y-109908400D01*
%TO.N,/A8*%
X150617800Y-71029000D02*
X150617800Y-73562800D01*
X129400700Y-126794900D02*
X134890500Y-132284700D01*
X165634300Y-123795500D02*
X162165100Y-123795500D01*
X126524700Y-107009100D02*
X126386600Y-107147200D01*
X129484900Y-112088000D02*
X129484900Y-121842300D01*
X126486900Y-109090000D02*
X129484900Y-112088000D01*
X126524700Y-97655900D02*
X126524700Y-107009100D01*
X150617800Y-73562800D02*
X128842500Y-95338100D01*
X170267700Y-119162100D02*
X165634300Y-123795500D01*
X154259600Y-131701000D02*
X143232500Y-131701000D01*
X129400700Y-121926500D02*
X129400700Y-126794900D01*
X129484900Y-121842300D02*
X129400700Y-121926500D01*
X126486900Y-108967900D02*
X126486900Y-109090000D01*
X128842500Y-95338100D02*
X126524700Y-97655900D01*
X162165100Y-123795500D02*
X154259600Y-131701000D01*
X134890500Y-132284700D02*
X142648800Y-132284700D01*
X142648800Y-132284700D02*
X143232500Y-131701000D01*
X126386600Y-108867600D02*
X126486900Y-108967900D01*
X126386600Y-107147200D02*
X126386600Y-108867600D01*
%TO.N,/A9*%
X126036600Y-109276600D02*
X128769700Y-112009700D01*
X126053500Y-106843400D02*
X125936300Y-106960600D01*
X144683800Y-132459000D02*
X144991400Y-132151400D01*
X128769700Y-120729300D02*
X128703800Y-120795200D01*
X154446100Y-132151400D02*
X160917500Y-125680000D01*
X144991400Y-132151400D02*
X154446100Y-132151400D01*
X128703800Y-120795200D02*
X128633200Y-120865800D01*
X125936300Y-106960600D02*
X125936300Y-109054200D01*
X126036600Y-109154500D02*
X126036600Y-109276600D01*
X144376100Y-132766700D02*
X144683800Y-132459000D01*
X132337400Y-90775300D02*
X149231800Y-73880900D01*
X171019800Y-115282300D02*
X171978600Y-114323500D01*
X131977100Y-90775300D02*
X132337400Y-90775300D01*
X126053500Y-96698900D02*
X126053500Y-106843400D01*
X131977100Y-90775300D02*
X126053500Y-96698900D01*
X125936300Y-109054200D02*
X126036600Y-109154500D01*
X134735600Y-132766700D02*
X144376100Y-132766700D01*
X171019800Y-119437200D02*
X171019800Y-115282300D01*
X160917500Y-125680000D02*
X164777000Y-125680000D01*
X128769700Y-112009700D02*
X128769700Y-120729300D01*
X128633200Y-120865800D02*
X128633200Y-126664300D01*
X149231800Y-73880900D02*
X149231800Y-69520000D01*
X164777000Y-125680000D02*
X171019800Y-119437200D01*
X128633200Y-126664300D02*
X134735600Y-132766700D01*
%TO.N,/A10*%
X137288900Y-126750000D02*
X136835000Y-126750000D01*
X131201900Y-117314200D02*
X131399700Y-117116400D01*
X131201900Y-126685400D02*
X131201900Y-117314200D01*
X153651800Y-122796000D02*
X154816200Y-122796000D01*
X144874800Y-129811300D02*
X147800100Y-129811300D01*
X141515200Y-126451700D02*
X137587200Y-126451700D01*
X147680800Y-71987700D02*
X135866500Y-83802000D01*
X154816200Y-122796000D02*
X165588400Y-112023800D01*
X136146400Y-129700300D02*
X135649800Y-130196900D01*
X137587200Y-126451700D02*
X137288900Y-126750000D01*
X144499200Y-129435700D02*
X144874800Y-129811300D01*
X149525300Y-126922500D02*
X153651800Y-122796000D01*
X136146400Y-127438600D02*
X136146400Y-129700300D01*
X147680800Y-71030000D02*
X147680800Y-71987700D01*
X135649800Y-130196900D02*
X134713400Y-130196900D01*
X149525300Y-128086100D02*
X149525300Y-126922500D01*
X136835000Y-126750000D02*
X136146400Y-127438600D01*
X144499200Y-129435700D02*
X141515200Y-126451700D01*
X147800100Y-129811300D02*
X149525300Y-128086100D01*
X134713400Y-130196900D02*
X131201900Y-126685400D01*
%TO.N,/A11*%
X155255400Y-132909800D02*
X162034900Y-126130300D01*
X127971000Y-119914400D02*
X127971000Y-126639000D01*
X162034900Y-126130300D02*
X164970500Y-126130300D01*
X128043500Y-119841900D02*
X127971000Y-119914400D01*
X128043500Y-111920400D02*
X125586300Y-109463200D01*
X146210800Y-71863100D02*
X132748300Y-85325600D01*
X125603200Y-106656800D02*
X125603200Y-96068900D01*
X125586300Y-109341100D02*
X125486000Y-109240800D01*
X132333500Y-89338600D02*
X132748300Y-89338600D01*
X125486000Y-106774000D02*
X125603200Y-106656800D01*
X147366000Y-132909800D02*
X155255400Y-132909800D01*
X125486000Y-109240800D02*
X125486000Y-106774000D01*
X164970500Y-126130300D02*
X171812100Y-119288700D01*
X125603200Y-96068900D02*
X132333500Y-89338600D01*
X134549100Y-133217100D02*
X147058700Y-133217100D01*
X127971000Y-126639000D02*
X134549100Y-133217100D01*
X128043500Y-119841900D02*
X128043500Y-111920400D01*
X171812100Y-119288700D02*
X171812100Y-119129500D01*
X132748300Y-85325600D02*
X132748300Y-89338600D01*
X147058700Y-133217100D02*
X147366000Y-132909800D01*
X125586300Y-109463200D02*
X125586300Y-109341100D01*
X146210800Y-69521000D02*
X146210800Y-71863100D01*
%TO.N,/A12*%
X166667400Y-108341400D02*
X166667400Y-110491300D01*
X149525400Y-124785400D02*
X150542000Y-124785400D01*
X171590600Y-103418200D02*
X166667400Y-108341400D01*
X144665800Y-71028000D02*
X144665800Y-69259300D01*
X164836100Y-110491300D02*
X166667400Y-110491300D01*
X150542000Y-124785400D02*
X164836100Y-110491300D01*
X144665800Y-69259300D02*
X145677700Y-68247400D01*
X138898000Y-123905600D02*
X136779000Y-126024600D01*
X170836800Y-68247400D02*
X171590600Y-69001200D01*
X149525400Y-124785400D02*
X148645600Y-123905600D01*
X171590600Y-69001200D02*
X171590600Y-103418200D01*
X145677700Y-68247400D02*
X170836800Y-68247400D01*
X148645600Y-123905600D02*
X138898000Y-123905600D01*
%TO.N,/A13*%
X143196800Y-69522000D02*
X144972000Y-67746800D01*
X150701100Y-127567000D02*
X165519000Y-112749100D01*
X167698600Y-107947100D02*
X167698600Y-109618600D01*
X170973100Y-67746800D02*
X172041000Y-68814700D01*
X165888900Y-112749100D02*
X167698600Y-110939400D01*
X167698600Y-110939400D02*
X167698600Y-109618600D01*
X172041000Y-68814700D02*
X172041000Y-103604700D01*
X144972000Y-67746800D02*
X170973100Y-67746800D01*
X165519000Y-112749100D02*
X165888900Y-112749100D01*
X172041000Y-103604700D02*
X167698600Y-107947100D01*
%TO.N,/A14*%
X165705600Y-113199400D02*
X166075500Y-113199400D01*
X141648800Y-71030000D02*
X141648800Y-69249800D01*
X172491300Y-68526100D02*
X172491300Y-104305700D01*
X143602100Y-67296500D02*
X171261700Y-67296500D01*
X172491300Y-104305700D02*
X168531600Y-108265400D01*
X151887000Y-127018000D02*
X165705600Y-113199400D01*
X151887000Y-127426500D02*
X151887000Y-127018000D01*
X171261700Y-67296500D02*
X172491300Y-68526100D01*
X141648800Y-69249800D02*
X143602100Y-67296500D01*
X166075500Y-113199400D02*
X168531600Y-110743300D01*
X168531600Y-110743300D02*
X168531600Y-108265400D01*
%TO.N,/A15_Sys*%
X153394000Y-129648800D02*
X165737300Y-117305500D01*
X165737300Y-117305500D02*
X165737300Y-116412800D01*
%TO.N,/A13_SST*%
X148785700Y-112269600D02*
X147669800Y-113385500D01*
X163440300Y-105194300D02*
X162812300Y-105194300D01*
X137368400Y-116490100D02*
X133314100Y-120544400D01*
X155737000Y-112269600D02*
X148785700Y-112269600D01*
X162812300Y-105194300D02*
X155737000Y-112269600D01*
X133314100Y-120544400D02*
X133314100Y-121060100D01*
X140375400Y-113385500D02*
X137368400Y-116392500D01*
X137368400Y-116392500D02*
X137368400Y-116490100D01*
X147669800Y-113385500D02*
X140375400Y-113385500D01*
%TO.N,/A14_SST*%
X164477500Y-104044900D02*
X163284800Y-104044900D01*
X140703300Y-112356600D02*
X136918100Y-116141800D01*
X136918100Y-116303500D02*
X132574900Y-120646700D01*
X148599100Y-111819300D02*
X148061800Y-112356600D01*
X136918100Y-116141800D02*
X136918100Y-116303500D01*
X148061800Y-112356600D02*
X140703300Y-112356600D01*
X155510400Y-111819300D02*
X148599100Y-111819300D01*
X163284800Y-104044900D02*
X155510400Y-111819300D01*
X132574900Y-120646700D02*
X132574900Y-121794700D01*
%TO.N,/A15_SST*%
X148583500Y-121806600D02*
X154140100Y-116250000D01*
X157485000Y-116250000D02*
X168501600Y-105233400D01*
X154140100Y-116250000D02*
X157485000Y-116250000D01*
X134916600Y-123831600D02*
X136941600Y-121806600D01*
X136941600Y-121806600D02*
X148583500Y-121806600D01*
X168501600Y-105233400D02*
X168501600Y-103365700D01*
%TO.N,/A16_SST*%
X164286300Y-102406500D02*
X155323800Y-111369000D01*
X148126500Y-111369000D02*
X147589200Y-111906300D01*
X147589200Y-111906300D02*
X140244500Y-111906300D01*
X164489300Y-102406500D02*
X164286300Y-102406500D01*
X155323800Y-111369000D02*
X148126500Y-111369000D01*
X140244500Y-111906300D02*
X133824300Y-118326500D01*
%TO.N,/A12_V62*%
X150907600Y-99705600D02*
X151245300Y-99367900D01*
X151245300Y-99367900D02*
X160885100Y-99367900D01*
X137013800Y-101466300D02*
X138774500Y-99705600D01*
X138774500Y-99705600D02*
X150907600Y-99705600D01*
X160885100Y-99367900D02*
X162251700Y-100734500D01*
X129622100Y-101466300D02*
X137013800Y-101466300D01*
X162251700Y-100734500D02*
X164482000Y-100734500D01*
%TO.N,/A13_V62*%
X132427000Y-96897600D02*
X136835300Y-92489300D01*
X136835300Y-92489300D02*
X158615600Y-92489300D01*
X130373900Y-96897600D02*
X132427000Y-96897600D01*
%TO.N,/A14_V62*%
X162548000Y-98916800D02*
X162883400Y-99252200D01*
X130255200Y-100674900D02*
X137168300Y-100674900D01*
X137168300Y-100674900D02*
X138591000Y-99252200D01*
X147163400Y-99252200D02*
X147498800Y-98916800D01*
X138591000Y-99252200D02*
X147163400Y-99252200D01*
X147498800Y-98916800D02*
X162548000Y-98916800D01*
%TO.N,/A15_V62*%
X150635900Y-96827600D02*
X162910300Y-96827600D01*
X137807100Y-98762300D02*
X137807100Y-98493100D01*
X136518000Y-98923700D02*
X136781400Y-99187100D01*
X137807100Y-98493100D02*
X139247000Y-97053200D01*
X136781400Y-99187100D02*
X137382300Y-99187100D01*
X149113900Y-97053200D02*
X149226700Y-97166000D01*
X164438300Y-98355600D02*
X164438300Y-98368200D01*
X139247000Y-97053200D02*
X149113900Y-97053200D01*
X150297500Y-97166000D02*
X150635900Y-96827600D01*
X149226700Y-97166000D02*
X150297500Y-97166000D01*
X137382300Y-99187100D02*
X137807100Y-98762300D01*
X129843400Y-98923700D02*
X136518000Y-98923700D01*
X162910300Y-96827600D02*
X164438300Y-98355600D01*
%TO.N,/A16_V62*%
X162365600Y-97315200D02*
X163379000Y-98328600D01*
X139568100Y-97503500D02*
X148927300Y-97503500D01*
X149040100Y-97616300D02*
X150484100Y-97616300D01*
X130507500Y-99674500D02*
X137531800Y-99674500D01*
X150785200Y-97315200D02*
X162365600Y-97315200D01*
X139164400Y-97907200D02*
X139568100Y-97503500D01*
X137531800Y-99674500D02*
X139164400Y-98041900D01*
X150484100Y-97616300D02*
X150785200Y-97315200D01*
X148927300Y-97503500D02*
X149040100Y-97616300D01*
X139164400Y-98041900D02*
X139164400Y-97907200D01*
%TO.N,/WE*%
X127737500Y-107707000D02*
X129359400Y-106085100D01*
X128896800Y-101766700D02*
X128896800Y-98395800D01*
X127737500Y-108307800D02*
X127737500Y-107707000D01*
X131927300Y-124035200D02*
X131834700Y-123942600D01*
X132205900Y-119844000D02*
X132205900Y-116896800D01*
X160481100Y-100155900D02*
X160497400Y-100139600D01*
X131178600Y-115869500D02*
X131178500Y-115869500D01*
X129359400Y-102229300D02*
X136887700Y-102229300D01*
X128162500Y-108732800D02*
X127737500Y-108307800D01*
X138961100Y-100155900D02*
X160481100Y-100155900D01*
X131178500Y-115869500D02*
X131178500Y-110998700D01*
X131834700Y-123942600D02*
X131834700Y-120215200D01*
X131834700Y-120215200D02*
X132205900Y-119844000D01*
X128896800Y-98395800D02*
X129212800Y-98079800D01*
X136887700Y-102229300D02*
X138961100Y-100155900D01*
X129359400Y-106085100D02*
X129359400Y-102229300D01*
X128912600Y-108732800D02*
X128162500Y-108732800D01*
X129359400Y-102229300D02*
X128896800Y-101766700D01*
X131178500Y-110998700D02*
X128912600Y-108732800D01*
X132205900Y-116896800D02*
X131178600Y-115869500D01*
%TO.N,/OE_V62*%
X139963500Y-98248300D02*
X161271900Y-98248300D01*
X161271900Y-98248300D02*
X161455000Y-98065200D01*
%TO.N,/Clk*%
X153717100Y-117309900D02*
X148688900Y-122338100D01*
X148688900Y-122338100D02*
X138743100Y-122338100D01*
X169226900Y-71538700D02*
X169226900Y-105145000D01*
X169226900Y-105145000D02*
X157062000Y-117309900D01*
X157062000Y-117309900D02*
X153717100Y-117309900D01*
X168906000Y-71217900D02*
X169095000Y-71406800D01*
X138743100Y-122338100D02*
X134420600Y-126660600D01*
X168906000Y-71217900D02*
X168717300Y-71029200D01*
X168717300Y-71029200D02*
X168717300Y-71029000D01*
X168717000Y-71029000D02*
X168906000Y-71217900D01*
X134420600Y-126660600D02*
X134420600Y-128241500D01*
X169095000Y-71406800D02*
X169226900Y-71538700D01*
%TO.N,/CS*%
X148478400Y-120956500D02*
X153635200Y-115799700D01*
X167475000Y-105623100D02*
X167475000Y-102795900D01*
X167916500Y-102354400D02*
X167916500Y-75546200D01*
X157298400Y-115799700D02*
X167475000Y-105623100D01*
X164230800Y-71860500D02*
X164230800Y-69521000D01*
X167475000Y-102795900D02*
X167916500Y-102354400D01*
X153635200Y-115799700D02*
X157298400Y-115799700D01*
X167916500Y-75546200D02*
X164230800Y-71860500D01*
X139738800Y-120956500D02*
X148478400Y-120956500D01*
%TO.N,/Audio*%
X123684800Y-106027600D02*
X123684800Y-109987200D01*
X123791400Y-105921000D02*
X123684800Y-106027600D01*
X125135800Y-69522000D02*
X125135800Y-71382800D01*
X163871100Y-135045600D02*
X165504500Y-133412200D01*
X165504500Y-133412200D02*
X165504500Y-132160500D01*
X123684800Y-109987200D02*
X123785100Y-110087500D01*
X125135800Y-71382800D02*
X123791400Y-72727200D01*
X123791400Y-72727200D02*
X123791400Y-105921000D01*
X123785100Y-110209600D02*
X123791400Y-110215900D01*
X133830000Y-135045600D02*
X163871100Y-135045600D01*
X123791400Y-110215900D02*
X123791400Y-125007000D01*
X123791400Y-125007000D02*
X133830000Y-135045600D01*
X165504500Y-132160500D02*
X165216200Y-131872200D01*
X123785100Y-110087500D02*
X123785100Y-110209600D01*
%TD*%
M02*
