M48
; DRILL file {KiCad (6.0.2)} date Thu Jun 30 06:38:02 2022
; FORMAT={-:-/ absolute / metric / decimal}
; #@! TF.CreationDate,2022-06-30T06:38:02-05:00
; #@! TF.GenerationSoftware,Kicad,Pcbnew,(6.0.2)
; #@! TF.FileFunction,Plated,1,2,PTH
FMAT,2
METRIC
; #@! TA.AperFunction,Plated,PTH,ViaDrill
T1C0.400
; #@! TA.AperFunction,Plated,PTH,ComponentDrill
T2C1.070
; #@! TA.AperFunction,Plated,PTH,ComponentDrill
T3C1.200
; #@! TA.AperFunction,Plated,PTH,ComponentDrill
T4C1.270
; #@! TA.AperFunction,Plated,PTH,ComponentDrill
T5C4.680
%
G90
G05
T1
X125.75Y-113.528
X126.835Y-112.194
X128.043Y-119.842
X128.425Y-109.908
X128.463Y-108.007
X128.704Y-120.795
X128.843Y-95.338
X129.213Y-98.08
X129.401Y-121.926
X129.622Y-101.466
X129.843Y-98.924
X130.255Y-100.675
X130.374Y-96.898
X130.507Y-99.674
X131.4Y-117.116
X131.911Y-114.581
X131.927Y-124.035
X131.977Y-90.775
X132.207Y-95.951
X132.575Y-121.795
X132.748Y-89.339
X133.094Y-114.451
X133.264Y-110.909
X133.314Y-121.06
X133.797Y-122.169
X133.824Y-118.326
X134.421Y-128.242
X134.515Y-109.822
X134.917Y-123.832
X135.212Y-115.798
X135.32Y-129.466
X135.421Y-128.242
X135.867Y-83.802
X135.985Y-118.917
X136.76Y-112.96
X136.779Y-126.025
X137.014Y-111.937
X137.082Y-98.462
X137.322Y-127.926
X138.071Y-127.177
X139.459Y-116.268
X139.628Y-115.183
X139.739Y-120.956
X139.963Y-98.248
X140.184Y-119.351
X140.471Y-116.047
X140.99Y-117.497
X141.168Y-130.924
X141.204Y-118.498
X142.033Y-117.81
X142.074Y-131.559
X142.196Y-102.379
X142.51Y-119.261
X142.857Y-111.171
X143.136Y-116.137
X143.232Y-131.701
X144.263Y-115.183
X144.411Y-107.279
X144.499Y-129.436
X144.684Y-132.459
X144.764Y-110.502
X147.011Y-109.777
X147.112Y-106.37
X147.366Y-132.91
X149.525Y-124.785
X149.56Y-96.441
X149.923Y-100.906
X150.019Y-115.246
X150.543Y-103.002
X150.603Y-107.279
X150.649Y-109.009
X150.701Y-127.567
X151.887Y-127.426
X153.394Y-129.649
X153.652Y-122.796
X153.915Y-118.138
X154.112Y-108.438
X154.147Y-109.626
X156.836Y-107.52
X156.937Y-93.902
X157.322Y-122.609
X157.936Y-107.731
X158.159Y-113.913
X158.476Y-112.912
X158.616Y-92.489
X158.722Y-111.843
X158.895Y-110.801
X159.276Y-109.783
X160.076Y-121.906
X160.497Y-100.14
X160.683Y-128.508
X161.455Y-98.065
X161.481Y-133.394
X162.61Y-128.105
X162.883Y-99.252
X163.082Y-133.749
X163.379Y-98.329
X163.44Y-105.194
X164.438Y-98.368
X164.477Y-104.045
X164.482Y-100.734
X164.489Y-102.406
X164.736Y-133.131
X165.216Y-131.872
X165.588Y-112.024
X165.737Y-116.413
X166.667Y-110.491
X167.699Y-109.619
X168.502Y-103.366
X168.532Y-108.265
X169.046Y-118.731
X170.062Y-118.138
X170.268Y-119.162
X171.812Y-119.129
X171.979Y-114.323
X172.205Y-109.037
T2
X122.252Y-61.705
X125.709Y-61.703
X128.682Y-61.706
X131.585Y-61.705
X135.034Y-61.707
T3
X123.632Y-71.029
X125.136Y-69.522
X126.651Y-71.037
X128.158Y-69.522
X129.665Y-71.029
X131.172Y-69.522
X132.717Y-71.027
X134.268Y-69.524
X135.659Y-71.029
X137.203Y-69.519
X138.636Y-71.028
X140.181Y-69.52
X141.649Y-71.03
X143.197Y-69.522
X144.666Y-71.028
X146.211Y-69.521
X147.681Y-71.03
X149.232Y-69.52
X150.618Y-71.029
X152.168Y-69.521
X153.632Y-71.029
X155.184Y-69.521
X156.692Y-71.029
X158.241Y-69.522
X159.667Y-71.028
X161.216Y-69.521
X162.685Y-71.029
X164.231Y-69.521
X165.701Y-71.027
X167.249Y-69.521
X168.717Y-71.029
X170.264Y-69.521
T4
X143.279Y-57.73
X144.552Y-55.587
X149.003Y-55.547
X150.309Y-57.73
T5
X146.58Y-126.866
T0
M30
