M48
; DRILL file {KiCad (6.0.2)} date Sat Oct 22 13:12:22 2022
; FORMAT={-:-/ absolute / metric / decimal}
; #@! TF.CreationDate,2022-10-22T13:12:22-05:00
; #@! TF.GenerationSoftware,Kicad,Pcbnew,(6.0.2)
; #@! TF.FileFunction,Plated,1,2,PTH
FMAT,2
METRIC
; #@! TA.AperFunction,Plated,PTH,ViaDrill
T1C0.400
; #@! TA.AperFunction,Plated,PTH,ComponentDrill
T2C1.070
; #@! TA.AperFunction,Plated,PTH,ComponentDrill
T3C1.200
; #@! TA.AperFunction,Plated,PTH,ComponentDrill
T4C1.270
; #@! TA.AperFunction,Plated,PTH,ComponentDrill
T5C4.680
%
G90
G05
T1
X121.573Y-108.404
X124.167Y-110.207
X124.547Y-120.908
X124.575Y-124.018
X125.335Y-127.938
X127.93Y-89.509
X128.1Y-109.268
X128.222Y-100.02
X128.263Y-97.093
X128.367Y-90.639
X128.408Y-122.475
X128.904Y-120.483
X129.216Y-135.138
X130.084Y-90.457
X130.268Y-116.569
X130.44Y-120.037
X130.598Y-107.738
X130.721Y-101.182
X130.826Y-89.76
X130.948Y-115.148
X131.79Y-123.76
X131.947Y-109.521
X132.189Y-107.522
X132.23Y-100.451
X132.516Y-88.771
X132.749Y-128.825
X132.782Y-130.399
X132.821Y-119.75
X133.288Y-86.343
X133.378Y-132.866
X133.753Y-95.851
X134.006Y-120.47
X134.59Y-90.773
X134.685Y-108.79
X134.938Y-124.025
X135.156Y-117.755
X135.391Y-115.995
X135.665Y-89.027
X135.933Y-117.03
X135.94Y-120.404
X136.015Y-134.912
X136.39Y-84.534
X136.549Y-95.515
X136.839Y-127.81
X137.053Y-107.038
X137.606Y-126.093
X137.631Y-86.358
X138.041Y-99.687
X138.079Y-72.746
X138.416Y-127.463
X138.799Y-133.187
X138.866Y-126.008
X139.136Y-85.883
X139.449Y-117.548
X139.472Y-114.488
X139.642Y-109.227
X139.687Y-73.229
X139.718Y-135.644
X140.001Y-100.7
X140.486Y-117.339
X140.49Y-124.26
X140.591Y-120.14
X140.643Y-134.942
X141.03Y-101.215
X141.194Y-97.369
X141.266Y-98.383
X141.579Y-88.025
X141.768Y-127.095
X141.911Y-125.527
X142.551Y-122.371
X142.719Y-135.283
X144.127Y-87.858
X144.134Y-134.558
X144.418Y-105.427
X145.366Y-134.105
X145.403Y-101.311
X147.22Y-133.275
X147.842Y-107.147
X147.852Y-100.625
X148.169Y-115.084
X148.826Y-115.841
X149.155Y-104.014
X149.743Y-119.563
X149.893Y-113.484
X150.22Y-133.448
X150.268Y-111.768
X150.772Y-108.272
X150.773Y-109.843
X151.07Y-87.665
X151.07Y-119.631
X152.345Y-134.555
X152.768Y-129.532
X154.444Y-114.304
X155.169Y-115.305
X155.351Y-113.579
X155.641Y-109.137
X156.501Y-93.579
X157.24Y-94.616
X158.043Y-93.495
X158.715Y-104.004
X160.424Y-107.126
X160.482Y-110.946
X161.479Y-81.683
X161.927Y-117.992
X162.124Y-107.795
X162.671Y-117.321
X163.079Y-109.622
X163.684Y-108.378
X163.802Y-112.138
X163.978Y-116.578
X164.196Y-98.081
X164.628Y-93.175
X165.233Y-111.289
X165.27Y-94.211
X165.858Y-91.728
X166.152Y-116.148
X166.649Y-98.099
X166.793Y-115.037
X167.326Y-91.177
X167.909Y-108.932
X168.214Y-112.234
X168.227Y-102.387
X168.278Y-101.321
X168.28Y-105.447
X169.036Y-98.166
X169.35Y-120.458
X171.47Y-118.404
X171.753Y-113.139
X171.789Y-114.162
X171.988Y-111.588
X172.207Y-116.37
X172.828Y-108.459
T2
X122.252Y-61.705
X125.709Y-61.703
X128.682Y-61.706
X131.585Y-61.705
X135.034Y-61.707
T3
X123.632Y-71.029
X125.136Y-69.522
X126.651Y-71.037
X128.158Y-69.522
X129.665Y-71.029
X131.172Y-69.522
X132.717Y-71.027
X134.268Y-69.524
X135.659Y-71.029
X137.203Y-69.519
X138.636Y-71.028
X140.181Y-69.52
X141.649Y-71.03
X143.197Y-69.522
X144.666Y-71.028
X146.211Y-69.521
X147.681Y-71.03
X149.232Y-69.52
X150.618Y-71.029
X152.168Y-69.521
X153.632Y-71.029
X155.184Y-69.521
X156.692Y-71.029
X158.241Y-69.522
X159.667Y-71.028
X161.216Y-69.521
X162.685Y-71.029
X164.231Y-69.521
X165.701Y-71.027
X167.249Y-69.521
X168.717Y-71.029
X170.264Y-69.521
T4
X143.279Y-57.73
X144.552Y-55.587
X149.003Y-55.547
X150.309Y-57.73
T5
X146.58Y-126.866
T0
M30
