%TF.GenerationSoftware,KiCad,Pcbnew,(6.0.2)*%
%TF.CreationDate,2022-06-30T06:38:00-05:00*%
%TF.ProjectId,REF1395A Optimized,52454631-3339-4354-9120-4f7074696d69,rev?*%
%TF.SameCoordinates,Original*%
%TF.FileFunction,Paste,Top*%
%TF.FilePolarity,Positive*%
%FSLAX46Y46*%
G04 Gerber Fmt 4.6, Leading zero omitted, Abs format (unit mm)*
G04 Created by KiCad (PCBNEW (6.0.2)) date 2022-06-30 06:38:00*
%MOMM*%
%LPD*%
G01*
G04 APERTURE LIST*
G04 Aperture macros list*
%AMRoundRect*
0 Rectangle with rounded corners*
0 $1 Rounding radius*
0 $2 $3 $4 $5 $6 $7 $8 $9 X,Y pos of 4 corners*
0 Add a 4 corners polygon primitive as box body*
4,1,4,$2,$3,$4,$5,$6,$7,$8,$9,$2,$3,0*
0 Add four circle primitives for the rounded corners*
1,1,$1+$1,$2,$3*
1,1,$1+$1,$4,$5*
1,1,$1+$1,$6,$7*
1,1,$1+$1,$8,$9*
0 Add four rect primitives between the rounded corners*
20,1,$1+$1,$2,$3,$4,$5,0*
20,1,$1+$1,$4,$5,$6,$7,0*
20,1,$1+$1,$6,$7,$8,$9,0*
20,1,$1+$1,$8,$9,$2,$3,0*%
G04 Aperture macros list end*
%ADD10R,2.220000X0.600000*%
%ADD11R,0.600000X2.220000*%
%ADD12R,1.670000X1.670000*%
%ADD13RoundRect,0.150000X0.150000X-0.587500X0.150000X0.587500X-0.150000X0.587500X-0.150000X-0.587500X0*%
%ADD14R,0.600000X3.420000*%
%ADD15R,1.100000X7.600000*%
%ADD16R,0.650000X2.300000*%
%ADD17R,2.300000X0.650000*%
G04 APERTURE END LIST*
D10*
%TO.C,U3*%
X152398000Y-99056000D03*
X152400000Y-100047000D03*
X152399000Y-101037000D03*
X152400000Y-102074000D03*
X152398000Y-103066000D03*
X152395000Y-104054000D03*
X152396000Y-105125000D03*
X152398000Y-106119000D03*
X152399000Y-107110000D03*
X152399000Y-108105000D03*
X152400000Y-109177000D03*
X152401000Y-110166000D03*
X152400000Y-111162000D03*
X152400000Y-112151000D03*
X152399000Y-113186000D03*
X152403000Y-114178000D03*
X152401000Y-115209000D03*
X152400000Y-116199000D03*
X152399000Y-117193000D03*
D11*
X155256000Y-120132000D03*
X156249000Y-120129000D03*
X157241000Y-120129000D03*
X158271000Y-120131000D03*
X159264000Y-120129000D03*
X160296000Y-120130000D03*
X161289000Y-120130000D03*
X162321000Y-120130000D03*
X163313000Y-120128000D03*
X164345000Y-120169000D03*
X165297000Y-120169000D03*
X166330000Y-120170000D03*
X167322000Y-120168000D03*
D10*
X170253000Y-117230000D03*
X170258000Y-116242000D03*
X170257000Y-115249000D03*
X170258000Y-114216000D03*
X170257000Y-113223000D03*
X170259000Y-112191000D03*
X170256000Y-111199000D03*
X170259000Y-110207000D03*
X170262000Y-109216000D03*
X170255000Y-108144000D03*
X170257000Y-107152000D03*
X170258000Y-106162000D03*
X170260000Y-105165000D03*
X170259000Y-104095000D03*
X170258000Y-103105000D03*
X170259000Y-102109000D03*
X170258000Y-101079000D03*
X170258000Y-100082000D03*
X170258000Y-99093000D03*
D11*
X167324000Y-96197000D03*
X166328000Y-96197000D03*
X165297000Y-96197000D03*
X164341000Y-96197000D03*
X163313000Y-96157000D03*
X162321000Y-96158000D03*
X161288000Y-96158000D03*
X160296000Y-96158000D03*
X159265000Y-96158000D03*
X158273000Y-96157000D03*
X157241000Y-96157000D03*
X156250000Y-96159000D03*
X155256000Y-96159000D03*
%TD*%
D12*
%TO.C,R2*%
X154384000Y-57833000D03*
X157515000Y-57824000D03*
%TD*%
D13*
%TO.C,Q1*%
X168741000Y-91461500D03*
X169691000Y-93336500D03*
X167791000Y-93336500D03*
%TD*%
D14*
%TO.C,U2*%
X124317500Y-104723000D03*
X125588500Y-104723000D03*
X126858500Y-104723000D03*
X128163500Y-104720000D03*
X129438500Y-104720000D03*
X130703500Y-104720000D03*
X131978500Y-104720000D03*
X133249500Y-104720000D03*
X134554500Y-104720000D03*
X135825500Y-104720000D03*
X137053500Y-104720000D03*
X138360500Y-104720000D03*
X139641500Y-104720000D03*
X140907500Y-104719000D03*
X142172500Y-104719000D03*
X143480500Y-104719000D03*
X143522500Y-93089000D03*
X142216500Y-93087000D03*
X140941500Y-93100000D03*
X139676500Y-93090000D03*
X138401500Y-93094000D03*
X137099500Y-93094000D03*
X135866500Y-93094000D03*
X134590500Y-93094000D03*
X133288500Y-93091000D03*
X132017500Y-93091000D03*
X130744500Y-93093000D03*
X129474500Y-93093000D03*
X128210500Y-93093000D03*
X126899500Y-93093000D03*
X125621500Y-93094000D03*
X124356500Y-93094000D03*
%TD*%
D12*
%TO.C,C1*%
X122415000Y-110053000D03*
X122424000Y-113184000D03*
%TD*%
D15*
%TO.C,J1*%
X123268000Y-138682000D03*
X124787000Y-138682000D03*
X126294000Y-138682000D03*
X127800000Y-138684000D03*
X129307000Y-138684000D03*
X130810000Y-138684000D03*
X132317000Y-138684000D03*
X133836000Y-138684000D03*
X135343000Y-138684000D03*
X136850000Y-138681000D03*
X138357000Y-138689000D03*
X139824000Y-138681000D03*
X141327000Y-138683000D03*
X142834000Y-138683000D03*
X144353000Y-138683000D03*
X145860000Y-138683000D03*
X147366000Y-138676000D03*
X148873000Y-138676000D03*
X150380000Y-138684000D03*
X151887000Y-138684000D03*
X153394000Y-138684000D03*
X154901000Y-138684000D03*
X156409000Y-138681000D03*
X157880000Y-138681000D03*
X159351000Y-138681000D03*
X160858000Y-138681000D03*
X162365000Y-138681000D03*
X163908000Y-138676000D03*
X165427000Y-138676000D03*
X166886000Y-138676000D03*
X168441000Y-138676000D03*
X169900000Y-138682000D03*
%TD*%
D12*
%TO.C,C3*%
X128968000Y-65551000D03*
X132099000Y-65542000D03*
%TD*%
%TO.C,I1*%
X163189000Y-93228000D03*
X160058000Y-93237000D03*
%TD*%
%TO.C,R1*%
X126313500Y-65553500D03*
X123182500Y-65562500D03*
%TD*%
D16*
%TO.C,U1*%
X130725000Y-126468000D03*
X129453000Y-126463000D03*
X128185000Y-126463000D03*
D17*
X126297000Y-124647000D03*
X126298000Y-123376000D03*
X126298000Y-122104000D03*
X126299000Y-120836000D03*
X126292000Y-119563000D03*
X126297000Y-118299000D03*
X126293000Y-117023000D03*
X126293000Y-115758000D03*
X126293000Y-114482000D03*
D16*
X128183000Y-112664000D03*
X129454000Y-112663000D03*
X130727000Y-112664000D03*
X131995000Y-112664000D03*
X133264000Y-112663000D03*
X134533000Y-112667000D03*
X135802000Y-112664000D03*
D17*
X137693000Y-114488000D03*
X137696000Y-115758000D03*
X137694000Y-117025000D03*
X137696000Y-118296000D03*
X137695000Y-119569000D03*
X137694000Y-120835000D03*
X137693000Y-122105000D03*
X137695000Y-123376000D03*
X137695000Y-124645000D03*
D16*
X135805000Y-126466000D03*
X134535000Y-126466000D03*
X133266000Y-126467000D03*
X131994000Y-126465000D03*
%TD*%
D12*
%TO.C,C2*%
X163207000Y-123412000D03*
X160076000Y-123421000D03*
%TD*%
M02*
