%TF.GenerationSoftware,KiCad,Pcbnew,(6.0.2)*%
%TF.CreationDate,2022-10-22T13:12:19-05:00*%
%TF.ProjectId,REF1395A Optimized,52454631-3339-4354-9120-4f7074696d69,rev?*%
%TF.SameCoordinates,Original*%
%TF.FileFunction,Legend,Top*%
%TF.FilePolarity,Positive*%
%FSLAX46Y46*%
G04 Gerber Fmt 4.6, Leading zero omitted, Abs format (unit mm)*
G04 Created by KiCad (PCBNEW (6.0.2)) date 2022-10-22 13:12:19*
%MOMM*%
%LPD*%
G01*
G04 APERTURE LIST*
%ADD10C,0.150000*%
%ADD11C,0.125000*%
G04 APERTURE END LIST*
D10*
X158694000Y-121889000D02*
X164498000Y-121889000D01*
X164498000Y-121889000D02*
X164498000Y-125619000D01*
X164498000Y-125619000D02*
X158694000Y-125619000D01*
X158694000Y-125619000D02*
X158694000Y-121889000D01*
X127593000Y-64225000D02*
X121835000Y-64225000D01*
X121835000Y-64225000D02*
X121835000Y-67970000D01*
X121835000Y-67970000D02*
X127593000Y-67970000D01*
X127593000Y-67970000D02*
X127593000Y-64225000D01*
X158838000Y-56335000D02*
X153080000Y-56335000D01*
X153080000Y-56335000D02*
X153080000Y-60080000D01*
X153080000Y-60080000D02*
X158838000Y-60080000D01*
X158838000Y-60080000D02*
X158838000Y-56335000D01*
X120833000Y-114497000D02*
X124563000Y-114497000D01*
X124563000Y-114497000D02*
X124563000Y-108693000D01*
X124563000Y-108693000D02*
X120833000Y-108693000D01*
X120833000Y-108693000D02*
X120833000Y-114497000D01*
X127593000Y-64225000D02*
X133397000Y-64225000D01*
X133397000Y-64225000D02*
X133397000Y-67955000D01*
X133397000Y-67955000D02*
X127593000Y-67955000D01*
X127593000Y-67955000D02*
X127593000Y-64225000D01*
D11*
X124232190Y-112613285D02*
X124232190Y-112899000D01*
X124232190Y-112756142D02*
X123732190Y-112756142D01*
X123803619Y-112803761D01*
X123851238Y-112851380D01*
X123875047Y-112899000D01*
X123732190Y-112303761D02*
X123732190Y-112256142D01*
X123756000Y-112208523D01*
X123779809Y-112184714D01*
X123827428Y-112160904D01*
X123922666Y-112137095D01*
X124041714Y-112137095D01*
X124136952Y-112160904D01*
X124184571Y-112184714D01*
X124208380Y-112208523D01*
X124232190Y-112256142D01*
X124232190Y-112303761D01*
X124208380Y-112351380D01*
X124184571Y-112375190D01*
X124136952Y-112399000D01*
X124041714Y-112422809D01*
X123922666Y-112422809D01*
X123827428Y-112399000D01*
X123779809Y-112375190D01*
X123756000Y-112351380D01*
X123732190Y-112303761D01*
X123732190Y-111827571D02*
X123732190Y-111779952D01*
X123756000Y-111732333D01*
X123779809Y-111708523D01*
X123827428Y-111684714D01*
X123922666Y-111660904D01*
X124041714Y-111660904D01*
X124136952Y-111684714D01*
X124184571Y-111708523D01*
X124208380Y-111732333D01*
X124232190Y-111779952D01*
X124232190Y-111827571D01*
X124208380Y-111875190D01*
X124184571Y-111899000D01*
X124136952Y-111922809D01*
X124041714Y-111946619D01*
X123922666Y-111946619D01*
X123827428Y-111922809D01*
X123779809Y-111899000D01*
X123756000Y-111875190D01*
X123732190Y-111827571D01*
X123898857Y-111065666D02*
X124232190Y-111065666D01*
X123946476Y-111065666D02*
X123922666Y-111041857D01*
X123898857Y-110994238D01*
X123898857Y-110922809D01*
X123922666Y-110875190D01*
X123970285Y-110851380D01*
X124232190Y-110851380D01*
X123970285Y-110446619D02*
X123970285Y-110613285D01*
X124232190Y-110613285D02*
X123732190Y-110613285D01*
X123732190Y-110375190D01*
X160577714Y-125288190D02*
X160292000Y-125288190D01*
X160434857Y-125288190D02*
X160434857Y-124788190D01*
X160387238Y-124859619D01*
X160339619Y-124907238D01*
X160292000Y-124931047D01*
X160887238Y-124788190D02*
X160934857Y-124788190D01*
X160982476Y-124812000D01*
X161006285Y-124835809D01*
X161030095Y-124883428D01*
X161053904Y-124978666D01*
X161053904Y-125097714D01*
X161030095Y-125192952D01*
X161006285Y-125240571D01*
X160982476Y-125264380D01*
X160934857Y-125288190D01*
X160887238Y-125288190D01*
X160839619Y-125264380D01*
X160815809Y-125240571D01*
X160792000Y-125192952D01*
X160768190Y-125097714D01*
X160768190Y-124978666D01*
X160792000Y-124883428D01*
X160815809Y-124835809D01*
X160839619Y-124812000D01*
X160887238Y-124788190D01*
X161363428Y-124788190D02*
X161411047Y-124788190D01*
X161458666Y-124812000D01*
X161482476Y-124835809D01*
X161506285Y-124883428D01*
X161530095Y-124978666D01*
X161530095Y-125097714D01*
X161506285Y-125192952D01*
X161482476Y-125240571D01*
X161458666Y-125264380D01*
X161411047Y-125288190D01*
X161363428Y-125288190D01*
X161315809Y-125264380D01*
X161292000Y-125240571D01*
X161268190Y-125192952D01*
X161244380Y-125097714D01*
X161244380Y-124978666D01*
X161268190Y-124883428D01*
X161292000Y-124835809D01*
X161315809Y-124812000D01*
X161363428Y-124788190D01*
X162125333Y-124954857D02*
X162125333Y-125288190D01*
X162125333Y-125002476D02*
X162149142Y-124978666D01*
X162196761Y-124954857D01*
X162268190Y-124954857D01*
X162315809Y-124978666D01*
X162339619Y-125026285D01*
X162339619Y-125288190D01*
X162744380Y-125026285D02*
X162577714Y-125026285D01*
X162577714Y-125288190D02*
X162577714Y-124788190D01*
X162815809Y-124788190D01*
X123340857Y-67624190D02*
X123055142Y-67624190D01*
X123198000Y-67624190D02*
X123198000Y-67124190D01*
X123150380Y-67195619D01*
X123102761Y-67243238D01*
X123055142Y-67267047D01*
X123650380Y-67124190D02*
X123698000Y-67124190D01*
X123745619Y-67148000D01*
X123769428Y-67171809D01*
X123793238Y-67219428D01*
X123817047Y-67314666D01*
X123817047Y-67433714D01*
X123793238Y-67528952D01*
X123769428Y-67576571D01*
X123745619Y-67600380D01*
X123698000Y-67624190D01*
X123650380Y-67624190D01*
X123602761Y-67600380D01*
X123578952Y-67576571D01*
X123555142Y-67528952D01*
X123531333Y-67433714D01*
X123531333Y-67314666D01*
X123555142Y-67219428D01*
X123578952Y-67171809D01*
X123602761Y-67148000D01*
X123650380Y-67124190D01*
X124031333Y-67624190D02*
X124031333Y-67124190D01*
X124317047Y-67624190D02*
X124102761Y-67338476D01*
X124317047Y-67124190D02*
X124031333Y-67409904D01*
X125007523Y-67124190D02*
X125102761Y-67124190D01*
X125150380Y-67148000D01*
X125198000Y-67195619D01*
X125221809Y-67290857D01*
X125221809Y-67457523D01*
X125198000Y-67552761D01*
X125150380Y-67600380D01*
X125102761Y-67624190D01*
X125007523Y-67624190D01*
X124959904Y-67600380D01*
X124912285Y-67552761D01*
X124888476Y-67457523D01*
X124888476Y-67290857D01*
X124912285Y-67195619D01*
X124959904Y-67148000D01*
X125007523Y-67124190D01*
X125436095Y-67624190D02*
X125436095Y-67124190D01*
X125650380Y-67624190D02*
X125650380Y-67362285D01*
X125626571Y-67314666D01*
X125578952Y-67290857D01*
X125507523Y-67290857D01*
X125459904Y-67314666D01*
X125436095Y-67338476D01*
X125888476Y-67624190D02*
X125888476Y-67290857D01*
X125888476Y-67338476D02*
X125912285Y-67314666D01*
X125959904Y-67290857D01*
X126031333Y-67290857D01*
X126078952Y-67314666D01*
X126102761Y-67362285D01*
X126102761Y-67624190D01*
X126102761Y-67362285D02*
X126126571Y-67314666D01*
X126174190Y-67290857D01*
X126245619Y-67290857D01*
X126293238Y-67314666D01*
X126317047Y-67362285D01*
X126317047Y-67624190D01*
D10*
X132415857Y-101099142D02*
X132368238Y-101146761D01*
X132225380Y-101194380D01*
X132130142Y-101194380D01*
X131987285Y-101146761D01*
X131892047Y-101051523D01*
X131844428Y-100956285D01*
X131796809Y-100765809D01*
X131796809Y-100622952D01*
X131844428Y-100432476D01*
X131892047Y-100337238D01*
X131987285Y-100242000D01*
X132130142Y-100194380D01*
X132225380Y-100194380D01*
X132368238Y-100242000D01*
X132415857Y-100289619D01*
X133034904Y-100718190D02*
X133034904Y-101194380D01*
X132701571Y-100194380D02*
X133034904Y-100718190D01*
X133368238Y-100194380D01*
X134130142Y-100194380D02*
X133939666Y-100194380D01*
X133844428Y-100242000D01*
X133796809Y-100289619D01*
X133701571Y-100432476D01*
X133653952Y-100622952D01*
X133653952Y-101003904D01*
X133701571Y-101099142D01*
X133749190Y-101146761D01*
X133844428Y-101194380D01*
X134034904Y-101194380D01*
X134130142Y-101146761D01*
X134177761Y-101099142D01*
X134225380Y-101003904D01*
X134225380Y-100765809D01*
X134177761Y-100670571D01*
X134130142Y-100622952D01*
X134034904Y-100575333D01*
X133844428Y-100575333D01*
X133749190Y-100622952D01*
X133701571Y-100670571D01*
X133653952Y-100765809D01*
X134606333Y-100289619D02*
X134653952Y-100242000D01*
X134749190Y-100194380D01*
X134987285Y-100194380D01*
X135082523Y-100242000D01*
X135130142Y-100289619D01*
X135177761Y-100384857D01*
X135177761Y-100480095D01*
X135130142Y-100622952D01*
X134558714Y-101194380D01*
X135177761Y-101194380D01*
X136130142Y-101194380D02*
X135558714Y-101194380D01*
X135844428Y-101194380D02*
X135844428Y-100194380D01*
X135749190Y-100337238D01*
X135653952Y-100432476D01*
X135558714Y-100480095D01*
X136511095Y-100289619D02*
X136558714Y-100242000D01*
X136653952Y-100194380D01*
X136892047Y-100194380D01*
X136987285Y-100242000D01*
X137034904Y-100289619D01*
X137082523Y-100384857D01*
X137082523Y-100480095D01*
X137034904Y-100622952D01*
X136463476Y-101194380D01*
X137082523Y-101194380D01*
X137653952Y-100622952D02*
X137558714Y-100575333D01*
X137511095Y-100527714D01*
X137463476Y-100432476D01*
X137463476Y-100384857D01*
X137511095Y-100289619D01*
X137558714Y-100242000D01*
X137653952Y-100194380D01*
X137844428Y-100194380D01*
X137939666Y-100242000D01*
X137987285Y-100289619D01*
X138034904Y-100384857D01*
X138034904Y-100432476D01*
X137987285Y-100527714D01*
X137939666Y-100575333D01*
X137844428Y-100622952D01*
X137653952Y-100622952D01*
X137558714Y-100670571D01*
X137511095Y-100718190D01*
X137463476Y-100813428D01*
X137463476Y-101003904D01*
X137511095Y-101099142D01*
X137558714Y-101146761D01*
X137653952Y-101194380D01*
X137844428Y-101194380D01*
X137939666Y-101146761D01*
X137987285Y-101099142D01*
X138034904Y-101003904D01*
X138034904Y-100813428D01*
X137987285Y-100718190D01*
X137939666Y-100670571D01*
X137844428Y-100622952D01*
X138796809Y-100670571D02*
X138939666Y-100718190D01*
X138987285Y-100765809D01*
X139034904Y-100861047D01*
X139034904Y-101003904D01*
X138987285Y-101099142D01*
X138939666Y-101146761D01*
X138844428Y-101194380D01*
X138463476Y-101194380D01*
X138463476Y-100194380D01*
X138796809Y-100194380D01*
X138892047Y-100242000D01*
X138939666Y-100289619D01*
X138987285Y-100384857D01*
X138987285Y-100480095D01*
X138939666Y-100575333D01*
X138892047Y-100622952D01*
X138796809Y-100670571D01*
X138463476Y-100670571D01*
X139939666Y-101194380D02*
X139463476Y-101194380D01*
X139463476Y-100194380D01*
X140749190Y-101194380D02*
X140273000Y-101194380D01*
X140273000Y-100194380D01*
X141082523Y-100813428D02*
X141844428Y-100813428D01*
X142225380Y-100194380D02*
X142892047Y-100194380D01*
X142463476Y-101194380D01*
X143463476Y-100194380D02*
X143558714Y-100194380D01*
X143653952Y-100242000D01*
X143701571Y-100289619D01*
X143749190Y-100384857D01*
X143796809Y-100575333D01*
X143796809Y-100813428D01*
X143749190Y-101003904D01*
X143701571Y-101099142D01*
X143653952Y-101146761D01*
X143558714Y-101194380D01*
X143463476Y-101194380D01*
X143368238Y-101146761D01*
X143320619Y-101099142D01*
X143273000Y-101003904D01*
X143225380Y-100813428D01*
X143225380Y-100575333D01*
X143273000Y-100384857D01*
X143320619Y-100289619D01*
X143368238Y-100242000D01*
X143463476Y-100194380D01*
X144177761Y-101146761D02*
X144320619Y-101194380D01*
X144558714Y-101194380D01*
X144653952Y-101146761D01*
X144701571Y-101099142D01*
X144749190Y-101003904D01*
X144749190Y-100908666D01*
X144701571Y-100813428D01*
X144653952Y-100765809D01*
X144558714Y-100718190D01*
X144368238Y-100670571D01*
X144273000Y-100622952D01*
X144225380Y-100575333D01*
X144177761Y-100480095D01*
X144177761Y-100384857D01*
X144225380Y-100289619D01*
X144273000Y-100242000D01*
X144368238Y-100194380D01*
X144606333Y-100194380D01*
X144749190Y-100242000D01*
X145749190Y-101099142D02*
X145701571Y-101146761D01*
X145558714Y-101194380D01*
X145463476Y-101194380D01*
X145320619Y-101146761D01*
X145225380Y-101051523D01*
X145177761Y-100956285D01*
X145130142Y-100765809D01*
X145130142Y-100622952D01*
X145177761Y-100432476D01*
X145225380Y-100337238D01*
X145320619Y-100242000D01*
X145463476Y-100194380D01*
X145558714Y-100194380D01*
X145701571Y-100242000D01*
X145749190Y-100289619D01*
X171248428Y-90124857D02*
X171200809Y-90267714D01*
X171153190Y-90315333D01*
X171057952Y-90362952D01*
X170915095Y-90362952D01*
X170819857Y-90315333D01*
X170772238Y-90267714D01*
X170724619Y-90172476D01*
X170724619Y-89791523D01*
X171724619Y-89791523D01*
X171724619Y-90124857D01*
X171677000Y-90220095D01*
X171629380Y-90267714D01*
X171534142Y-90315333D01*
X171438904Y-90315333D01*
X171343666Y-90267714D01*
X171296047Y-90220095D01*
X171248428Y-90124857D01*
X171248428Y-89791523D01*
X170819857Y-91362952D02*
X170772238Y-91315333D01*
X170724619Y-91172476D01*
X170724619Y-91077238D01*
X170772238Y-90934380D01*
X170867476Y-90839142D01*
X170962714Y-90791523D01*
X171153190Y-90743904D01*
X171296047Y-90743904D01*
X171486523Y-90791523D01*
X171581761Y-90839142D01*
X171677000Y-90934380D01*
X171724619Y-91077238D01*
X171724619Y-91172476D01*
X171677000Y-91315333D01*
X171629380Y-91362952D01*
X171296047Y-91934380D02*
X171343666Y-91839142D01*
X171391285Y-91791523D01*
X171486523Y-91743904D01*
X171534142Y-91743904D01*
X171629380Y-91791523D01*
X171677000Y-91839142D01*
X171724619Y-91934380D01*
X171724619Y-92124857D01*
X171677000Y-92220095D01*
X171629380Y-92267714D01*
X171534142Y-92315333D01*
X171486523Y-92315333D01*
X171391285Y-92267714D01*
X171343666Y-92220095D01*
X171296047Y-92124857D01*
X171296047Y-91934380D01*
X171248428Y-91839142D01*
X171200809Y-91791523D01*
X171105571Y-91743904D01*
X170915095Y-91743904D01*
X170819857Y-91791523D01*
X170772238Y-91839142D01*
X170724619Y-91934380D01*
X170724619Y-92124857D01*
X170772238Y-92220095D01*
X170819857Y-92267714D01*
X170915095Y-92315333D01*
X171105571Y-92315333D01*
X171200809Y-92267714D01*
X171248428Y-92220095D01*
X171296047Y-92124857D01*
X171391285Y-93172476D02*
X170724619Y-93172476D01*
X171772238Y-92934380D02*
X171057952Y-92696285D01*
X171057952Y-93315333D01*
X171724619Y-93601047D02*
X171724619Y-94267714D01*
X170724619Y-93839142D01*
X171248428Y-94982000D02*
X171200809Y-95124857D01*
X171153190Y-95172476D01*
X171057952Y-95220095D01*
X170915095Y-95220095D01*
X170819857Y-95172476D01*
X170772238Y-95124857D01*
X170724619Y-95029619D01*
X170724619Y-94648666D01*
X171724619Y-94648666D01*
X171724619Y-94982000D01*
X171677000Y-95077238D01*
X171629380Y-95124857D01*
X171534142Y-95172476D01*
X171438904Y-95172476D01*
X171343666Y-95124857D01*
X171296047Y-95077238D01*
X171248428Y-94982000D01*
X171248428Y-94648666D01*
D11*
X154585857Y-59734190D02*
X154300142Y-59734190D01*
X154443000Y-59734190D02*
X154443000Y-59234190D01*
X154395380Y-59305619D01*
X154347761Y-59353238D01*
X154300142Y-59377047D01*
X154895380Y-59234190D02*
X154943000Y-59234190D01*
X154990619Y-59258000D01*
X155014428Y-59281809D01*
X155038238Y-59329428D01*
X155062047Y-59424666D01*
X155062047Y-59543714D01*
X155038238Y-59638952D01*
X155014428Y-59686571D01*
X154990619Y-59710380D01*
X154943000Y-59734190D01*
X154895380Y-59734190D01*
X154847761Y-59710380D01*
X154823952Y-59686571D01*
X154800142Y-59638952D01*
X154776333Y-59543714D01*
X154776333Y-59424666D01*
X154800142Y-59329428D01*
X154823952Y-59281809D01*
X154847761Y-59258000D01*
X154895380Y-59234190D01*
X155276333Y-59734190D02*
X155276333Y-59234190D01*
X155562047Y-59734190D02*
X155347761Y-59448476D01*
X155562047Y-59234190D02*
X155276333Y-59519904D01*
X156252523Y-59234190D02*
X156347761Y-59234190D01*
X156395380Y-59258000D01*
X156443000Y-59305619D01*
X156466809Y-59400857D01*
X156466809Y-59567523D01*
X156443000Y-59662761D01*
X156395380Y-59710380D01*
X156347761Y-59734190D01*
X156252523Y-59734190D01*
X156204904Y-59710380D01*
X156157285Y-59662761D01*
X156133476Y-59567523D01*
X156133476Y-59400857D01*
X156157285Y-59305619D01*
X156204904Y-59258000D01*
X156252523Y-59234190D01*
X156681095Y-59734190D02*
X156681095Y-59234190D01*
X156895380Y-59734190D02*
X156895380Y-59472285D01*
X156871571Y-59424666D01*
X156823952Y-59400857D01*
X156752523Y-59400857D01*
X156704904Y-59424666D01*
X156681095Y-59448476D01*
X157133476Y-59734190D02*
X157133476Y-59400857D01*
X157133476Y-59448476D02*
X157157285Y-59424666D01*
X157204904Y-59400857D01*
X157276333Y-59400857D01*
X157323952Y-59424666D01*
X157347761Y-59472285D01*
X157347761Y-59734190D01*
X157347761Y-59472285D02*
X157371571Y-59424666D01*
X157419190Y-59400857D01*
X157490619Y-59400857D01*
X157538238Y-59424666D01*
X157562047Y-59472285D01*
X157562047Y-59734190D01*
D10*
X131998000Y-129784714D02*
X131998000Y-128356142D01*
X132283714Y-131061380D02*
X131712285Y-131061380D01*
X131998000Y-131061380D02*
X131998000Y-130061380D01*
X131902761Y-130204238D01*
X131807523Y-130299476D01*
X131712285Y-130347095D01*
D11*
X129476714Y-67624190D02*
X129191000Y-67624190D01*
X129333857Y-67624190D02*
X129333857Y-67124190D01*
X129286238Y-67195619D01*
X129238619Y-67243238D01*
X129191000Y-67267047D01*
X129786238Y-67124190D02*
X129833857Y-67124190D01*
X129881476Y-67148000D01*
X129905285Y-67171809D01*
X129929095Y-67219428D01*
X129952904Y-67314666D01*
X129952904Y-67433714D01*
X129929095Y-67528952D01*
X129905285Y-67576571D01*
X129881476Y-67600380D01*
X129833857Y-67624190D01*
X129786238Y-67624190D01*
X129738619Y-67600380D01*
X129714809Y-67576571D01*
X129691000Y-67528952D01*
X129667190Y-67433714D01*
X129667190Y-67314666D01*
X129691000Y-67219428D01*
X129714809Y-67171809D01*
X129738619Y-67148000D01*
X129786238Y-67124190D01*
X130262428Y-67124190D02*
X130310047Y-67124190D01*
X130357666Y-67148000D01*
X130381476Y-67171809D01*
X130405285Y-67219428D01*
X130429095Y-67314666D01*
X130429095Y-67433714D01*
X130405285Y-67528952D01*
X130381476Y-67576571D01*
X130357666Y-67600380D01*
X130310047Y-67624190D01*
X130262428Y-67624190D01*
X130214809Y-67600380D01*
X130191000Y-67576571D01*
X130167190Y-67528952D01*
X130143380Y-67433714D01*
X130143380Y-67314666D01*
X130167190Y-67219428D01*
X130191000Y-67171809D01*
X130214809Y-67148000D01*
X130262428Y-67124190D01*
X131024333Y-67290857D02*
X131024333Y-67624190D01*
X131024333Y-67338476D02*
X131048142Y-67314666D01*
X131095761Y-67290857D01*
X131167190Y-67290857D01*
X131214809Y-67314666D01*
X131238619Y-67362285D01*
X131238619Y-67624190D01*
X131643380Y-67362285D02*
X131476714Y-67362285D01*
X131476714Y-67624190D02*
X131476714Y-67124190D01*
X131714809Y-67124190D01*
D10*
X124605714Y-100354380D02*
X124034285Y-100354380D01*
X124320000Y-100354380D02*
X124320000Y-99354380D01*
X124224761Y-99497238D01*
X124129523Y-99592476D01*
X124034285Y-99640095D01*
X124320000Y-102297714D02*
X124320000Y-100869142D01*
X154310857Y-99036428D02*
X155072761Y-99036428D01*
X156072761Y-99417380D02*
X155501333Y-99417380D01*
X155787047Y-99417380D02*
X155787047Y-98417380D01*
X155691809Y-98560238D01*
X155596571Y-98655476D01*
X155501333Y-98703095D01*
X159513333Y-90526380D02*
X160132380Y-90526380D01*
X159799047Y-90907333D01*
X159941904Y-90907333D01*
X160037142Y-90954952D01*
X160084761Y-91002571D01*
X160132380Y-91097809D01*
X160132380Y-91335904D01*
X160084761Y-91431142D01*
X160037142Y-91478761D01*
X159941904Y-91526380D01*
X159656190Y-91526380D01*
X159560952Y-91478761D01*
X159513333Y-91431142D01*
X160751428Y-90526380D02*
X160846666Y-90526380D01*
X160941904Y-90574000D01*
X160989523Y-90621619D01*
X161037142Y-90716857D01*
X161084761Y-90907333D01*
X161084761Y-91145428D01*
X161037142Y-91335904D01*
X160989523Y-91431142D01*
X160941904Y-91478761D01*
X160846666Y-91526380D01*
X160751428Y-91526380D01*
X160656190Y-91478761D01*
X160608571Y-91431142D01*
X160560952Y-91335904D01*
X160513333Y-91145428D01*
X160513333Y-90907333D01*
X160560952Y-90716857D01*
X160608571Y-90621619D01*
X160656190Y-90574000D01*
X160751428Y-90526380D01*
X162703809Y-90859714D02*
X162703809Y-91526380D01*
X162275238Y-90859714D02*
X162275238Y-91383523D01*
X162322857Y-91478761D01*
X162418095Y-91526380D01*
X162560952Y-91526380D01*
X162656190Y-91478761D01*
X162703809Y-91431142D01*
X163180000Y-91526380D02*
X163180000Y-90526380D01*
X163180000Y-91002571D02*
X163751428Y-91002571D01*
X163751428Y-91526380D02*
X163751428Y-90526380D01*
X130770142Y-118645761D02*
X130913000Y-118693380D01*
X131151095Y-118693380D01*
X131246333Y-118645761D01*
X131293952Y-118598142D01*
X131341571Y-118502904D01*
X131341571Y-118407666D01*
X131293952Y-118312428D01*
X131246333Y-118264809D01*
X131151095Y-118217190D01*
X130960619Y-118169571D01*
X130865380Y-118121952D01*
X130817761Y-118074333D01*
X130770142Y-117979095D01*
X130770142Y-117883857D01*
X130817761Y-117788619D01*
X130865380Y-117741000D01*
X130960619Y-117693380D01*
X131198714Y-117693380D01*
X131341571Y-117741000D01*
X131722523Y-118645761D02*
X131865380Y-118693380D01*
X132103476Y-118693380D01*
X132198714Y-118645761D01*
X132246333Y-118598142D01*
X132293952Y-118502904D01*
X132293952Y-118407666D01*
X132246333Y-118312428D01*
X132198714Y-118264809D01*
X132103476Y-118217190D01*
X131913000Y-118169571D01*
X131817761Y-118121952D01*
X131770142Y-118074333D01*
X131722523Y-117979095D01*
X131722523Y-117883857D01*
X131770142Y-117788619D01*
X131817761Y-117741000D01*
X131913000Y-117693380D01*
X132151095Y-117693380D01*
X132293952Y-117741000D01*
X132579666Y-117693380D02*
X133151095Y-117693380D01*
X132865380Y-118693380D02*
X132865380Y-117693380D01*
X128770142Y-119303380D02*
X129389190Y-119303380D01*
X129055857Y-119684333D01*
X129198714Y-119684333D01*
X129293952Y-119731952D01*
X129341571Y-119779571D01*
X129389190Y-119874809D01*
X129389190Y-120112904D01*
X129341571Y-120208142D01*
X129293952Y-120255761D01*
X129198714Y-120303380D01*
X128913000Y-120303380D01*
X128817761Y-120255761D01*
X128770142Y-120208142D01*
X129865380Y-120303380D02*
X130055857Y-120303380D01*
X130151095Y-120255761D01*
X130198714Y-120208142D01*
X130293952Y-120065285D01*
X130341571Y-119874809D01*
X130341571Y-119493857D01*
X130293952Y-119398619D01*
X130246333Y-119351000D01*
X130151095Y-119303380D01*
X129960619Y-119303380D01*
X129865380Y-119351000D01*
X129817761Y-119398619D01*
X129770142Y-119493857D01*
X129770142Y-119731952D01*
X129817761Y-119827190D01*
X129865380Y-119874809D01*
X129960619Y-119922428D01*
X130151095Y-119922428D01*
X130246333Y-119874809D01*
X130293952Y-119827190D01*
X130341571Y-119731952D01*
X130722523Y-120255761D02*
X130865380Y-120303380D01*
X131103476Y-120303380D01*
X131198714Y-120255761D01*
X131246333Y-120208142D01*
X131293952Y-120112904D01*
X131293952Y-120017666D01*
X131246333Y-119922428D01*
X131198714Y-119874809D01*
X131103476Y-119827190D01*
X130913000Y-119779571D01*
X130817761Y-119731952D01*
X130770142Y-119684333D01*
X130722523Y-119589095D01*
X130722523Y-119493857D01*
X130770142Y-119398619D01*
X130817761Y-119351000D01*
X130913000Y-119303380D01*
X131151095Y-119303380D01*
X131293952Y-119351000D01*
X132055857Y-119779571D02*
X131722523Y-119779571D01*
X131722523Y-120303380D02*
X131722523Y-119303380D01*
X132198714Y-119303380D01*
X132770142Y-119303380D02*
X132865380Y-119303380D01*
X132960619Y-119351000D01*
X133008238Y-119398619D01*
X133055857Y-119493857D01*
X133103476Y-119684333D01*
X133103476Y-119922428D01*
X133055857Y-120112904D01*
X133008238Y-120208142D01*
X132960619Y-120255761D01*
X132865380Y-120303380D01*
X132770142Y-120303380D01*
X132674904Y-120255761D01*
X132627285Y-120208142D01*
X132579666Y-120112904D01*
X132532047Y-119922428D01*
X132532047Y-119684333D01*
X132579666Y-119493857D01*
X132627285Y-119398619D01*
X132674904Y-119351000D01*
X132770142Y-119303380D01*
X134055857Y-120303380D02*
X133484428Y-120303380D01*
X133770142Y-120303380D02*
X133770142Y-119303380D01*
X133674904Y-119446238D01*
X133579666Y-119541476D01*
X133484428Y-119589095D01*
X134674904Y-119303380D02*
X134770142Y-119303380D01*
X134865380Y-119351000D01*
X134913000Y-119398619D01*
X134960619Y-119493857D01*
X135008238Y-119684333D01*
X135008238Y-119922428D01*
X134960619Y-120112904D01*
X134913000Y-120208142D01*
X134865380Y-120255761D01*
X134770142Y-120303380D01*
X134674904Y-120303380D01*
X134579666Y-120255761D01*
X134532047Y-120208142D01*
X134484428Y-120112904D01*
X134436809Y-119922428D01*
X134436809Y-119684333D01*
X134484428Y-119493857D01*
X134532047Y-119398619D01*
X134579666Y-119351000D01*
X134674904Y-119303380D01*
%TO.C,U3*%
X161556000Y-100357571D02*
X161603619Y-100262333D01*
X161603619Y-100119476D01*
X161556000Y-99976619D01*
X161460761Y-99881380D01*
X161365523Y-99833761D01*
X161175047Y-99786142D01*
X161032190Y-99786142D01*
X160841714Y-99833761D01*
X160746476Y-99881380D01*
X160651238Y-99976619D01*
X160603619Y-100119476D01*
X160603619Y-100214714D01*
X160651238Y-100357571D01*
X160698857Y-100405190D01*
X161032190Y-100405190D01*
X161032190Y-100214714D01*
X161127428Y-101167095D02*
X161079809Y-101309952D01*
X161032190Y-101357571D01*
X160936952Y-101405190D01*
X160794095Y-101405190D01*
X160698857Y-101357571D01*
X160651238Y-101309952D01*
X160603619Y-101214714D01*
X160603619Y-100833761D01*
X161603619Y-100833761D01*
X161603619Y-101167095D01*
X161556000Y-101262333D01*
X161508380Y-101309952D01*
X161413142Y-101357571D01*
X161317904Y-101357571D01*
X161222666Y-101309952D01*
X161175047Y-101262333D01*
X161127428Y-101167095D01*
X161127428Y-100833761D01*
X160889333Y-101786142D02*
X160889333Y-102262333D01*
X160603619Y-101690904D02*
X161603619Y-102024238D01*
X160603619Y-102357571D01*
X160651238Y-102643285D02*
X160603619Y-102786142D01*
X160603619Y-103024238D01*
X160651238Y-103119476D01*
X160698857Y-103167095D01*
X160794095Y-103214714D01*
X160889333Y-103214714D01*
X160984571Y-103167095D01*
X161032190Y-103119476D01*
X161079809Y-103024238D01*
X161127428Y-102833761D01*
X161175047Y-102738523D01*
X161222666Y-102690904D01*
X161317904Y-102643285D01*
X161413142Y-102643285D01*
X161508380Y-102690904D01*
X161556000Y-102738523D01*
X161603619Y-102833761D01*
X161603619Y-103071857D01*
X161556000Y-103214714D01*
X160603619Y-103643285D02*
X161603619Y-103643285D01*
X160698857Y-104690904D02*
X160651238Y-104643285D01*
X160603619Y-104500428D01*
X160603619Y-104405190D01*
X160651238Y-104262333D01*
X160746476Y-104167095D01*
X160841714Y-104119476D01*
X161032190Y-104071857D01*
X161175047Y-104071857D01*
X161365523Y-104119476D01*
X161460761Y-104167095D01*
X161556000Y-104262333D01*
X161603619Y-104405190D01*
X161603619Y-104500428D01*
X161556000Y-104643285D01*
X161508380Y-104690904D01*
X161603619Y-104976619D02*
X160603619Y-105309952D01*
X161603619Y-105643285D01*
X161603619Y-105881380D02*
X161603619Y-106500428D01*
X161222666Y-106167095D01*
X161222666Y-106309952D01*
X161175047Y-106405190D01*
X161127428Y-106452809D01*
X161032190Y-106500428D01*
X160794095Y-106500428D01*
X160698857Y-106452809D01*
X160651238Y-106405190D01*
X160603619Y-106309952D01*
X160603619Y-106024238D01*
X160651238Y-105929000D01*
X160698857Y-105881380D01*
X161603619Y-107881380D02*
X161603619Y-108071857D01*
X161556000Y-108167095D01*
X161460761Y-108262333D01*
X161270285Y-108309952D01*
X160936952Y-108309952D01*
X160746476Y-108262333D01*
X160651238Y-108167095D01*
X160603619Y-108071857D01*
X160603619Y-107881380D01*
X160651238Y-107786142D01*
X160746476Y-107690904D01*
X160936952Y-107643285D01*
X161270285Y-107643285D01*
X161460761Y-107690904D01*
X161556000Y-107786142D01*
X161603619Y-107881380D01*
X160603619Y-109309952D02*
X161079809Y-108976619D01*
X160603619Y-108738523D02*
X161603619Y-108738523D01*
X161603619Y-109119476D01*
X161556000Y-109214714D01*
X161508380Y-109262333D01*
X161413142Y-109309952D01*
X161270285Y-109309952D01*
X161175047Y-109262333D01*
X161127428Y-109214714D01*
X161079809Y-109119476D01*
X161079809Y-108738523D01*
X161127428Y-110071857D02*
X161079809Y-110214714D01*
X161032190Y-110262333D01*
X160936952Y-110309952D01*
X160794095Y-110309952D01*
X160698857Y-110262333D01*
X160651238Y-110214714D01*
X160603619Y-110119476D01*
X160603619Y-109738523D01*
X161603619Y-109738523D01*
X161603619Y-110071857D01*
X161556000Y-110167095D01*
X161508380Y-110214714D01*
X161413142Y-110262333D01*
X161317904Y-110262333D01*
X161222666Y-110214714D01*
X161175047Y-110167095D01*
X161127428Y-110071857D01*
X161127428Y-109738523D01*
X160603619Y-110738523D02*
X161603619Y-110738523D01*
X161603619Y-111071857D02*
X161603619Y-111643285D01*
X160603619Y-111357571D02*
X161603619Y-111357571D01*
X161603619Y-113167095D02*
X161603619Y-112976619D01*
X161556000Y-112881380D01*
X161508380Y-112833761D01*
X161365523Y-112738523D01*
X161175047Y-112690904D01*
X160794095Y-112690904D01*
X160698857Y-112738523D01*
X160651238Y-112786142D01*
X160603619Y-112881380D01*
X160603619Y-113071857D01*
X160651238Y-113167095D01*
X160698857Y-113214714D01*
X160794095Y-113262333D01*
X161032190Y-113262333D01*
X161127428Y-113214714D01*
X161175047Y-113167095D01*
X161222666Y-113071857D01*
X161222666Y-112881380D01*
X161175047Y-112786142D01*
X161127428Y-112738523D01*
X161032190Y-112690904D01*
X160603619Y-114214714D02*
X160603619Y-113643285D01*
X160603619Y-113929000D02*
X161603619Y-113929000D01*
X161460761Y-113833761D01*
X161365523Y-113738523D01*
X161317904Y-113643285D01*
X161603619Y-115071857D02*
X161603619Y-114881380D01*
X161556000Y-114786142D01*
X161508380Y-114738523D01*
X161365523Y-114643285D01*
X161175047Y-114595666D01*
X160794095Y-114595666D01*
X160698857Y-114643285D01*
X160651238Y-114690904D01*
X160603619Y-114786142D01*
X160603619Y-114976619D01*
X160651238Y-115071857D01*
X160698857Y-115119476D01*
X160794095Y-115167095D01*
X161032190Y-115167095D01*
X161127428Y-115119476D01*
X161175047Y-115071857D01*
X161222666Y-114976619D01*
X161222666Y-114786142D01*
X161175047Y-114690904D01*
X161127428Y-114643285D01*
X161032190Y-114595666D01*
X161603619Y-115500428D02*
X161603619Y-116167095D01*
X160603619Y-115738523D01*
X161603619Y-116976619D02*
X161603619Y-116786142D01*
X161556000Y-116690904D01*
X161508380Y-116643285D01*
X161365523Y-116548047D01*
X161175047Y-116500428D01*
X160794095Y-116500428D01*
X160698857Y-116548047D01*
X160651238Y-116595666D01*
X160603619Y-116690904D01*
X160603619Y-116881380D01*
X160651238Y-116976619D01*
X160698857Y-117024238D01*
X160794095Y-117071857D01*
X161032190Y-117071857D01*
X161127428Y-117024238D01*
X161175047Y-116976619D01*
X161222666Y-116881380D01*
X161222666Y-116690904D01*
X161175047Y-116595666D01*
X161127428Y-116548047D01*
X161032190Y-116500428D01*
%TO.C,U2*%
X131027333Y-96639380D02*
X131360666Y-97639380D01*
X131694000Y-96639380D01*
X132455904Y-96639380D02*
X132265428Y-96639380D01*
X132170190Y-96687000D01*
X132122571Y-96734619D01*
X132027333Y-96877476D01*
X131979714Y-97067952D01*
X131979714Y-97448904D01*
X132027333Y-97544142D01*
X132074952Y-97591761D01*
X132170190Y-97639380D01*
X132360666Y-97639380D01*
X132455904Y-97591761D01*
X132503523Y-97544142D01*
X132551142Y-97448904D01*
X132551142Y-97210809D01*
X132503523Y-97115571D01*
X132455904Y-97067952D01*
X132360666Y-97020333D01*
X132170190Y-97020333D01*
X132074952Y-97067952D01*
X132027333Y-97115571D01*
X131979714Y-97210809D01*
X132932095Y-96734619D02*
X132979714Y-96687000D01*
X133074952Y-96639380D01*
X133313047Y-96639380D01*
X133408285Y-96687000D01*
X133455904Y-96734619D01*
X133503523Y-96829857D01*
X133503523Y-96925095D01*
X133455904Y-97067952D01*
X132884476Y-97639380D01*
X133503523Y-97639380D01*
X134503523Y-97544142D02*
X134455904Y-97591761D01*
X134313047Y-97639380D01*
X134217809Y-97639380D01*
X134074952Y-97591761D01*
X133979714Y-97496523D01*
X133932095Y-97401285D01*
X133884476Y-97210809D01*
X133884476Y-97067952D01*
X133932095Y-96877476D01*
X133979714Y-96782238D01*
X134074952Y-96687000D01*
X134217809Y-96639380D01*
X134313047Y-96639380D01*
X134455904Y-96687000D01*
X134503523Y-96734619D01*
X135408285Y-96639380D02*
X134932095Y-96639380D01*
X134884476Y-97115571D01*
X134932095Y-97067952D01*
X135027333Y-97020333D01*
X135265428Y-97020333D01*
X135360666Y-97067952D01*
X135408285Y-97115571D01*
X135455904Y-97210809D01*
X135455904Y-97448904D01*
X135408285Y-97544142D01*
X135360666Y-97591761D01*
X135265428Y-97639380D01*
X135027333Y-97639380D01*
X134932095Y-97591761D01*
X134884476Y-97544142D01*
X136408285Y-97639380D02*
X135836857Y-97639380D01*
X136122571Y-97639380D02*
X136122571Y-96639380D01*
X136027333Y-96782238D01*
X135932095Y-96877476D01*
X135836857Y-96925095D01*
X136979714Y-97067952D02*
X136884476Y-97020333D01*
X136836857Y-96972714D01*
X136789238Y-96877476D01*
X136789238Y-96829857D01*
X136836857Y-96734619D01*
X136884476Y-96687000D01*
X136979714Y-96639380D01*
X137170190Y-96639380D01*
X137265428Y-96687000D01*
X137313047Y-96734619D01*
X137360666Y-96829857D01*
X137360666Y-96877476D01*
X137313047Y-96972714D01*
X137265428Y-97020333D01*
X137170190Y-97067952D01*
X136979714Y-97067952D01*
X136884476Y-97115571D01*
X136836857Y-97163190D01*
X136789238Y-97258428D01*
X136789238Y-97448904D01*
X136836857Y-97544142D01*
X136884476Y-97591761D01*
X136979714Y-97639380D01*
X137170190Y-97639380D01*
X137265428Y-97591761D01*
X137313047Y-97544142D01*
X137360666Y-97448904D01*
X137360666Y-97258428D01*
X137313047Y-97163190D01*
X137265428Y-97115571D01*
X137170190Y-97067952D01*
X138313047Y-97639380D02*
X137741619Y-97639380D01*
X138027333Y-97639380D02*
X138027333Y-96639380D01*
X137932095Y-96782238D01*
X137836857Y-96877476D01*
X137741619Y-96925095D01*
X138932095Y-96639380D02*
X139027333Y-96639380D01*
X139122571Y-96687000D01*
X139170190Y-96734619D01*
X139217809Y-96829857D01*
X139265428Y-97020333D01*
X139265428Y-97258428D01*
X139217809Y-97448904D01*
X139170190Y-97544142D01*
X139122571Y-97591761D01*
X139027333Y-97639380D01*
X138932095Y-97639380D01*
X138836857Y-97591761D01*
X138789238Y-97544142D01*
X138741619Y-97448904D01*
X138694000Y-97258428D01*
X138694000Y-97020333D01*
X138741619Y-96829857D01*
X138789238Y-96734619D01*
X138836857Y-96687000D01*
X138932095Y-96639380D01*
X139646380Y-96734619D02*
X139694000Y-96687000D01*
X139789238Y-96639380D01*
X140027333Y-96639380D01*
X140122571Y-96687000D01*
X140170190Y-96734619D01*
X140217809Y-96829857D01*
X140217809Y-96925095D01*
X140170190Y-97067952D01*
X139598761Y-97639380D01*
X140217809Y-97639380D01*
X141074952Y-96972714D02*
X141074952Y-97639380D01*
X140836857Y-96591761D02*
X140598761Y-97306047D01*
X141217809Y-97306047D01*
X142074952Y-97639380D02*
X141598761Y-97639380D01*
X141598761Y-96639380D01*
X142408285Y-97258428D02*
X143170190Y-97258428D01*
X143551142Y-96639380D02*
X144217809Y-96639380D01*
X143789238Y-97639380D01*
X144789238Y-96639380D02*
X144884476Y-96639380D01*
X144979714Y-96687000D01*
X145027333Y-96734619D01*
X145074952Y-96829857D01*
X145122571Y-97020333D01*
X145122571Y-97258428D01*
X145074952Y-97448904D01*
X145027333Y-97544142D01*
X144979714Y-97591761D01*
X144884476Y-97639380D01*
X144789238Y-97639380D01*
X144694000Y-97591761D01*
X144646380Y-97544142D01*
X144598761Y-97448904D01*
X144551142Y-97258428D01*
X144551142Y-97020333D01*
X144598761Y-96829857D01*
X144646380Y-96734619D01*
X144694000Y-96687000D01*
X144789238Y-96639380D01*
X145455904Y-96639380D02*
X145694000Y-97639380D01*
X145884476Y-96925095D01*
X146074952Y-97639380D01*
X146313047Y-96639380D01*
%TD*%
M02*
